SplineFontDB: 3.0
FontName: PatrickHandSC-Regular
FullName: Patrick Hand SC
FamilyName: Patrick Hand SC
Weight: Book
Copyright: Copyright (c) 2012 Patrick Wagesreiter (mail@patrickwagesreiter.at)
Version: 1.003;PS 001.003;hotconv 1.0.70;makeotf.lib2.5.58329
ItalicAngle: 0
UnderlinePosition: -50
UnderlineWidth: 50
Ascent: 800
Descent: 200
sfntRevision: 0x000100c4
LayerCount: 2
Layer: 0 1 "Back"  1
Layer: 1 1 "Fore"  0
XUID: [1021 120 696304791 2386583]
FSType: 0
OS2Version: 3
OS2_WeightWidthSlopeOnly: 0
OS2_UseTypoMetrics: 1
CreationTime: 1359510068
ModificationTime: 1360329838
PfmFamily: 81
TTFWeight: 400
TTFWidth: 5
LineGap: 0
VLineGap: 0
Panose: 0 0 5 0 0 0 0 0 0 0
OS2TypoAscent: 1024
OS2TypoAOffset: 0
OS2TypoDescent: -312
OS2TypoDOffset: 0
OS2TypoLinegap: 0
OS2WinAscent: 1042
OS2WinAOffset: 0
OS2WinDescent: 312
OS2WinDOffset: 0
HheadAscent: 1042
HheadAOffset: 0
HheadDescent: -312
HheadDOffset: 0
OS2SubXSize: 650
OS2SubYSize: 600
OS2SubXOff: 0
OS2SubYOff: 75
OS2SupXSize: 650
OS2SupYSize: 600
OS2SupXOff: 0
OS2SupYOff: 350
OS2StrikeYSize: 50
OS2StrikeYPos: 276
OS2Vendor: 'UKWN'
OS2CodePages: 00000193.00000000
OS2UnicodeRanges: 20000007.00000000.00000000.00000000
Lookup: 1 0 0 "'aalt' Access All Alternates lookup 0"  {"'aalt' Access All Alternates lookup 0 subtable"  } ['aalt' ('DFLT' <'dflt' > 'grek' <'dflt' > 'latn' <'CAT ' 'MOL ' 'ROM ' 'TRK ' 'dflt' > ) ]
Lookup: 3 0 0 "'aalt' Access All Alternates lookup 1"  {"'aalt' Access All Alternates lookup 1 subtable"  } ['aalt' ('DFLT' <'dflt' > 'grek' <'dflt' > 'latn' <'CAT ' 'MOL ' 'ROM ' 'TRK ' 'dflt' > ) ]
Lookup: 6 0 0 "'locl' Localized Forms in Latin lookup 2"  {"'locl' Localized Forms in Latin lookup 2 contextual 0"  "'locl' Localized Forms in Latin lookup 2 contextual 1"  } ['locl' ('latn' <'CAT ' > ) ]
Lookup: 1 0 0 "'locl' Localized Forms in Latin lookup 3"  {"'locl' Localized Forms in Latin lookup 3 subtable"  } ['locl' ('latn' <'ROM ' > ) ]

StartChar: exclam
Encoding: 33 33 5
Width: 247
GlyphClass: 2
Flags: W
LayerCount: 2
Fore
SplineSet
164 688 m 1,0,-1
 155 347 l 1,1,2
 155 292 155 292 156 275 c 1,3,4
 152 262 152 262 140.5 252 c 128,-1,5
 129 242 129 242 115 242 c 128,-1,6
 101 242 101 242 92 264 c 1,7,8
 77 516 77 516 77 688 c 1,9,10
 86 713 86 713 123 713 c 128,-1,11
 160 713 160 713 164 688 c 1,0,-1
80 84 m 128,-1,13
 80 102 80 102 94 117 c 128,-1,14
 108 132 108 132 131.5 132 c 128,-1,15
 155 132 155 132 165.5 123 c 128,-1,16
 176 114 176 114 176 84 c 0,17,18
 176 31 176 31 132 31 c 0,19,20
 110 31 110 31 95 48.5 c 128,-1,12
 80 66 80 66 80 84 c 128,-1,13
EndSplineSet
EndChar

StartChar: quotedbl
Encoding: 34 34 6
Width: 303
GlyphClass: 2
Flags: W
LayerCount: 2
Fore
SplineSet
80 547 m 128,-1,1
 67 547 67 547 57 556.5 c 128,-1,2
 47 566 47 566 44 583 c 1,3,-1
 52 732 l 1,4,5
 57 763 57 763 86 763 c 0,6,7
 121 763 121 763 121 695 c 0,8,9
 121 678 121 678 117.5 651 c 128,-1,10
 114 624 114 624 113 584 c 0,11,12
 112 567 112 567 102.5 557 c 128,-1,0
 93 547 93 547 80 547 c 128,-1,1
207 755 m 0,13,14
 234 755 234 755 240 725 c 1,15,16
 240 725 240 725 235 600 c 0,17,18
 235 583 235 583 225 573 c 128,-1,19
 215 563 215 563 203 563 c 0,20,21
 170 563 170 563 167 596 c 1,22,23
 167 644 167 644 170 659.5 c 128,-1,24
 173 675 173 675 173 721 c 1,25,26
 175 736 175 736 185 745.5 c 128,-1,27
 195 755 195 755 207 755 c 0,13,14
EndSplineSet
EndChar

StartChar: numbersign
Encoding: 35 35 7
Width: 457
GlyphClass: 2
Flags: W
LayerCount: 2
Fore
SplineSet
436 313 m 0,0,1
 436 303 436 303 429 293 c 128,-1,2
 422 283 422 283 418 282.5 c 128,-1,3
 414 282 414 282 404 282 c 2,4,-1
 360 284 l 1,5,6
 346 251 346 251 335.5 216 c 128,-1,7
 325 181 325 181 320 172 c 1,8,-1
 359 172 l 1,9,10
 385 160 385 160 385 136 c 128,-1,11
 385 112 385 112 356 107 c 1,12,-1
 307 107 l 1,13,14
 306 100 306 100 303 69 c 128,-1,15
 300 38 300 38 292 17 c 128,-1,16
 284 -4 284 -4 261 -4 c 128,-1,17
 238 -4 238 -4 233 23 c 1,18,-1
 244 104 l 1,19,-1
 152 100 l 1,20,-1
 147 69 l 2,21,22
 139 25 139 25 130 12 c 1,23,24
 121 1 121 1 108.5 1 c 128,-1,25
 96 1 96 1 87 10.5 c 128,-1,26
 78 20 78 20 77 35 c 1,27,-1
 84 87 l 2,28,29
 85 99 85 99 85 100 c 1,30,-1
 68 100 l 1,31,32
 53 102 53 102 44 111.5 c 128,-1,33
 35 121 35 121 35 133 c 128,-1,34
 35 145 35 145 45.5 154.5 c 128,-1,35
 56 164 56 164 71 164 c 2,36,-1
 103 164 l 1,37,38
 115 214 115 214 143 277 c 1,39,40
 91 275 91 275 79.5 275.5 c 128,-1,41
 68 276 68 276 58.5 285 c 128,-1,42
 49 294 49 294 49 307 c 0,43,44
 49 330 49 330 74.5 337 c 128,-1,45
 100 344 100 344 140 348 c 2,46,-1
 172 352 l 1,47,48
 179 367 179 367 183 397 c 0,49,50
 193 464 193 464 225 464 c 0,51,52
 259 464 259 464 259 426 c 0,53,54
 259 406 259 406 244 359 c 1,55,56
 264 359 264 359 316 355 c 1,57,58
 320 367 320 367 325 393 c 128,-1,59
 330 419 330 419 334 430 c 0,60,61
 344 463 344 463 367 463 c 0,62,63
 397 463 397 463 397 422 c 0,64,65
 397 399 397 399 380 348 c 1,66,67
 390 348 390 348 416 341 c 0,68,69
 436 335 436 335 436 313 c 0,0,1
215 288 m 1,70,71
 207 273 207 273 168 167 c 1,72,73
 179 167 179 167 257 169 c 1,74,75
 268 215 268 215 289 292 c 1,76,77
 242 292 242 292 215 288 c 1,70,71
EndSplineSet
EndChar

StartChar: dollar
Encoding: 36 36 8
Width: 507
GlyphClass: 2
Flags: W
LayerCount: 2
Fore
SplineSet
440 511 m 0,0,1
 419 511 419 511 409 535 c 1,2,3
 396 587 396 587 311 596 c 1,4,-1
 311 569 l 1,5,-1
 305 361 l 1,6,7
 475 298 475 298 475 143 c 0,8,9
 475 68 475 68 415 36 c 128,-1,10
 355 4 355 4 284 4 c 1,11,-1
 284 -20 l 1,12,13
 283 -37 283 -37 272 -48 c 128,-1,14
 261 -59 261 -59 249 -59 c 0,15,16
 220 -59 220 -59 215 -23 c 1,17,-1
 215 5 l 1,18,19
 157 21 157 21 108.5 56.5 c 128,-1,20
 60 92 60 92 60 128 c 0,21,22
 60 143 60 143 69 153 c 128,-1,23
 78 163 78 163 90.5 163 c 128,-1,24
 103 163 103 163 125 144 c 0,25,26
 126 143 126 143 142 128 c 0,27,28
 193 82 193 82 220 72 c 1,29,30
 224 120 224 120 225 190.5 c 128,-1,31
 226 261 226 261 232 316 c 1,32,33
 113 361 113 361 83 408 c 0,34,35
 71 428 71 428 71 464.5 c 128,-1,36
 71 501 71 501 91 545 c 128,-1,37
 111 589 111 589 147.5 621.5 c 128,-1,38
 184 654 184 654 233 664 c 1,39,-1
 233 692 l 1,40,41
 235 707 235 707 245 715.5 c 128,-1,42
 255 724 255 724 267 724 c 0,43,44
 292 724 292 724 301 695 c 1,45,-1
 301 667 l 1,46,47
 365 662 365 662 413 630 c 128,-1,48
 461 598 461 598 476 548 c 1,49,50
 474 525 474 525 457 515 c 0,51,52
 450 511 450 511 440 511 c 0,0,1
239 468 m 1,53,-1
 242 558 l 2,54,55
 242 585 242 585 241 593 c 1,56,57
 198 582 198 582 169 541.5 c 128,-1,58
 140 501 140 501 140 460 c 1,59,60
 143 416 143 416 239 385 c 1,61,-1
 239 468 l 1,53,-1
379.5 227 m 128,-1,63
 355 261 355 261 296 288 c 1,64,65
 293 258 293 258 291.5 198 c 128,-1,66
 290 138 290 138 287 61 c 1,67,68
 404 70 404 70 404 131.5 c 128,-1,62
 404 193 404 193 379.5 227 c 128,-1,63
EndSplineSet
Substitution2: "'smcp' Lowercase to Small Capitals lookup 15 subtable" dollar.smcp
Substitution2: "'aalt' Access All Alternates lookup 0 subtable" dollar.smcp
EndChar

StartChar: percent
Encoding: 37 37 9
Width: 643
GlyphClass: 2
Flags: W
LayerCount: 2
Fore
SplineSet
539 599 m 2,0,1
 539 582 539 582 484 503 c 1,2,3
 451 462 451 462 320 254 c 1,4,5
 236 123 236 123 191 48 c 1,6,7
 165 7 165 7 139.5 7 c 128,-1,8
 114 7 114 7 102 25 c 0,9,10
 97 33 97 33 97 43 c 128,-1,11
 97 53 97 53 105.5 70 c 128,-1,12
 114 87 114 87 166 149.5 c 128,-1,13
 218 212 218 212 285.5 324.5 c 128,-1,14
 353 437 353 437 386 489 c 128,-1,15
 419 541 419 541 431 566 c 1,16,17
 450 610 450 610 480 636 c 1,18,19
 499 649 499 649 514 649 c 128,-1,20
 529 649 529 649 534 642 c 128,-1,21
 539 635 539 635 539 618 c 2,22,-1
 539 599 l 2,0,1
67 572 m 0,23,24
 114 647 114 647 210 647 c 0,25,26
 262 647 262 647 297 617 c 128,-1,27
 332 587 332 587 332 526.5 c 128,-1,28
 332 466 332 466 279.5 407 c 128,-1,29
 227 348 227 348 163 348 c 0,30,31
 116 348 116 348 79.5 385 c 128,-1,32
 43 422 43 422 43 478 c 128,-1,33
 43 534 43 534 67 572 c 0,23,24
257 515 m 0,34,35
 257 588 257 588 212 588 c 128,-1,36
 167 588 167 588 141.5 558.5 c 128,-1,37
 116 529 116 529 116 489 c 128,-1,38
 116 449 116 449 126.5 437 c 128,-1,39
 137 425 137 425 168.5 425 c 128,-1,40
 200 425 200 425 228.5 451 c 128,-1,41
 257 477 257 477 257 515 c 0,34,35
374 241 m 128,-1,43
 424 289 424 289 481 289 c 128,-1,44
 538 289 538 289 572.5 248.5 c 128,-1,45
 607 208 607 208 607 147.5 c 128,-1,46
 607 87 607 87 562 47 c 128,-1,47
 517 7 517 7 455.5 7 c 128,-1,48
 394 7 394 7 359 38.5 c 128,-1,49
 324 70 324 70 324 131.5 c 128,-1,42
 324 193 324 193 374 241 c 128,-1,43
398 141 m 0,50,51
 398 76 398 76 460 76 c 0,52,53
 487 76 487 76 514 101 c 128,-1,54
 541 126 541 126 541 151 c 0,55,56
 541 195 541 195 518 213 c 0,57,58
 507 221 507 221 492 221 c 0,59,60
 456 221 456 221 427 198.5 c 128,-1,61
 398 176 398 176 398 141 c 0,50,51
EndSplineSet
Substitution2: "'smcp' Lowercase to Small Capitals lookup 15 subtable" percent.smcp
Substitution2: "'aalt' Access All Alternates lookup 0 subtable" percent.smcp
EndChar

StartChar: ampersand
Encoding: 38 38 10
Width: 530
GlyphClass: 2
Flags: W
LayerCount: 2
Fore
SplineSet
360.5 434.5 m 128,-1,1
 333 400 333 400 270 361 c 1,2,3
 282 343 282 343 309 306 c 128,-1,4
 336 269 336 269 342 260 c 2,5,-1
 373 209 l 1,6,7
 403 258 403 258 408 283 c 1,8,9
 416 313 416 313 449 313 c 0,10,11
 466 313 466 313 477 303.5 c 128,-1,12
 488 294 488 294 488 278 c 0,13,14
 488 239 488 239 410 145 c 1,15,16
 441 85 441 85 456 41 c 1,17,18
 454 26 454 26 442 15 c 128,-1,19
 430 4 430 4 415 4 c 128,-1,20
 400 4 400 4 388 16 c 1,21,22
 380 28 380 28 375 43 c 128,-1,23
 370 58 370 58 358 86 c 1,24,25
 312 37 312 37 281 19.5 c 128,-1,26
 250 2 250 2 209.5 2 c 128,-1,27
 169 2 169 2 128 34 c 128,-1,28
 87 66 87 66 66 113 c 1,29,30
 45 155 45 155 45 197 c 0,31,32
 45 263 45 263 79 303.5 c 128,-1,33
 113 344 113 344 179 382 c 1,34,35
 132 467 132 467 132 528 c 128,-1,36
 132 589 132 589 169.5 625 c 128,-1,37
 207 661 207 661 260 661 c 128,-1,38
 313 661 313 661 350.5 617 c 128,-1,39
 388 573 388 573 388 521 c 128,-1,0
 388 469 388 469 360.5 434.5 c 128,-1,1
262 585 m 0,40,41
 210 585 210 585 208 501 c 1,42,43
 213 458 213 458 237 415 c 1,44,45
 307 457 307 457 307 498.5 c 128,-1,46
 307 540 307 540 292 563 c 1,47,48
 279 585 279 585 262 585 c 0,40,41
208 87 m 0,49,50
 260 87 260 87 323 151 c 1,51,52
 319 157 319 157 313 166.5 c 128,-1,53
 307 176 307 176 295.5 193.5 c 128,-1,54
 284 211 284 211 261.5 242.5 c 128,-1,55
 239 274 239 274 221 309 c 1,56,-1
 213 323 l 1,57,58
 181 300 181 300 168 288 c 0,59,60
 123 249 123 249 123 197.5 c 128,-1,61
 123 146 123 146 158 109 c 0,62,63
 178 87 178 87 208 87 c 0,49,50
EndSplineSet
Substitution2: "'smcp' Lowercase to Small Capitals lookup 15 subtable" ampersand.smcp
Substitution2: "'aalt' Access All Alternates lookup 0 subtable" ampersand.smcp
EndChar

StartChar: quotesingle
Encoding: 39 39 11
Width: 164
GlyphClass: 2
Flags: W
LayerCount: 2
Fore
SplineSet
80 655 m 128,-1,1
 67 655 67 655 57 664.5 c 128,-1,2
 47 674 47 674 44 691 c 1,3,-1
 52 840 l 1,4,5
 57 871 57 871 86 871 c 0,6,7
 121 871 121 871 121 803 c 0,8,9
 121 786 121 786 117.5 759 c 128,-1,10
 114 732 114 732 113 692 c 0,11,12
 112 675 112 675 102.5 665 c 128,-1,0
 93 655 93 655 80 655 c 128,-1,1
EndSplineSet
EndChar

StartChar: parenleft
Encoding: 40 40 12
Width: 334
GlyphClass: 2
Flags: W
LayerCount: 2
Fore
SplineSet
72.5 498.5 m 128,-1,1
 85 560 85 560 110 607.5 c 128,-1,2
 135 655 135 655 170.5 709 c 128,-1,3
 206 763 206 763 233 780 c 0,4,5
 244 786 244 786 256 786 c 128,-1,6
 268 786 268 786 281 776 c 128,-1,7
 294 766 294 766 294 757.5 c 128,-1,8
 294 749 294 749 248.5 684.5 c 128,-1,9
 203 620 203 620 188 597 c 128,-1,10
 173 574 173 574 160.5 540.5 c 128,-1,11
 148 507 148 507 142.5 456.5 c 128,-1,12
 137 406 137 406 137 336 c 128,-1,13
 137 266 137 266 159 180 c 128,-1,14
 181 94 181 94 208 65 c 0,15,16
 293 -27 293 -27 293 -49 c 0,17,18
 293 -60 293 -60 279 -66.5 c 128,-1,19
 265 -73 265 -73 247.5 -73 c 128,-1,20
 230 -73 230 -73 217 -61 c 0,21,22
 128 28 128 28 94 116.5 c 128,-1,23
 60 205 60 205 60 321 c 128,-1,0
 60 437 60 437 72.5 498.5 c 128,-1,1
EndSplineSet
EndChar

StartChar: parenright
Encoding: 41 41 13
Width: 364
GlyphClass: 2
Flags: W
LayerCount: 2
Fore
SplineSet
270.5 168 m 128,-1,1
 246 92 246 92 174 -7 c 0,2,3
 138 -56 138 -56 125 -65 c 128,-1,4
 112 -74 112 -74 97.5 -74 c 128,-1,5
 83 -74 83 -74 71 -63.5 c 128,-1,6
 59 -53 59 -53 59 -42 c 0,7,8
 59 -39 59 -39 113.5 39 c 128,-1,9
 168 117 168 117 187 155 c 128,-1,10
 206 193 206 193 213 251.5 c 128,-1,11
 220 310 220 310 220 381.5 c 128,-1,12
 220 453 220 453 197.5 539.5 c 128,-1,13
 175 626 175 626 148 655 c 0,14,15
 60 746 60 746 60 772 c 0,16,17
 60 781 60 781 74.5 787 c 128,-1,18
 89 793 89 793 107.5 793 c 128,-1,19
 126 793 126 793 133 784 c 1,20,21
 228 689 228 689 261.5 598.5 c 128,-1,22
 295 508 295 508 295 376 c 128,-1,0
 295 244 295 244 270.5 168 c 128,-1,1
EndSplineSet
EndChar

StartChar: asterisk
Encoding: 42 42 14
Width: 404
GlyphClass: 2
Flags: W
LayerCount: 2
Fore
SplineSet
191 379 m 128,-1,1
 162 379 162 379 156 415 c 1,2,3
 156 455 156 455 160 487 c 1,4,5
 105 449 105 449 85 449 c 128,-1,6
 65 449 65 449 55 465 c 0,7,8
 50 473 50 473 50 485 c 128,-1,9
 50 497 50 497 76 517 c 1,10,11
 91 527 91 527 127 547 c 1,12,13
 70 600 70 600 56 611 c 1,14,15
 43 624 43 624 43 638.5 c 128,-1,16
 43 653 43 653 52.5 663 c 128,-1,17
 62 673 62 673 76 673 c 128,-1,18
 90 673 90 673 104.5 661 c 128,-1,19
 119 649 119 649 125.5 643 c 128,-1,20
 132 637 132 637 135 634 c 2,21,-1
 172 595 l 1,22,23
 173 602 173 602 174 630 c 128,-1,24
 175 658 175 658 177 674 c 128,-1,25
 179 690 179 690 188 704.5 c 128,-1,26
 197 719 197 719 213 719 c 0,27,28
 238 719 238 719 247 689 c 1,29,-1
 242 624 l 1,30,31
 275 643 275 643 317 661 c 1,32,-1
 322 661 l 2,33,34
 337 661 337 661 347.5 651.5 c 128,-1,35
 358 642 358 642 358 630 c 0,36,37
 358 606 358 606 312 582 c 0,38,39
 307 579 307 579 300.5 575.5 c 128,-1,40
 294 572 294 572 271.5 558.5 c 128,-1,41
 249 545 249 545 236 539 c 1,42,43
 251 527 251 527 283 513 c 0,44,45
 350 484 350 484 350 461 c 0,46,47
 350 446 350 446 340.5 436.5 c 128,-1,48
 331 427 331 427 314 427 c 0,49,50
 279 427 279 427 227 464 c 1,51,52
 226 461 226 461 225.5 452 c 128,-1,53
 225 443 225 443 224.5 437.5 c 128,-1,54
 224 432 224 432 224 422 c 0,55,0
 220 379 220 379 191 379 c 128,-1,1
EndSplineSet
EndChar

StartChar: plus
Encoding: 43 43 15
Width: 480
GlyphClass: 2
Flags: W
LayerCount: 2
Fore
SplineSet
204 277 m 1,0,-1
 204 285 l 1,1,-1
 202 355 l 1,2,3
 202 456 202 456 252 456 c 0,4,5
 275 456 275 456 283 427 c 1,6,-1
 281 277 l 1,7,-1
 407 277 l 1,8,9
 436 272 436 272 436 250 c 0,10,11
 436 234 436 234 424 219.5 c 128,-1,12
 412 205 412 205 395 200 c 1,13,-1
 280 200 l 1,14,15
 279 193 279 193 279 177 c 2,16,17
 279 177 279 177 279 129 c 0,18,19
 279 126 279 126 279 122 c 0,20,21
 279 12 279 12 231 12 c 0,22,23
 200 12 200 12 200 47 c 0,24,25
 200 149 200 149 203 200 c 1,26,-1
 68 200 l 2,27,28
 35 200 35 200 35 227 c 0,29,30
 35 243 35 243 48.5 259 c 128,-1,31
 62 275 62 275 80 277 c 1,32,-1
 204 277 l 1,0,-1
EndSplineSet
EndChar

StartChar: comma
Encoding: 44 44 16
Width: 202
GlyphClass: 2
Flags: W
LayerCount: 2
Fore
SplineSet
113 104 m 128,-1,1
 140 104 140 104 149 76 c 1,2,3
 149 10 149 10 128 -43 c 0,4,5
 121 -62 121 -62 107.5 -75 c 128,-1,6
 94 -88 94 -88 79 -88 c 0,7,8
 46 -88 46 -88 46 -53 c 0,9,10
 46 -42 46 -42 49 -32 c 1,11,12
 80 3 80 3 80 73 c 1,13,0
 86 104 86 104 113 104 c 128,-1,1
EndSplineSet
EndChar

StartChar: hyphen
Encoding: 45 45 17
Width: 404
GlyphClass: 2
Flags: W
LayerCount: 2
Fore
SplineSet
152 197 m 1,0,-1
 69 195 l 2,1,2
 55 195 55 195 45.5 205 c 128,-1,3
 36 215 36 215 36 233.5 c 128,-1,4
 36 252 36 252 48 264 c 128,-1,5
 60 276 60 276 82 276 c 2,6,-1
 136 276 l 1,7,-1
 281 276 l 2,8,9
 312 276 312 276 331 276 c 1,10,11
 368 274 368 274 368 238 c 0,12,13
 368 221 368 221 356.5 208.5 c 128,-1,14
 345 196 345 196 323 196 c 2,15,-1
 152 197 l 1,0,-1
EndSplineSet
EndChar

StartChar: period
Encoding: 46 46 18
Width: 214
GlyphClass: 2
Flags: W
LayerCount: 2
Fore
SplineSet
145 104 m 128,-1,1
 161 88 161 88 164 60 c 1,2,3
 164 38 164 38 148 19.5 c 128,-1,4
 132 1 132 1 110.5 1 c 128,-1,5
 89 1 89 1 72 12.5 c 128,-1,6
 55 24 55 24 55 48 c 128,-1,7
 55 72 55 72 70.5 96 c 128,-1,8
 86 120 86 120 107.5 120 c 128,-1,0
 129 120 129 120 145 104 c 128,-1,1
EndSplineSet
EndChar

StartChar: slash
Encoding: 47 47 19
Width: 423
GlyphClass: 2
Flags: W
LayerCount: 2
Fore
SplineSet
44 -14 m 0,0,1
 44 -10 44 -10 47 0 c 1,2,3
 112 153 112 153 189 355 c 128,-1,4
 266 557 266 557 331 713 c 1,5,6
 345 739 345 739 372 739 c 0,7,8
 384 739 384 739 392 732 c 128,-1,9
 400 725 400 725 400 713.5 c 128,-1,10
 400 702 400 702 375 644 c 128,-1,11
 350 586 350 586 254.5 341.5 c 128,-1,12
 159 97 159 97 108 -20 c 1,13,14
 91 -43 91 -43 71 -43 c 0,15,16
 44 -43 44 -43 44 -14 c 0,0,1
EndSplineSet
EndChar

StartChar: zero
Encoding: 48 48 20
Width: 448
GlyphClass: 2
Flags: W
LayerCount: 2
Fore
SplineSet
31 316 m 0,0,1
 31 450 31 450 79 552 c 0,2,3
 103 604 103 604 144 634 c 128,-1,4
 185 664 185 664 238 664 c 0,5,6
 316 664 316 664 365.5 562.5 c 128,-1,7
 415 461 415 461 415 321.5 c 128,-1,8
 415 182 415 182 369 90.5 c 128,-1,9
 323 -1 323 -1 239 -1 c 0,10,11
 31 -1 31 -1 31 316 c 0,0,1
229 91 m 0,12,13
 265 91 265 91 289.5 128.5 c 128,-1,14
 314 166 314 166 323 212.5 c 128,-1,15
 332 259 332 259 332 333.5 c 128,-1,16
 332 408 332 408 312 492 c 0,17,18
 302 538 302 538 281.5 565.5 c 128,-1,19
 261 593 261 593 232 593 c 0,20,21
 193 593 193 593 165 546 c 0,22,23
 115 461 115 461 115 320 c 0,24,25
 115 228 115 228 149.5 159.5 c 128,-1,26
 184 91 184 91 229 91 c 0,12,13
EndSplineSet
Substitution2: "'smcp' Lowercase to Small Capitals lookup 15 subtable" zero.smcp
Substitution2: "'onum' Oldstyle Figures lookup 14 subtable" zero.osf
Substitution2: "'sups' Superscript lookup 10 subtable" zerosuperior
AlternateSubs2: "'aalt' Access All Alternates lookup 1 subtable" zero.smcp zerosuperior zero.osf
EndChar

StartChar: one
Encoding: 49 49 21
Width: 363
GlyphClass: 2
Flags: W
LayerCount: 2
Fore
SplineSet
316 47 m 2,0,1
 316 -2 316 -2 263 -2 c 0,2,3
 252 -2 252 -2 243.5 7.5 c 128,-1,4
 235 17 235 17 235 37 c 2,5,-1
 232 291 l 1,6,7
 232 417 232 417 235 528 c 1,8,9
 201 498 201 498 169 459 c 128,-1,10
 137 420 137 420 125.5 407 c 128,-1,11
 114 394 114 394 95.5 381.5 c 128,-1,12
 77 369 77 369 61 369 c 128,-1,13
 45 369 45 369 35.5 380 c 128,-1,14
 26 391 26 391 26 407 c 128,-1,15
 26 423 26 423 49.5 450.5 c 128,-1,16
 73 478 73 478 223 637 c 1,17,18
 246 658 246 658 281 658 c 0,19,20
 298 658 298 658 309 648 c 128,-1,21
 320 638 320 638 320 625 c 2,22,-1
 313 356 l 1,23,-1
 316 47 l 2,0,1
EndSplineSet
Substitution2: "'smcp' Lowercase to Small Capitals lookup 15 subtable" one.smcp
Substitution2: "'onum' Oldstyle Figures lookup 14 subtable" one.osf
Substitution2: "'sups' Superscript lookup 10 subtable" onesuperior
AlternateSubs2: "'aalt' Access All Alternates lookup 1 subtable" one.smcp onesuperior one.osf
EndChar

StartChar: two
Encoding: 50 50 22
Width: 468
GlyphClass: 2
Flags: W
LayerCount: 2
Fore
SplineSet
293 -2 m 1,0,-1
 146 0 l 2,1,2
 136 0 136 0 126 0 c 0,3,4
 27 0 27 0 27 38 c 0,5,6
 27 65 27 65 37 89 c 128,-1,7
 47 113 47 113 56 125 c 128,-1,8
 65 137 65 137 92 165 c 128,-1,9
 119 193 119 193 131 207 c 128,-1,10
 143 221 143 221 203.5 278 c 128,-1,11
 264 335 264 335 294.5 381 c 128,-1,12
 325 427 325 427 325 478 c 0,13,14
 325 557 325 557 262 580 c 0,15,16
 244 586 244 586 225 586 c 0,17,18
 182 586 182 586 139 549 c 1,19,20
 122 533 122 533 103 533 c 0,21,22
 97 533 97 533 92 534 c 0,23,24
 67 540 67 540 67 569 c 0,25,26
 67 608 67 608 122 634 c 0,27,28
 181 662 181 662 250.5 662 c 128,-1,29
 320 662 320 662 364.5 611.5 c 128,-1,30
 409 561 409 561 409 486 c 0,31,32
 409 379 409 379 343 302 c 0,33,34
 312 266 312 266 280 235 c 0,35,36
 179 139 179 139 145 89 c 1,37,38
 190 86 190 86 256.5 86 c 128,-1,39
 323 86 323 86 421 94 c 1,40,41
 436 91 436 91 445.5 80.5 c 128,-1,42
 455 70 455 70 455 57 c 0,43,44
 455 23 455 23 419 10 c 0,45,46
 383 -2 383 -2 293 -2 c 1,0,-1
EndSplineSet
Substitution2: "'smcp' Lowercase to Small Capitals lookup 15 subtable" two.smcp
Substitution2: "'onum' Oldstyle Figures lookup 14 subtable" two.osf
Substitution2: "'sups' Superscript lookup 10 subtable" twosuperior
AlternateSubs2: "'aalt' Access All Alternates lookup 1 subtable" two.smcp twosuperior two.osf
EndChar

StartChar: three
Encoding: 51 51 23
Width: 448
GlyphClass: 2
Flags: W
LayerCount: 2
Fore
SplineSet
218 584 m 0,0,1
 159 584 159 584 108 533 c 1,2,3
 94 523 94 523 83 523 c 128,-1,4
 72 523 72 523 64 525 c 0,5,6
 41 532 41 532 41 557 c 0,7,8
 41 598 41 598 93 629 c 128,-1,9
 145 660 145 660 216 660 c 128,-1,10
 287 660 287 660 334.5 622.5 c 128,-1,11
 382 585 382 585 382 525 c 128,-1,12
 382 465 382 465 368.5 425 c 128,-1,13
 355 385 355 385 310 359 c 1,14,15
 416 319 416 319 416 215 c 0,16,17
 416 127 416 127 363 63.5 c 128,-1,18
 310 0 310 0 233.5 0 c 128,-1,19
 157 0 157 0 99 36.5 c 128,-1,20
 41 73 41 73 41 119 c 0,21,22
 41 128 41 128 51 140 c 128,-1,23
 61 152 61 152 80 152 c 128,-1,24
 99 152 99 152 121 134.5 c 128,-1,25
 143 117 143 117 171 99.5 c 128,-1,26
 199 82 199 82 234 82 c 0,27,28
 334 82 334 82 334 207 c 0,29,30
 334 255 334 255 299.5 284.5 c 128,-1,31
 265 314 265 314 202 315 c 0,32,33
 189 316 189 316 182.5 317 c 128,-1,34
 176 318 176 318 165.5 326 c 128,-1,35
 155 334 155 334 155 351 c 0,36,37
 155 387 155 387 195 390 c 128,-1,38
 235 393 235 393 266.5 426 c 128,-1,39
 298 459 298 459 298 509 c 0,40,41
 298 537 298 537 274 560.5 c 128,-1,42
 250 584 250 584 218 584 c 0,0,1
EndSplineSet
Substitution2: "'smcp' Lowercase to Small Capitals lookup 15 subtable" three.smcp
Substitution2: "'onum' Oldstyle Figures lookup 14 subtable" three.osf
Substitution2: "'sups' Superscript lookup 10 subtable" threesuperior
AlternateSubs2: "'aalt' Access All Alternates lookup 1 subtable" three.smcp threesuperior three.osf
EndChar

StartChar: four
Encoding: 52 52 24
Width: 375
GlyphClass: 2
Flags: W
LayerCount: 2
Fore
SplineSet
252 221 m 1,0,1
 216 215 216 215 150 215 c 128,-1,2
 84 215 84 215 60 237 c 128,-1,3
 36 259 36 259 36 332.5 c 128,-1,4
 36 406 36 406 47 494 c 128,-1,5
 58 582 58 582 71.5 623.5 c 128,-1,6
 85 665 85 665 125 665 c 0,7,8
 152 665 152 665 156 642 c 1,9,10
 156 636 156 636 156 623 c 128,-1,11
 156 610 156 610 150 586 c 1,12,13
 126 410 126 410 126 335 c 0,14,15
 126 317 126 317 127 305 c 1,16,17
 145 301 145 301 175.5 301 c 128,-1,18
 206 301 206 301 253 307 c 1,19,20
 255 328 255 328 255 363.5 c 128,-1,21
 255 399 255 399 256 423 c 128,-1,22
 257 447 257 447 263 457 c 128,-1,23
 269 467 269 467 297.5 467 c 128,-1,24
 326 467 326 467 333.5 457 c 128,-1,25
 341 447 341 447 341 429.5 c 128,-1,26
 341 412 341 412 338 356.5 c 128,-1,27
 335 301 335 301 335 44 c 0,28,29
 335 -1 335 -1 291 -1 c 0,30,31
 289 -1 289 -1 287 -1 c 0,32,33
 250 -1 250 -1 250 60 c 2,34,-1
 250 115 l 1,35,-1
 252 221 l 1,0,1
EndSplineSet
Substitution2: "'smcp' Lowercase to Small Capitals lookup 15 subtable" four.smcp
Substitution2: "'onum' Oldstyle Figures lookup 14 subtable" four.osf
Substitution2: "'sups' Superscript lookup 10 subtable" foursuperior
AlternateSubs2: "'aalt' Access All Alternates lookup 1 subtable" four.smcp foursuperior four.osf
EndChar

StartChar: five
Encoding: 53 53 25
Width: 423
GlyphClass: 2
Flags: W
LayerCount: 2
Fore
SplineSet
121 431 m 1,0,1
 162 446 162 446 200 446 c 128,-1,2
 238 446 238 446 273.5 434 c 128,-1,3
 309 422 309 422 338.5 397 c 128,-1,4
 368 372 368 372 386 328.5 c 128,-1,5
 404 285 404 285 404 228 c 0,6,7
 404 132 404 132 348 66 c 128,-1,8
 292 0 292 0 218.5 0 c 128,-1,9
 145 0 145 0 89.5 33.5 c 128,-1,10
 34 67 34 67 34 107 c 0,11,12
 34 126 34 126 38.5 135.5 c 128,-1,13
 43 145 43 145 55 151 c 128,-1,14
 67 157 67 157 76.5 157 c 128,-1,15
 86 157 86 157 102.5 145.5 c 128,-1,16
 119 134 119 134 149 113 c 128,-1,17
 179 92 179 92 218 92 c 128,-1,18
 257 92 257 92 287 131.5 c 128,-1,19
 317 171 317 171 317 218 c 0,20,21
 317 353 317 353 196 353 c 0,22,23
 170 353 170 353 135.5 348 c 128,-1,24
 101 343 101 343 90.5 342 c 128,-1,25
 80 341 80 341 62 349 c 1,26,27
 41 369 41 369 41 476.5 c 128,-1,28
 41 584 41 584 46 615.5 c 128,-1,29
 51 647 51 647 63 652 c 0,30,31
 84 661 84 661 188.5 661 c 128,-1,32
 293 661 293 661 356 641 c 1,33,34
 376 629 376 629 376 606.5 c 128,-1,35
 376 584 376 584 363.5 570 c 128,-1,36
 351 556 351 556 337 559 c 0,37,38
 254 577 254 577 170 577 c 0,39,40
 144 577 144 577 118 575 c 1,41,42
 118 536 118 536 121 431 c 1,0,1
EndSplineSet
Substitution2: "'smcp' Lowercase to Small Capitals lookup 15 subtable" five.smcp
Substitution2: "'onum' Oldstyle Figures lookup 14 subtable" five.osf
Substitution2: "'sups' Superscript lookup 10 subtable" fivesuperior
AlternateSubs2: "'aalt' Access All Alternates lookup 1 subtable" five.smcp fivesuperior five.osf
EndChar

StartChar: six
Encoding: 54 54 26
Width: 399
GlyphClass: 2
Flags: W
LayerCount: 2
Fore
SplineSet
197.5 469 m 128,-1,1
 144 362 144 362 139 341 c 1,2,3
 181 352 181 352 224.5 352 c 128,-1,4
 268 352 268 352 306 328 c 0,5,6
 368 287 368 287 368 196 c 0,7,8
 368 -3 368 -3 174 -4 c 0,9,10
 173 -4 173 -4 171 -4 c 0,11,12
 100 -4 100 -4 69 45.5 c 128,-1,13
 38 95 38 95 35 177 c 1,14,15
 35 367 35 367 178 596 c 0,16,17
 202 636 202 636 220 648 c 128,-1,18
 238 660 238 660 248.5 660 c 128,-1,19
 259 660 259 660 270 652 c 128,-1,20
 281 644 281 644 281 630 c 128,-1,21
 281 616 281 616 266 596 c 128,-1,0
 251 576 251 576 197.5 469 c 128,-1,1
270.5 252 m 128,-1,23
 248 274 248 274 210 274 c 128,-1,24
 172 274 172 274 154 268 c 1,25,26
 140 262 140 262 132 252.5 c 128,-1,27
 124 243 124 243 117.5 223 c 128,-1,28
 111 203 111 203 111 168.5 c 128,-1,29
 111 134 111 134 130.5 108.5 c 128,-1,30
 150 83 150 83 178 83 c 0,31,32
 234 83 234 83 263.5 116 c 128,-1,33
 293 149 293 149 293 189.5 c 128,-1,22
 293 230 293 230 270.5 252 c 128,-1,23
EndSplineSet
Substitution2: "'smcp' Lowercase to Small Capitals lookup 15 subtable" six.smcp
Substitution2: "'onum' Oldstyle Figures lookup 14 subtable" six.osf
Substitution2: "'sups' Superscript lookup 10 subtable" sixsuperior
AlternateSubs2: "'aalt' Access All Alternates lookup 1 subtable" six.smcp sixsuperior six.osf
EndChar

StartChar: seven
Encoding: 55 55 27
Width: 495
GlyphClass: 2
Flags: W
LayerCount: 2
Fore
SplineSet
339 358 m 1,0,-1
 331 43 l 2,1,2
 331 21 331 21 316.5 10 c 128,-1,3
 302 -1 302 -1 284 -1 c 0,4,5
 256 -1 256 -1 256 74 c 0,6,7
 256 229 256 229 265 360 c 1,8,-1
 163 354 l 2,9,10
 151 353 151 353 141 365.5 c 128,-1,11
 131 378 131 378 131 391 c 0,12,13
 131 426 131 426 173 426 c 2,14,-1
 271 427 l 1,15,-1
 281 548 l 1,16,17
 247 560 247 560 107 582 c 0,18,19
 53 591 53 591 43 593 c 0,20,21
 17 598 17 598 17 632 c 0,22,23
 17 644 17 644 27 655 c 128,-1,24
 37 666 37 666 55.5 666 c 128,-1,25
 74 666 74 666 205.5 644.5 c 128,-1,26
 337 623 337 623 351 610 c 0,27,28
 357 605 357 605 357 573 c 0,29,30
 357 558 357 558 350 492 c 1,31,32
 344 446 344 446 343 429 c 1,33,-1
 393 432 l 2,34,35
 400 432 400 432 415.5 432 c 128,-1,36
 431 432 431 432 442 425 c 128,-1,37
 453 418 453 418 453 398.5 c 128,-1,38
 453 379 453 379 439 369.5 c 128,-1,39
 425 360 425 360 385 359 c 2,40,-1
 339 358 l 1,0,-1
EndSplineSet
Substitution2: "'smcp' Lowercase to Small Capitals lookup 15 subtable" seven.smcp
Substitution2: "'onum' Oldstyle Figures lookup 14 subtable" seven.osf
Substitution2: "'sups' Superscript lookup 10 subtable" sevensuperior
AlternateSubs2: "'aalt' Access All Alternates lookup 1 subtable" seven.smcp sevensuperior seven.osf
EndChar

StartChar: eight
Encoding: 56 56 28
Width: 433
GlyphClass: 2
Flags: W
LayerCount: 2
Fore
SplineSet
341 630 m 128,-1,1
 390 595 390 595 390 531 c 0,2,3
 390 440 390 440 292 374 c 1,4,5
 349 313 349 313 373 269 c 0,6,7
 399 221 399 221 399 155 c 128,-1,8
 399 89 399 89 350 46 c 0,9,10
 297 0 297 0 217 0 c 128,-1,11
 137 0 137 0 92 40 c 0,12,13
 45 82 45 82 45 155 c 0,14,15
 45 274 45 274 160 365 c 1,16,17
 117 388 117 388 86 436 c 0,18,19
 54 485 54 485 54 539.5 c 128,-1,20
 54 594 54 594 98 628 c 0,21,22
 146 665 146 665 219 665 c 128,-1,0
 292 665 292 665 341 630 c 128,-1,1
125 526 m 0,23,24
 125 506 125 506 137 488 c 128,-1,25
 149 470 149 470 161 461 c 128,-1,26
 173 452 173 452 194 438 c 128,-1,27
 215 424 215 424 222 419 c 1,28,29
 254 443 254 443 265 451.5 c 128,-1,30
 276 460 276 460 290.5 475.5 c 128,-1,31
 305 491 305 491 308.5 502.5 c 128,-1,32
 312 514 312 514 311.5 537 c 128,-1,33
 311 560 311 560 283.5 577.5 c 128,-1,34
 256 595 256 595 226 595 c 0,35,36
 223 595 223 595 220 595 c 0,37,38
 125 587 125 587 125 526 c 0,23,24
119 167 m 0,39,40
 119 162 119 162 119 158 c 0,41,42
 120 119 120 119 152.5 98 c 128,-1,43
 185 77 185 77 233 77 c 0,44,45
 278 77 278 77 298 102 c 128,-1,46
 318 127 318 127 317.5 163 c 128,-1,47
 317 199 317 199 293.5 235 c 128,-1,48
 270 271 270 271 219 323 c 1,49,50
 168 288 168 288 143.5 247 c 128,-1,51
 119 206 119 206 119 167 c 0,39,40
EndSplineSet
Substitution2: "'smcp' Lowercase to Small Capitals lookup 15 subtable" eight.smcp
Substitution2: "'onum' Oldstyle Figures lookup 14 subtable" eight.osf
Substitution2: "'sups' Superscript lookup 10 subtable" eightsuperior
AlternateSubs2: "'aalt' Access All Alternates lookup 1 subtable" eight.smcp eightsuperior eight.osf
EndChar

StartChar: nine
Encoding: 57 57 29
Width: 367
GlyphClass: 2
Flags: W
LayerCount: 2
Fore
SplineSet
339 521 m 2,0,-1
 338 421 l 2,1,2
 338 387 338 387 338 232 c 1,3,-1
 340 42 l 2,4,5
 340 24 340 24 324.5 12.5 c 128,-1,6
 309 1 309 1 295.5 1 c 128,-1,7
 282 1 282 1 274 13.5 c 128,-1,8
 266 26 266 26 265 42 c 0,9,10
 258 189 258 189 258 346 c 1,11,12
 232 312 232 312 153 312 c 0,13,14
 99 312 99 312 64 368 c 128,-1,15
 29 424 29 424 29 489 c 0,16,17
 29 575 29 575 82.5 620.5 c 128,-1,18
 136 666 136 666 218 666 c 128,-1,19
 300 666 300 666 331 603 c 0,20,21
 339 586 339 586 339 521 c 2,0,-1
260 497 m 1,22,-1
 261 546 l 2,23,24
 261 570 261 570 257 577.5 c 128,-1,25
 253 585 253 585 247 589 c 1,26,27
 240 596 240 596 230.5 596 c 128,-1,28
 221 596 221 596 205.5 592.5 c 128,-1,29
 190 589 190 589 165.5 578.5 c 128,-1,30
 141 568 141 568 122.5 543.5 c 128,-1,31
 104 519 104 519 104 480 c 128,-1,32
 104 441 104 441 124 416 c 128,-1,33
 144 391 144 391 166 391 c 0,34,35
 172 391 172 391 179 393 c 0,36,37
 239 409 239 409 260 425 c 1,38,-1
 260 497 l 1,22,-1
EndSplineSet
Substitution2: "'smcp' Lowercase to Small Capitals lookup 15 subtable" nine.smcp
Substitution2: "'onum' Oldstyle Figures lookup 14 subtable" nine.osf
Substitution2: "'sups' Superscript lookup 10 subtable" ninesuperior
AlternateSubs2: "'aalt' Access All Alternates lookup 1 subtable" nine.smcp ninesuperior nine.osf
EndChar

StartChar: colon
Encoding: 58 58 30
Width: 232
GlyphClass: 2
Flags: W
LayerCount: 2
Fore
SplineSet
148.5 403 m 128,-1,1
 165 387 165 387 168 359 c 1,2,3
 168 337 168 337 151.5 318.5 c 128,-1,4
 135 300 135 300 114 300 c 128,-1,5
 93 300 93 300 76 312 c 128,-1,6
 59 324 59 324 59 347.5 c 128,-1,7
 59 371 59 371 74 395 c 128,-1,8
 89 419 89 419 110.5 419 c 128,-1,0
 132 419 132 419 148.5 403 c 128,-1,1
124 113 m 0,9,10
 132 113 132 113 144 108 c 1,11,12
 151 104 151 104 159.5 86 c 128,-1,13
 168 68 168 68 168 50 c 128,-1,14
 168 32 168 32 151 16.5 c 128,-1,15
 134 1 134 1 113 1 c 128,-1,16
 92 1 92 1 78.5 16.5 c 128,-1,17
 65 32 65 32 65 56 c 0,18,19
 65 113 65 113 124 113 c 0,9,10
EndSplineSet
EndChar

StartChar: semicolon
Encoding: 59 59 31
Width: 232
GlyphClass: 2
Flags: W
LayerCount: 2
Fore
SplineSet
148.5 400.5 m 128,-1,1
 165 385 165 385 168 356 c 1,2,3
 168 335 168 335 152 317 c 128,-1,4
 136 299 136 299 119 299 c 0,5,6
 86 299 86 299 69 316 c 0,7,8
 59 325 59 325 59 340 c 0,9,10
 59 377 59 377 78 396.5 c 128,-1,11
 97 416 97 416 114.5 416 c 128,-1,0
 132 416 132 416 148.5 400.5 c 128,-1,1
140.5 -49 m 128,-1,13
 113 -86 113 -86 89.5 -86 c 128,-1,14
 66 -86 66 -86 66 -71 c 0,15,16
 66 -64 66 -64 86.5 -38.5 c 128,-1,17
 107 -13 107 -13 112 5 c 1,18,19
 90 5 90 5 73 22 c 128,-1,20
 56 39 56 39 56 62 c 128,-1,21
 56 85 56 85 70 102 c 128,-1,22
 84 119 84 119 107 119 c 128,-1,23
 130 119 130 119 143 110 c 0,24,25
 168 94 168 94 168 41 c 128,-1,12
 168 -12 168 -12 140.5 -49 c 128,-1,13
EndSplineSet
EndChar

StartChar: less
Encoding: 60 60 32
Width: 396
GlyphClass: 2
Flags: W
LayerCount: 2
Fore
SplineSet
26 236 m 128,-1,1
 26 254 26 254 43 265 c 1,2,3
 182 380 182 380 299 457 c 1,4,5
 309 462 309 462 321.5 462 c 128,-1,6
 334 462 334 462 344.5 451 c 128,-1,7
 355 440 355 440 355 426 c 128,-1,8
 355 412 355 412 347 401 c 1,9,10
 337 394 337 394 119 235 c 1,11,12
 143 217 143 217 226.5 161 c 128,-1,13
 310 105 310 105 349 73 c 1,14,15
 357 60 357 60 357 48.5 c 128,-1,16
 357 37 357 37 344 25.5 c 128,-1,17
 331 14 331 14 317.5 14 c 128,-1,18
 304 14 304 14 300 17 c 0,19,20
 258 50 258 50 175.5 107 c 128,-1,21
 93 164 93 164 41 205 c 0,22,0
 26 218 26 218 26 236 c 128,-1,1
EndSplineSet
EndChar

StartChar: equal
Encoding: 61 61 33
Width: 572
GlyphClass: 2
Flags: W
LayerCount: 2
Fore
SplineSet
466 389 m 128,-1,1
 458 376 458 376 448 372 c 1,2,3
 383 368 383 368 330 368 c 1,4,-1
 140 372 l 2,5,6
 116 372 116 372 116 396 c 0,7,8
 116 409 116 409 124.5 422 c 128,-1,9
 133 435 133 435 145 437 c 1,10,-1
 335 433 l 1,11,12
 387 433 387 433 455 437 c 1,13,14
 474 433 474 433 474 417.5 c 128,-1,0
 474 402 474 402 466 389 c 128,-1,1
474 247 m 0,15,16
 474 234 474 234 466.5 222 c 128,-1,17
 459 210 459 210 448 208 c 1,18,-1
 132 204 l 2,19,20
 109 204 109 204 109 229 c 0,21,22
 109 244 109 244 117 256.5 c 128,-1,23
 125 269 125 269 137 271 c 1,24,25
 232 272 232 272 452 272 c 1,26,27
 474 271 474 271 474 247 c 0,15,16
EndSplineSet
EndChar

StartChar: greater
Encoding: 62 62 34
Width: 400
GlyphClass: 2
Flags: W
LayerCount: 2
Fore
SplineSet
92 462 m 128,-1,1
 103 458 103 458 118.5 448.5 c 128,-1,2
 134 439 134 439 147.5 429.5 c 128,-1,3
 161 420 161 420 185 403 c 128,-1,4
 209 386 209 386 249 359 c 128,-1,5
 289 332 289 332 354 279 c 0,6,7
 376 260 376 260 376 243.5 c 128,-1,8
 376 227 376 227 360 210 c 0,9,10
 351 201 351 201 342 192 c 128,-1,11
 333 183 333 183 293 155 c 2,12,-1
 263 134 l 2,13,14
 243 120 243 120 193 86 c 128,-1,15
 143 52 143 52 101 17 c 0,16,17
 96 14 96 14 82 14 c 128,-1,18
 68 14 68 14 55.5 26 c 128,-1,19
 43 38 43 38 43 52.5 c 128,-1,20
 43 67 43 67 49 76 c 1,21,22
 97 111 97 111 173.5 163 c 128,-1,23
 250 215 250 215 287 244 c 1,24,25
 258 266 258 266 196 307.5 c 128,-1,26
 134 349 134 349 55 404 c 1,27,28
 42 420 42 420 42 434 c 128,-1,29
 42 448 42 448 50.5 457 c 128,-1,30
 59 466 59 466 70 466 c 128,-1,0
 81 466 81 466 92 462 c 128,-1,1
EndSplineSet
EndChar

StartChar: question
Encoding: 63 63 35
Width: 368
GlyphClass: 2
Flags: W
LayerCount: 2
Fore
SplineSet
278 570 m 0,0,1
 278 594 278 594 252.5 613 c 128,-1,2
 227 632 227 632 201 632 c 128,-1,3
 175 632 175 632 153 620.5 c 128,-1,4
 131 609 131 609 121 593 c 0,5,6
 93 553 93 553 78 553 c 0,7,8
 35 553 35 553 35 595 c 0,9,10
 35 633 35 633 88 672.5 c 128,-1,11
 141 712 141 712 199 712 c 0,12,13
 281 712 281 712 329 645 c 0,14,15
 355 608 355 608 355 570 c 0,16,17
 355 504 355 504 301 443 c 0,18,19
 278 417 278 417 255 394 c 0,20,21
 200 339 200 339 200 321 c 128,-1,22
 200 303 200 303 214 281 c 0,23,24
 227 259 227 259 227 251 c 128,-1,25
 227 243 227 243 222 233 c 1,26,27
 210 215 210 215 187.5 215 c 128,-1,28
 165 215 165 215 142 245.5 c 128,-1,29
 119 276 119 276 119 313 c 0,30,31
 119 378 119 378 168 431 c 0,32,33
 191 456 191 456 211 473 c 1,34,35
 278 536 278 536 278 570 c 0,0,1
156.5 117 m 128,-1,37
 170 132 170 132 194 132 c 128,-1,38
 218 132 218 132 228.5 123 c 128,-1,39
 239 114 239 114 239 84 c 0,40,41
 239 31 239 31 191 31 c 0,42,43
 173 31 173 31 158 49 c 128,-1,44
 143 67 143 67 143 84.5 c 128,-1,36
 143 102 143 102 156.5 117 c 128,-1,37
EndSplineSet
EndChar

StartChar: at
Encoding: 64 64 36
Width: 550
GlyphClass: 2
Flags: W
LayerCount: 2
Fore
SplineSet
288 142 m 2,0,-1
 288 145 l 1,1,2
 281 144 281 144 257 144 c 0,3,4
 185 144 185 144 161 173 c 0,5,6
 146 192 146 192 146 216.5 c 128,-1,7
 146 241 146 241 166 271 c 128,-1,8
 186 301 186 301 216.5 319.5 c 128,-1,9
 247 338 247 338 270 338 c 128,-1,10
 293 338 293 338 311 332 c 1,11,12
 311 338 311 338 321 342 c 128,-1,13
 331 346 331 346 343 346 c 0,14,15
 371 346 371 346 371 329 c 0,16,17
 371 327 371 327 360 228 c 1,18,19
 389 244 389 244 406.5 269.5 c 128,-1,20
 424 295 424 295 424 323.5 c 128,-1,21
 424 352 424 352 403 368 c 1,22,23
 368 397 368 397 306.5 397 c 128,-1,24
 245 397 245 397 197.5 369.5 c 128,-1,25
 150 342 150 342 125.5 298 c 128,-1,26
 101 254 101 254 101 202.5 c 128,-1,27
 101 151 101 151 145 114 c 128,-1,28
 189 77 189 77 268 77 c 0,29,30
 316 77 316 77 359 98.5 c 128,-1,31
 402 120 402 120 422 148 c 128,-1,32
 442 176 442 176 458 176 c 128,-1,33
 474 176 474 176 483 168.5 c 128,-1,34
 492 161 492 161 492 150 c 128,-1,35
 492 139 492 139 491 137 c 0,36,37
 476 74 476 74 419.5 38 c 128,-1,38
 363 2 363 2 292 2 c 0,39,40
 148 2 148 2 73 97 c 1,41,42
 35 147 35 147 35 214 c 128,-1,43
 35 281 35 281 77.5 341 c 128,-1,44
 120 401 120 401 186 434.5 c 128,-1,45
 252 468 252 468 316 468 c 128,-1,46
 380 468 380 468 432 437 c 0,47,48
 492 402 492 402 492 322 c 128,-1,49
 492 242 492 242 422 190 c 0,50,51
 392 167 392 167 352 156 c 1,52,53
 348 123 348 123 329 118 c 0,54,55
 319 116 319 116 313 116 c 0,56,57
 288 116 288 116 288 142 c 2,0,-1
293 204 m 1,58,59
 300 242 300 242 300 268 c 0,60,61
 300 283 300 283 282 283 c 0,62,63
 243 283 243 283 223 252 c 1,64,65
 211 236 211 236 211 211 c 1,66,67
 225 203 225 203 256 203 c 128,-1,68
 287 203 287 203 293 204 c 1,58,59
EndSplineSet
EndChar

StartChar: A
Encoding: 65 65 37
Width: 488
GlyphClass: 2
Flags: W
LayerCount: 2
Fore
SplineSet
259 659 m 0,0,1
 284 659 284 659 301 637 c 128,-1,2
 318 615 318 615 345 546 c 0,3,4
 408 383 408 383 468 35 c 0,5,6
 469 31 469 31 469 23.5 c 128,-1,7
 469 16 469 16 459.5 7.5 c 128,-1,8
 450 -1 450 -1 432.5 -1 c 128,-1,9
 415 -1 415 -1 403 7.5 c 128,-1,10
 391 16 391 16 387 35.5 c 128,-1,11
 383 55 383 55 372 112 c 0,12,13
 348 239 348 239 340 244 c 0,14,15
 328 251 328 251 260.5 259 c 128,-1,16
 193 267 193 267 171 267 c 128,-1,17
 149 267 149 267 145 263 c 0,18,19
 127 247 127 247 96 20 c 1,20,21
 92 1 92 1 58 1 c 128,-1,22
 24 1 24 1 24 30 c 0,23,24
 24 102 24 102 77 305 c 128,-1,25
 130 508 130 508 165 574 c 0,26,27
 209 659 209 659 259 659 c 0,0,1
255 548 m 0,28,29
 240 548 240 548 203 459.5 c 128,-1,30
 166 371 166 371 166 350 c 0,31,32
 166 345 166 345 168 343 c 0,33,34
 176 335 176 335 231 329 c 128,-1,35
 286 323 286 323 304 323 c 128,-1,36
 322 323 322 323 324 325.5 c 128,-1,37
 326 328 326 328 326 341.5 c 128,-1,38
 326 355 326 355 299 451.5 c 128,-1,39
 272 548 272 548 255 548 c 0,28,29
EndSplineSet
Substitution2: "Single Substitution lookup 18 subtable" ordfeminine
Substitution2: "'aalt' Access All Alternates lookup 0 subtable" ordfeminine
Position2: "'cpsp' Capital Spacing lookup 0 subtable" dx=5 dy=0 dh=10 dv=0
EndChar

StartChar: B
Encoding: 66 66 38
Width: 507
GlyphClass: 2
Flags: W
LayerCount: 2
Fore
SplineSet
198 2 m 1,0,-1
 69 5 l 1,1,2
 58 47 58 47 56 383 c 1,3,-1
 56 454 l 2,4,5
 56 539 56 539 72 583.5 c 128,-1,6
 88 628 88 628 139 655 c 0,7,8
 165 668 165 668 211.5 668 c 128,-1,9
 258 668 258 668 283 662 c 0,10,11
 350 648 350 648 374.5 610 c 128,-1,12
 399 572 399 572 399 508 c 0,13,14
 399 419 399 419 352 377 c 1,15,16
 376 374 376 374 400 353 c 128,-1,17
 424 332 424 332 439 310 c 0,18,19
 465 270 465 270 465 201 c 0,20,21
 465 93 465 93 399.5 47.5 c 128,-1,22
 334 2 334 2 198 2 c 1,0,-1
136 489 m 2,23,-1
 138 375 l 1,24,25
 140 375 140 375 172 379.5 c 128,-1,26
 204 384 204 384 226 389 c 0,27,28
 327 413 327 413 327 504 c 0,29,30
 327 549 327 549 300.5 570 c 128,-1,31
 274 591 274 591 231 591 c 0,32,33
 177 591 177 591 158 572 c 0,34,35
 150 564 150 564 145 558.5 c 128,-1,36
 140 553 140 553 138 541 c 128,-1,37
 136 529 136 529 135.5 524 c 128,-1,38
 135 519 135 519 135.5 505 c 128,-1,39
 136 491 136 491 136 489 c 2,23,-1
330 296 m 128,-1,41
 309 305 309 305 269.5 305 c 128,-1,42
 230 305 230 305 135 292 c 1,43,44
 135 136 135 136 140 81 c 1,45,46
 257 81 257 81 304 96.5 c 128,-1,47
 351 112 351 112 367.5 134.5 c 128,-1,48
 384 157 384 157 384 182.5 c 128,-1,49
 384 208 384 208 383.5 218.5 c 128,-1,50
 383 229 383 229 377.5 247.5 c 128,-1,51
 372 266 372 266 361.5 276.5 c 128,-1,40
 351 287 351 287 330 296 c 128,-1,41
EndSplineSet
Position2: "'cpsp' Capital Spacing lookup 0 subtable" dx=5 dy=0 dh=10 dv=0
EndChar

StartChar: C
Encoding: 67 67 39
Width: 548
GlyphClass: 2
Flags: W
LayerCount: 2
Fore
SplineSet
336 654 m 0,0,1
 403 654 403 654 484 628 c 1,2,3
 502 614 502 614 502 597.5 c 128,-1,4
 502 581 502 581 485.5 568.5 c 128,-1,5
 469 556 469 556 448 556 c 1,6,7
 394 570 394 570 347 570 c 0,8,9
 239 570 239 570 183 506 c 128,-1,10
 127 442 127 442 127 316 c 128,-1,11
 127 190 127 190 193 119 c 0,12,13
 227 82 227 82 274 82 c 128,-1,14
 321 82 321 82 424 132 c 0,15,16
 460 149 460 149 472 149 c 0,17,18
 498 149 498 149 498 122 c 128,-1,19
 498 95 498 95 473 77 c 1,20,21
 387 32 387 32 339 16.5 c 128,-1,22
 291 1 291 1 256 1 c 0,23,24
 184 1 184 1 133 54 c 1,25,26
 42 152 42 152 42 321.5 c 128,-1,27
 42 491 42 491 128.5 572.5 c 128,-1,28
 215 654 215 654 336 654 c 0,0,1
EndSplineSet
Position2: "'cpsp' Capital Spacing lookup 0 subtable" dx=5 dy=0 dh=10 dv=0
EndChar

StartChar: D
Encoding: 68 68 40
Width: 475
GlyphClass: 2
Flags: W
LayerCount: 2
Fore
SplineSet
59 32 m 1,0,1
 44 43 44 43 44 56.5 c 128,-1,2
 44 70 44 70 55 79 c 1,3,4
 36 222 36 222 36 407 c 0,5,6
 36 463 36 463 41 625 c 1,7,8
 46 640 46 640 61.5 651 c 128,-1,9
 77 662 77 662 91 662 c 128,-1,10
 105 662 105 662 108 661 c 0,11,12
 251 621 251 621 357 506.5 c 128,-1,13
 463 392 463 392 468 232 c 1,14,15
 468 56 468 56 322 11 c 0,16,17
 280 -2 280 -2 233.5 -2 c 128,-1,18
 187 -2 187 -2 152 5 c 1,19,20
 156 -3 156 -3 156 -16.5 c 128,-1,21
 156 -30 156 -30 139.5 -42.5 c 128,-1,22
 123 -55 123 -55 100.5 -55 c 128,-1,23
 78 -55 78 -55 72 -28 c 2,24,-1
 59 32 l 1,0,1
119 415 m 0,25,26
 119 240 119 240 139 83 c 1,27,28
 163 76 163 76 220 76 c 128,-1,29
 277 76 277 76 329.5 95 c 128,-1,30
 382 114 382 114 385 151 c 0,31,32
 388 179 388 179 388 194 c 0,33,34
 388 324 388 324 318.5 424 c 128,-1,35
 249 524 249 524 124 576 c 1,36,37
 119 458 119 458 119 415 c 0,25,26
EndSplineSet
Position2: "'cpsp' Capital Spacing lookup 0 subtable" dx=5 dy=0 dh=10 dv=0
EndChar

StartChar: E
Encoding: 69 69 41
Width: 442
GlyphClass: 2
Flags: W
LayerCount: 2
Fore
SplineSet
55 344 m 1,0,1
 41 353 41 353 41 370 c 128,-1,2
 41 387 41 387 52 401 c 1,3,4
 48 501 48 501 48 612 c 1,5,6
 54 636 54 636 66.5 647 c 128,-1,7
 79 658 79 658 103 661 c 1,8,9
 235 655 235 655 389 655 c 1,10,11
 427 647 427 647 427 622 c 0,12,13
 427 580 427 580 345 573 c 0,14,15
 323 572 323 572 297 572 c 2,16,-1
 232 572 l 2,17,18
 213 572 213 572 127 580 c 1,19,20
 127 455 127 455 131 408 c 1,21,22
 184 407 184 407 335 407 c 1,23,24
 371 400 371 400 371 374.5 c 128,-1,25
 371 349 371 349 342 335 c 0,26,27
 339 333 339 333 331 331 c 1,28,-1
 158 334 l 2,29,30
 142 334 142 334 132 332 c 1,31,-1
 136 160 l 1,32,33
 136 102 136 102 133 77 c 1,34,-1
 365 80 l 1,35,36
 397 75 397 75 397 53 c 0,37,38
 397 38 397 38 383.5 23 c 128,-1,39
 370 8 370 8 352 4 c 1,40,-1
 96 0 l 2,41,42
 73 0 73 0 64 8.5 c 128,-1,43
 55 17 55 17 55 37 c 1,44,45
 59 65 59 65 59 127 c 2,46,-1
 59 197 l 1,47,-1
 55 344 l 1,0,1
EndSplineSet
Position2: "'cpsp' Capital Spacing lookup 0 subtable" dx=5 dy=0 dh=10 dv=0
EndChar

StartChar: F
Encoding: 70 70 42
Width: 375
GlyphClass: 2
Flags: W
LayerCount: 2
Fore
SplineSet
210 648 m 2,0,-1
 321 650 l 1,1,2
 395 650 395 650 395 611 c 0,3,4
 395 597 395 597 391 591.5 c 128,-1,5
 387 586 387 586 385 583 c 128,-1,6
 383 580 383 580 377 578 c 0,7,8
 365 574 365 574 357 573 c 128,-1,9
 349 572 349 572 346 572 c 0,10,11
 335 570 335 570 309 569 c 128,-1,12
 283 568 283 568 233.5 568 c 128,-1,13
 184 568 184 568 112 572 c 1,14,-1
 112 388 l 1,15,-1
 316 388 l 2,16,17
 327 388 327 388 336.5 378 c 128,-1,18
 346 368 346 368 346 356 c 0,19,20
 346 310 346 310 307 310 c 2,21,-1
 112 310 l 1,22,-1
 116 48 l 2,23,24
 116 -3 116 -3 81.5 -3 c 128,-1,25
 47 -3 47 -3 41 43 c 1,26,27
 38 58 38 58 37.5 297.5 c 128,-1,28
 37 537 37 537 35 573 c 1,29,30
 -2 569 -2 569 -2 615 c 0,31,32
 -2 627 -2 627 8 641.5 c 128,-1,33
 18 656 18 656 25.5 657 c 128,-1,34
 33 658 33 658 44.5 658 c 128,-1,35
 56 658 56 658 101 654 c 0,36,37
 163 648 163 648 210 648 c 2,0,-1
EndSplineSet
Position2: "'cpsp' Capital Spacing lookup 0 subtable" dx=5 dy=0 dh=10 dv=0
EndChar

StartChar: G
Encoding: 71 71 43
Width: 480
GlyphClass: 2
Flags: W
LayerCount: 2
Fore
SplineSet
331 664 m 0,0,1
 379 664 379 664 426.5 640 c 128,-1,2
 474 616 474 616 474 586 c 0,3,4
 474 540 474 540 436 540 c 0,5,6
 422 540 422 540 387 558 c 128,-1,7
 352 576 352 576 328 576 c 0,8,9
 242 576 242 576 184.5 499 c 128,-1,10
 127 422 127 422 127 303 c 0,11,12
 127 214 127 214 166 147 c 128,-1,13
 205 80 205 80 258.5 80 c 128,-1,14
 312 80 312 80 342.5 115.5 c 128,-1,15
 373 151 373 151 373 196 c 0,16,17
 373 221 373 221 369.5 237.5 c 128,-1,18
 366 254 366 254 352 267.5 c 128,-1,19
 338 281 338 281 315 281 c 128,-1,20
 292 281 292 281 271.5 291 c 128,-1,21
 251 301 251 301 251 318 c 128,-1,22
 251 335 251 335 261 350 c 128,-1,23
 271 365 271 365 288 368 c 1,24,25
 356 368 356 368 379.5 354 c 128,-1,26
 403 340 403 340 415 331 c 128,-1,27
 427 322 427 322 435 301 c 128,-1,28
 443 280 443 280 447.5 266 c 128,-1,29
 452 252 452 252 454 221 c 0,30,31
 456 169 456 169 456 99.5 c 128,-1,32
 456 30 456 30 446 14 c 0,33,34
 437 1 437 1 416 0.5 c 128,-1,35
 395 0 395 0 387 9 c 128,-1,36
 379 18 379 18 377 49 c 1,37,38
 353 28 353 28 316.5 13.5 c 128,-1,39
 280 -1 280 -1 252 -1 c 0,40,41
 164 -1 164 -1 104 92.5 c 128,-1,42
 44 186 44 186 44 318 c 0,43,44
 44 388 44 388 67 455.5 c 128,-1,45
 90 523 90 523 129 569 c 0,46,47
 211 664 211 664 331 664 c 0,0,1
EndSplineSet
Position2: "'cpsp' Capital Spacing lookup 0 subtable" dx=5 dy=0 dh=10 dv=0
EndChar

StartChar: H
Encoding: 72 72 44
Width: 468
GlyphClass: 2
Flags: W
LayerCount: 2
Fore
SplineSet
132 383 m 1,0,1
 210 370 210 370 275 370 c 128,-1,2
 340 370 340 370 358 371 c 1,3,4
 356 447 356 447 356 517 c 128,-1,5
 356 587 356 587 356 612 c 128,-1,6
 356 637 356 637 358 643.5 c 128,-1,7
 360 650 360 650 371 656 c 128,-1,8
 382 662 382 662 403 662 c 0,9,10
 433 662 433 662 433 626 c 2,11,-1
 433 272 l 2,12,13
 433 162 433 162 428 30 c 0,14,15
 427 1 427 1 379 1 c 0,16,17
 355 1 355 1 355 30 c 2,18,-1
 359 295 l 1,19,20
 327 293 327 293 271.5 293 c 128,-1,21
 216 293 216 293 132 305 c 1,22,23
 132 173 132 173 144 29 c 0,24,25
 145 13 145 13 130 4.5 c 128,-1,26
 115 -4 115 -4 92.5 -4 c 128,-1,27
 70 -4 70 -4 68 19 c 0,28,29
 55 161 55 161 55 299 c 1,30,-1
 61 611 l 2,31,32
 61 631 61 631 76 640.5 c 128,-1,33
 91 650 91 650 108 650 c 0,34,35
 136 650 136 650 136 623 c 2,36,-1
 132 383 l 1,0,1
EndSplineSet
Position2: "'cpsp' Capital Spacing lookup 0 subtable" dx=5 dy=0 dh=10 dv=0
EndChar

StartChar: I
Encoding: 73 73 45
Width: 235
GlyphClass: 2
Flags: W
LayerCount: 2
Fore
SplineSet
135 646 m 128,-1,1
 155 646 155 646 160 623 c 1,2,3
 161 507 161 507 164 276 c 1,4,5
 164 135 164 135 156 37 c 0,6,7
 154 22 154 22 137.5 10.5 c 128,-1,8
 121 -1 121 -1 104 -1 c 0,9,10
 76 -1 76 -1 76 28 c 1,11,12
 86 128 86 128 86 276 c 1,13,-1
 80 612 l 1,14,15
 84 626 84 626 99.5 636 c 128,-1,0
 115 646 115 646 135 646 c 128,-1,1
EndSplineSet
Position2: "'cpsp' Capital Spacing lookup 0 subtable" dx=5 dy=0 dh=10 dv=0
EndChar

StartChar: J
Encoding: 74 74 46
Width: 370
GlyphClass: 2
Flags: W
LayerCount: 2
Fore
SplineSet
255 657 m 128,-1,1
 271 668 271 668 286.5 668 c 128,-1,2
 302 668 302 668 310.5 661 c 128,-1,3
 319 654 319 654 320 644 c 0,4,5
 341 374 341 374 341 302.5 c 128,-1,6
 341 231 341 231 339 195 c 128,-1,7
 337 159 337 159 329 117.5 c 128,-1,8
 321 76 321 76 306 52 c 0,9,10
 273 -4 273 -4 200 -4 c 128,-1,11
 127 -4 127 -4 81 44.5 c 128,-1,12
 35 93 35 93 35 184 c 0,13,14
 35 199 35 199 50.5 211.5 c 128,-1,15
 66 224 66 224 84 224 c 0,16,17
 106 224 106 224 111 183 c 0,18,19
 124 67 124 67 198 67 c 0,20,21
 217 67 217 67 230.5 79.5 c 128,-1,22
 244 92 244 92 251 109.5 c 128,-1,23
 258 127 258 127 262 156 c 0,24,25
 268 198 268 198 268 256.5 c 128,-1,26
 268 315 268 315 253.5 470 c 128,-1,27
 239 625 239 625 239 635.5 c 128,-1,0
 239 646 239 646 255 657 c 128,-1,1
EndSplineSet
Position2: "'cpsp' Capital Spacing lookup 0 subtable" dx=5 dy=0 dh=10 dv=0
EndChar

StartChar: K
Encoding: 75 75 47
Width: 523
GlyphClass: 2
Flags: W
LayerCount: 2
Fore
SplineSet
73 114 m 2,0,1
 73 191 73 191 63.5 374.5 c 128,-1,2
 54 558 54 558 47 607 c 1,3,4
 47 629 47 629 62 645.5 c 128,-1,5
 77 662 77 662 96 662 c 0,6,7
 120 662 120 662 128 632 c 1,8,9
 144 532 144 532 148 344 c 1,10,11
 238 427 238 427 287.5 486 c 128,-1,12
 337 545 337 545 392 637 c 0,13,14
 408 664 408 664 439 664 c 0,15,16
 455 664 455 664 465.5 655.5 c 128,-1,17
 476 647 476 647 476 635 c 0,18,19
 476 603 476 603 419.5 524.5 c 128,-1,20
 363 446 363 446 300 372 c 1,21,22
 384 288 384 288 444 178 c 0,23,24
 452 164 452 164 465 143 c 128,-1,25
 478 122 478 122 485 110 c 0,26,27
 504 77 504 77 504 54 c 128,-1,28
 504 31 504 31 492.5 16.5 c 128,-1,29
 481 2 481 2 464 2 c 128,-1,30
 447 2 447 2 420 46.5 c 128,-1,31
 393 91 393 91 342.5 172.5 c 128,-1,32
 292 254 292 254 236 316 c 1,33,34
 180 262 180 262 152 241 c 1,35,36
 155 177 155 177 155 134.5 c 128,-1,37
 155 92 155 92 153 66 c 0,38,39
 147 1 147 1 100 1 c 0,40,41
 71 1 71 1 73 36 c 1,42,-1
 73 114 l 2,0,1
EndSplineSet
Position2: "'cpsp' Capital Spacing lookup 0 subtable" dx=5 dy=0 dh=10 dv=0
EndChar

StartChar: L
Encoding: 76 76 48
Width: 372
GlyphClass: 2
Flags: W
LayerCount: 2
Fore
SplineSet
27 139 m 2,0,-1
 28 217 l 1,1,-1
 37 635 l 2,2,3
 37 647 37 647 50 654 c 128,-1,4
 63 661 63 661 83 661 c 0,5,6
 131 661 131 661 131 627 c 0,7,8
 131 616 131 616 119.5 459 c 128,-1,9
 108 302 108 302 108 271 c 2,10,11
 108 271 108 271 108 165 c 0,12,13
 108 90 108 90 118 83 c 1,14,15
 133 78 133 78 153 78 c 1,16,-1
 297 88 l 1,17,18
 344 88 344 88 344 54 c 0,19,20
 344 27 344 27 318.5 14.5 c 128,-1,21
 293 2 293 2 268 0.5 c 128,-1,22
 243 -1 243 -1 207 -1 c 0,23,24
 50 -1 50 -1 37 9 c 0,25,26
 30 15 30 15 29 54.5 c 128,-1,27
 28 94 28 94 27.5 110 c 128,-1,28
 27 126 27 126 27 139 c 2,0,-1
EndSplineSet
Position2: "'cpsp' Capital Spacing lookup 0 subtable" dx=5 dy=0 dh=10 dv=0
EndChar

StartChar: M
Encoding: 77 77 49
Width: 595
GlyphClass: 2
Flags: W
LayerCount: 2
Fore
SplineSet
513 666 m 0,0,1
 537 666 537 666 544 631 c 1,2,3
 549 468 549 468 549 275.5 c 128,-1,4
 549 83 549 83 547 53 c 128,-1,5
 545 23 545 23 534 11 c 128,-1,6
 523 -1 523 -1 494 -1 c 0,7,8
 468 -1 468 -1 468 31 c 2,9,-1
 468 257 l 2,10,11
 468 312 468 312 466 370 c 128,-1,12
 464 428 464 428 464 443 c 1,13,14
 430 385 430 385 374 347.5 c 128,-1,15
 318 310 318 310 249 310 c 128,-1,16
 180 310 180 310 133 367 c 1,17,18
 131 306 131 306 131 222.5 c 128,-1,19
 131 139 131 139 132 47 c 0,20,21
 132 22 132 22 115.5 10.5 c 128,-1,22
 99 -1 99 -1 78 -1 c 0,23,24
 51 -1 51 -1 51 32 c 0,25,26
 52 122 52 122 52 317 c 2,27,-1
 52 601 l 2,28,29
 52 618 52 618 63.5 634 c 128,-1,30
 75 650 75 650 90.5 650 c 128,-1,31
 106 650 106 650 119 641.5 c 128,-1,32
 132 633 132 633 133 616 c 0,33,34
 137 505 137 505 169 451 c 128,-1,35
 201 397 201 397 245 397 c 128,-1,36
 289 397 289 397 320.5 411.5 c 128,-1,37
 352 426 352 426 372.5 445 c 128,-1,38
 393 464 393 464 412 499 c 0,39,40
 439 549 439 549 464 622 c 0,41,42
 479 666 479 666 513 666 c 0,0,1
EndSplineSet
Position2: "'cpsp' Capital Spacing lookup 0 subtable" dx=5 dy=0 dh=10 dv=0
EndChar

StartChar: N
Encoding: 78 78 50
Width: 532
GlyphClass: 2
Flags: W
LayerCount: 2
Fore
SplineSet
449 662 m 128,-1,1
 465 662 465 662 478 648.5 c 128,-1,2
 491 635 491 635 491 617 c 0,3,4
 491 226 491 226 494.5 144.5 c 128,-1,5
 498 63 498 63 498 61 c 0,6,7
 498 39 498 39 486 19.5 c 128,-1,8
 474 0 474 0 459.5 0 c 128,-1,9
 445 0 445 0 437.5 1.5 c 128,-1,10
 430 3 430 3 424 5 c 128,-1,11
 418 7 418 7 412 13 c 2,12,-1
 402 23 l 2,13,14
 398 27 398 27 391.5 38.5 c 128,-1,15
 385 50 385 50 381 57 c 128,-1,16
 377 64 377 64 368.5 81.5 c 128,-1,17
 360 99 360 99 331.5 153 c 128,-1,18
 303 207 303 207 280 250 c 0,19,20
 201 395 201 395 133 479 c 1,21,22
 133 154 133 154 115 28 c 0,23,24
 112 4 112 4 78 4 c 0,25,26
 62 4 62 4 51.5 12 c 128,-1,27
 41 20 41 20 41 38 c 128,-1,28
 41 56 41 56 48.5 236 c 128,-1,29
 56 416 56 416 56 460.5 c 128,-1,30
 56 505 56 505 56 517 c 0,31,32
 56 589 56 589 67 598 c 128,-1,33
 78 607 78 607 90 607 c 0,34,35
 145 607 145 607 258 427 c 0,36,37
 280 392 280 392 342 280.5 c 128,-1,38
 404 169 404 169 416 143 c 1,39,-1
 404 558 l 1,40,41
 404 644 404 644 423 656 c 0,42,0
 433 662 433 662 449 662 c 128,-1,1
EndSplineSet
Position2: "'cpsp' Capital Spacing lookup 0 subtable" dx=5 dy=0 dh=10 dv=0
EndChar

StartChar: O
Encoding: 79 79 51
Width: 556
GlyphClass: 2
Flags: W
LayerCount: 2
Fore
SplineSet
306 665 m 0,0,1
 376 665 376 665 425 620 c 0,2,3
 521 534 521 534 521 348.5 c 128,-1,4
 521 163 521 163 415 57 c 1,5,6
 360 4 360 4 288 -1 c 1,7,8
 193 -1 193 -1 140 64 c 128,-1,9
 87 129 87 129 64.5 209.5 c 128,-1,10
 42 290 42 290 42 365 c 0,11,12
 42 493 42 493 103 576 c 1,13,14
 167 665 167 665 306 665 c 0,0,1
299 582 m 0,15,16
 165 582 165 582 132 455 c 1,17,18
 122 421 122 421 122 368 c 128,-1,19
 122 315 122 315 142 245 c 0,20,21
 169 151 169 151 222 113 c 1,22,23
 253 89 253 89 297 89 c 128,-1,24
 341 89 341 89 376 128.5 c 128,-1,25
 411 168 411 168 424 229 c 128,-1,26
 437 290 437 290 437 352 c 0,27,28
 437 462 437 462 405.5 522 c 128,-1,29
 374 582 374 582 299 582 c 0,15,16
EndSplineSet
Substitution2: "Single Substitution lookup 18 subtable" ordmasculine
Substitution2: "'aalt' Access All Alternates lookup 0 subtable" ordmasculine
Position2: "'cpsp' Capital Spacing lookup 0 subtable" dx=5 dy=0 dh=10 dv=0
EndChar

StartChar: P
Encoding: 80 80 52
Width: 481
GlyphClass: 2
Flags: W
LayerCount: 2
Fore
SplineSet
57 102 m 1,0,1
 50 205 50 205 50 380.5 c 128,-1,2
 50 556 50 556 55 608 c 1,3,4
 60 640 60 640 99 650.5 c 128,-1,5
 138 661 138 661 202 661 c 0,6,7
 296 661 296 661 360.5 620.5 c 128,-1,8
 425 580 425 580 425 501 c 0,9,10
 425 436 425 436 407 392.5 c 128,-1,11
 389 349 389 349 362 328 c 0,12,13
 318 294 318 294 232 294 c 0,14,15
 195 294 195 294 135 304 c 1,16,17
 140 104 140 104 139 52 c 128,-1,18
 138 0 138 0 104 0 c 0,19,20
 82 0 82 0 76 8 c 128,-1,21
 70 16 70 16 68 19.5 c 128,-1,22
 66 23 66 23 64 30 c 128,-1,23
 62 37 62 37 61 41.5 c 128,-1,24
 60 46 60 46 59.5 55 c 128,-1,25
 59 64 59 64 58 69 c 0,26,27
 57 84 57 84 57 102 c 1,0,1
298 562.5 m 128,-1,29
 254 586 254 586 204 586 c 128,-1,30
 154 586 154 586 134 577 c 1,31,32
 130 518 130 518 130 468.5 c 128,-1,33
 130 419 130 419 134 379 c 1,34,35
 161 376 161 376 171 374 c 0,36,37
 197 371 197 371 215.5 371 c 128,-1,38
 234 371 234 371 240.5 371.5 c 128,-1,39
 247 372 247 372 265.5 374.5 c 128,-1,40
 284 377 284 377 292 383 c 128,-1,41
 300 389 300 389 312 399 c 128,-1,42
 324 409 324 409 329 422 c 0,43,44
 342 458 342 458 342 498.5 c 128,-1,28
 342 539 342 539 298 562.5 c 128,-1,29
EndSplineSet
Position2: "'cpsp' Capital Spacing lookup 0 subtable" dx=5 dy=0 dh=10 dv=0
EndChar

StartChar: Q
Encoding: 81 81 53
Width: 655
GlyphClass: 2
Flags: W
LayerCount: 2
Fore
SplineSet
494 52 m 1,0,-1
 481 67 l 1,1,2
 410 6 410 6 307 -4 c 1,3,4
 231 2 231 2 170.5 48.5 c 128,-1,5
 110 95 110 95 79.5 165.5 c 128,-1,6
 49 236 49 236 49 307 c 0,7,8
 49 443 49 443 118 550 c 0,9,10
 151 603 151 603 204 634 c 128,-1,11
 257 665 257 665 320 665 c 128,-1,12
 383 665 383 665 439 636 c 128,-1,13
 495 607 495 607 531 557 c 0,14,15
 605 453 605 453 605 319 c 0,16,17
 605 218 605 218 545 127 c 0,18,19
 545 126 545 126 576 94 c 1,20,21
 605 62 605 62 605 46.5 c 128,-1,22
 605 31 605 31 594.5 15 c 128,-1,23
 584 -1 584 -1 560 -1 c 128,-1,24
 536 -1 536 -1 494 52 c 1,0,-1
174 161 m 0,25,26
 220 78 220 78 319 72 c 1,27,28
 399 79 399 79 444 113 c 1,29,-1
 365 204 l 2,30,31
 334 239 334 239 334 257.5 c 128,-1,32
 334 276 334 276 347 288.5 c 128,-1,33
 360 301 360 301 379.5 301 c 128,-1,34
 399 301 399 301 431 267 c 1,35,36
 450 245 450 245 482 204 c 1,37,38
 496 184 496 184 500 180 c 1,39,40
 532 238 532 238 532 307 c 0,41,42
 532 463 532 463 428 545 c 0,43,44
 376 587 376 587 305 587 c 0,45,46
 213 587 213 587 169 503 c 1,47,48
 132 429 132 429 132 332.5 c 128,-1,49
 132 236 132 236 174 161 c 0,25,26
EndSplineSet
Position2: "'cpsp' Capital Spacing lookup 0 subtable" dx=5 dy=0 dh=10 dv=0
EndChar

StartChar: R
Encoding: 82 82 54
Width: 454
GlyphClass: 2
Flags: W
LayerCount: 2
Fore
SplineSet
103 10.5 m 128,-1,1
 87 -4 87 -4 68.5 -4 c 128,-1,2
 50 -4 50 -4 43 20 c 1,3,4
 40 152 40 152 40 283 c 1,5,-1
 37 535 l 2,6,7
 37 611 37 611 104 639 c 1,8,9
 158 664 158 664 232 664 c 0,10,11
 270 664 270 664 313.5 645.5 c 128,-1,12
 357 627 357 627 391.5 591.5 c 128,-1,13
 426 556 426 556 426 514.5 c 128,-1,14
 426 473 426 473 388 425.5 c 128,-1,15
 350 378 350 378 294 341.5 c 128,-1,16
 238 305 238 305 185 287 c 1,17,18
 278 222 278 222 347 147.5 c 128,-1,19
 416 73 416 73 416 32 c 0,20,21
 416 19 416 19 403 7.5 c 128,-1,22
 390 -4 390 -4 371.5 -4 c 128,-1,23
 353 -4 353 -4 340 12 c 1,24,25
 318 65 318 65 256.5 123.5 c 128,-1,26
 195 182 195 182 113 235 c 1,27,-1
 119 43 l 2,28,0
 119 25 119 25 103 10.5 c 128,-1,1
265.5 399 m 128,-1,30
 349 452 349 452 349 494.5 c 128,-1,31
 349 537 349 537 307 560 c 128,-1,32
 265 583 265 583 207.5 583 c 128,-1,33
 150 583 150 583 116 569 c 1,34,35
 115 518 115 518 115 343 c 1,36,29
 182 346 182 346 265.5 399 c 128,-1,30
EndSplineSet
Position2: "'cpsp' Capital Spacing lookup 0 subtable" dx=5 dy=0 dh=10 dv=0
EndChar

StartChar: S
Encoding: 83 83 55
Width: 459
GlyphClass: 2
Flags: W
LayerCount: 2
Fore
SplineSet
266 662 m 0,0,1
 331 662 331 662 376.5 640 c 128,-1,2
 422 618 422 618 422 584 c 0,3,4
 422 569 422 569 414.5 558 c 128,-1,5
 407 547 407 547 392.5 547 c 128,-1,6
 378 547 378 547 330 569.5 c 128,-1,7
 282 592 282 592 242.5 592 c 128,-1,8
 203 592 203 592 161 567 c 128,-1,9
 119 542 119 542 119 506 c 0,10,11
 119 457 119 457 170 434 c 0,12,13
 208 417 208 417 279 403.5 c 128,-1,14
 350 390 350 390 395 348.5 c 128,-1,15
 440 307 440 307 440 223 c 0,16,17
 440 95 440 95 363 34 c 0,18,19
 320 0 320 0 241.5 0 c 128,-1,20
 163 0 163 0 85 43 c 0,21,22
 34 70 34 70 34 97 c 0,23,24
 34 107 34 107 42.5 119 c 128,-1,25
 51 131 51 131 66 139 c 128,-1,26
 81 147 81 147 93.5 141.5 c 128,-1,27
 106 136 106 136 134 122 c 128,-1,28
 162 108 162 108 175 103 c 0,29,30
 217 87 217 87 254 87 c 128,-1,31
 291 87 291 87 325.5 123.5 c 128,-1,32
 360 160 360 160 360 213 c 0,33,34
 360 283 360 283 290 311 c 0,35,36
 256 325 256 325 213 332 c 0,37,38
 124 348 124 348 79 385.5 c 128,-1,39
 34 423 34 423 34 499 c 128,-1,40
 34 575 34 575 99 618.5 c 128,-1,41
 164 662 164 662 266 662 c 0,0,1
EndSplineSet
Position2: "'cpsp' Capital Spacing lookup 0 subtable" dx=5 dy=0 dh=10 dv=0
EndChar

StartChar: T
Encoding: 84 84 56
Width: 468
GlyphClass: 2
Flags: W
LayerCount: 2
Fore
SplineSet
44 649 m 1,0,-1
 449 655 l 1,1,2
 478 646 478 646 478 626 c 0,3,4
 478 576 478 576 437 576 c 0,5,6
 362 576 362 576 278 572 c 1,7,8
 273 486 273 486 273 442.5 c 128,-1,9
 273 399 273 399 273 387 c 2,10,-1
 277 36 l 2,11,12
 277 5 277 5 261 0 c 0,13,14
 249 -4 249 -4 231 -4 c 0,15,16
 202 -4 202 -4 199 29 c 0,17,18
 193 106 193 106 193 316.5 c 128,-1,19
 193 527 193 527 199 570 c 1,20,21
 178 569 178 569 137 569 c 128,-1,22
 96 569 96 569 35 570 c 0,23,24
 19 570 19 570 10 580 c 128,-1,25
 1 590 1 590 1 604.5 c 128,-1,26
 1 619 1 619 13.5 633 c 128,-1,27
 26 647 26 647 44 649 c 1,0,-1
EndSplineSet
Position2: "'cpsp' Capital Spacing lookup 0 subtable" dx=5 dy=0 dh=10 dv=0
EndChar

StartChar: U
Encoding: 85 85 57
Width: 550
GlyphClass: 2
Flags: W
LayerCount: 2
Fore
SplineSet
464 666 m 128,-1,1
 481 666 481 666 493 649 c 1,2,3
 510 562 510 562 510 454 c 2,4,-1
 510 378 l 2,5,6
 510 292 510 292 507 276.5 c 128,-1,7
 504 261 504 261 501 242 c 128,-1,8
 498 223 498 223 495.5 213 c 128,-1,9
 493 203 493 203 488 186 c 0,10,11
 477 149 477 149 457 120 c 1,12,13
 427 64 427 64 378 32 c 128,-1,14
 329 0 329 0 278.5 0 c 128,-1,15
 228 0 228 0 174.5 44 c 128,-1,16
 121 88 121 88 87 154 c 0,17,18
 35 256 35 256 35 389 c 0,19,20
 35 436 35 436 49 612 c 1,21,22
 56 628 56 628 70.5 640.5 c 128,-1,23
 85 653 85 653 100 653 c 0,24,25
 122 653 122 653 127 623 c 1,26,27
 113 450 113 450 113 404 c 0,28,29
 113 294 113 294 156 209 c 1,30,31
 183 153 183 153 222.5 115.5 c 128,-1,32
 262 78 262 78 300 78 c 0,33,34
 363 78 363 78 408 176 c 1,35,36
 427 210 427 210 429 285 c 0,37,38
 429 305 429 305 431 313 c 1,39,-1
 433 445 l 1,40,41
 433 537 433 537 419 613 c 1,42,43
 419 634 419 634 433 650 c 128,-1,0
 447 666 447 666 464 666 c 128,-1,1
EndSplineSet
Position2: "'cpsp' Capital Spacing lookup 0 subtable" dx=5 dy=0 dh=10 dv=0
EndChar

StartChar: V
Encoding: 86 86 58
Width: 562
GlyphClass: 2
Flags: W
LayerCount: 2
Fore
SplineSet
295 19 m 0,0,1
 254 140 254 140 210 240.5 c 128,-1,2
 166 341 166 341 97 493 c 0,3,4
 73 546 73 546 67 558.5 c 128,-1,5
 61 571 61 571 61 586.5 c 128,-1,6
 61 602 61 602 76.5 617 c 128,-1,7
 92 632 92 632 111 632 c 128,-1,8
 130 632 130 632 143 613 c 1,9,-1
 191 503 l 2,10,11
 292 270 292 270 335 164 c 1,12,-1
 353 234 l 1,13,14
 375 326 375 326 399 416 c 0,15,16
 467 662 467 662 533 662 c 0,17,18
 545 662 545 662 553.5 655 c 128,-1,19
 562 648 562 648 562 636 c 128,-1,20
 562 624 562 624 549.5 601 c 128,-1,21
 537 578 537 578 518 518 c 128,-1,22
 499 458 499 458 494.5 447.5 c 128,-1,23
 490 437 490 437 446.5 279 c 128,-1,24
 403 121 403 121 372 31 c 0,25,26
 367 15 367 15 353 4.5 c 128,-1,27
 339 -6 339 -6 321.5 -6 c 128,-1,28
 304 -6 304 -6 295 19 c 0,0,1
EndSplineSet
Position2: "'cpsp' Capital Spacing lookup 0 subtable" dx=5 dy=0 dh=10 dv=0
EndChar

StartChar: W
Encoding: 87 87 59
Width: 616
GlyphClass: 2
Flags: W
LayerCount: 2
Fore
SplineSet
575 667 m 0,0,1
 596 667 596 667 604 637 c 1,2,3
 598 536 598 536 591 493.5 c 128,-1,4
 584 451 584 451 579.5 419 c 128,-1,5
 575 387 575 387 573.5 375 c 128,-1,6
 572 363 572 363 565 326 c 128,-1,7
 558 289 558 289 550.5 252.5 c 128,-1,8
 543 216 543 216 541.5 209 c 128,-1,9
 540 202 540 202 523 119.5 c 128,-1,10
 506 37 506 37 497.5 18.5 c 128,-1,11
 489 0 489 0 468.5 0 c 128,-1,12
 448 0 448 0 436 12 c 1,13,14
 390 75 390 75 349 168 c 0,15,16
 339 192 339 192 326.5 220 c 128,-1,17
 314 248 314 248 308 262 c 2,18,-1
 299 283 l 1,19,20
 278 247 278 247 241 161 c 128,-1,21
 204 75 204 75 176 23 c 1,22,23
 158 0 158 0 136 0 c 0,24,25
 90 0 90 0 66 245 c 0,26,27
 66 246 66 246 64.5 256 c 128,-1,28
 63 266 63 266 60.5 291 c 128,-1,29
 58 316 58 316 54.5 346.5 c 128,-1,30
 51 377 51 377 29 599 c 1,31,32
 29 619 29 619 44 635.5 c 128,-1,33
 59 652 59 652 77 652 c 0,34,35
 99 652 99 652 107 623 c 1,36,37
 134 298 134 298 161 143 c 1,38,39
 169 157 169 157 202 235.5 c 128,-1,40
 235 314 235 314 262 360.5 c 128,-1,41
 289 407 289 407 314 407 c 0,42,43
 331 407 331 407 343 389 c 1,44,45
 406 210 406 210 451 137 c 1,46,47
 452 148 452 148 463 197 c 1,48,-1
 476 261 l 1,49,50
 476 267 476 267 478.5 278 c 128,-1,51
 481 289 481 289 482.5 299.5 c 128,-1,52
 484 310 484 310 486 319 c 2,53,-1
 497 382 l 1,54,55
 521 530 521 530 527 625 c 1,56,57
 531 642 531 642 545.5 654.5 c 128,-1,58
 560 667 560 667 575 667 c 0,0,1
EndSplineSet
Position2: "'cpsp' Capital Spacing lookup 0 subtable" dx=5 dy=0 dh=10 dv=0
EndChar

StartChar: X
Encoding: 88 88 60
Width: 601
GlyphClass: 2
Flags: W
LayerCount: 2
Fore
SplineSet
63 -5 m 0,0,1
 29 -5 29 -5 29 24 c 0,2,3
 29 40 29 40 37 56 c 1,4,5
 45 65 45 65 113.5 140.5 c 128,-1,6
 182 216 182 216 240 288 c 1,7,8
 104 500 104 500 67 565 c 1,9,10
 62 577 62 577 62 591.5 c 128,-1,11
 62 606 62 606 76.5 621 c 128,-1,12
 91 636 91 636 109.5 636 c 128,-1,13
 128 636 128 636 139 619 c 0,14,15
 239 455 239 455 300 360 c 1,16,17
 404 482 404 482 497 632 c 1,18,19
 514 662 514 662 545 662 c 0,20,21
 557 662 557 662 565.5 654.5 c 128,-1,22
 574 647 574 647 574 636 c 128,-1,23
 574 625 574 625 568 608 c 1,24,25
 493 483 493 483 344 295 c 1,26,27
 430 157 430 157 503 72 c 1,28,29
 511 56 511 56 511 42 c 128,-1,30
 511 28 511 28 496.5 13 c 128,-1,31
 482 -2 482 -2 464 -2 c 128,-1,32
 446 -2 446 -2 433 8 c 1,33,34
 388 65 388 65 283 224 c 1,35,36
 216 145 216 145 92 7 c 1,37,38
 76 -5 76 -5 63 -5 c 0,0,1
EndSplineSet
Position2: "'cpsp' Capital Spacing lookup 0 subtable" dx=5 dy=0 dh=10 dv=0
EndChar

StartChar: Y
Encoding: 89 89 61
Width: 442
GlyphClass: 2
Flags: W
LayerCount: 2
Fore
SplineSet
178 242 m 1,0,-1
 179 293 l 2,1,2
 179 319 179 319 162.5 344 c 128,-1,3
 146 369 146 369 83 489 c 128,-1,4
 20 609 20 609 20 624.5 c 128,-1,5
 20 640 20 640 33 652.5 c 128,-1,6
 46 665 46 665 58.5 665 c 128,-1,7
 71 665 71 665 88.5 642 c 128,-1,8
 106 619 106 619 157.5 521 c 128,-1,9
 209 423 209 423 217 413 c 1,10,11
 313 583 313 583 371 653 c 1,12,13
 385 666 385 666 393.5 666 c 128,-1,14
 402 666 402 666 406 664 c 0,15,16
 430 654 430 654 430 637.5 c 128,-1,17
 430 621 430 621 422 609 c 256,18,19
 414 597 414 597 378 546 c 0,20,21
 325 472 325 472 286.5 396.5 c 128,-1,22
 248 321 248 321 248 304 c 2,23,-1
 248 121 l 1,24,-1
 251 41 l 2,25,26
 251 19 251 19 239 10.5 c 128,-1,27
 227 2 227 2 209.5 2 c 128,-1,28
 192 2 192 2 186 21 c 128,-1,29
 180 40 180 40 179 71 c 128,-1,30
 178 102 178 102 178 162 c 2,31,-1
 178 242 l 1,0,-1
EndSplineSet
Position2: "'cpsp' Capital Spacing lookup 0 subtable" dx=5 dy=0 dh=10 dv=0
EndChar

StartChar: Z
Encoding: 90 90 62
Width: 507
GlyphClass: 2
Flags: W
LayerCount: 2
Fore
SplineSet
229 0 m 2,0,-1
 77 -4 l 2,1,2
 75 -4 75 -4 66.5 -4 c 128,-1,3
 58 -4 58 -4 51 3.5 c 128,-1,4
 44 11 44 11 44 29 c 1,5,6
 58 106 58 106 84 151.5 c 128,-1,7
 110 197 110 197 156.5 250 c 128,-1,8
 203 303 203 303 216 319 c 1,9,10
 92 340 92 340 92 379 c 0,11,12
 92 400 92 400 105.5 413.5 c 128,-1,13
 119 427 119 427 128 427 c 128,-1,14
 137 427 137 427 186.5 413.5 c 128,-1,15
 236 400 236 400 280 396 c 1,16,17
 283 401 283 401 301 424 c 128,-1,18
 319 447 319 447 334 466 c 0,19,20
 371 515 371 515 397 563 c 1,21,22
 278 589 278 589 71 589 c 0,23,24
 37 589 37 589 37 620 c 0,25,26
 37 631 37 631 52 645.5 c 128,-1,27
 67 660 67 660 88.5 662 c 128,-1,28
 110 664 110 664 163 664 c 128,-1,29
 216 664 216 664 323 650 c 0,30,31
 478 630 478 630 487 594 c 0,32,33
 488 591 488 591 488 580.5 c 128,-1,34
 488 570 488 570 471 538 c 0,35,36
 448 493 448 493 381 406 c 0,37,38
 372 394 372 394 367 388 c 1,39,40
 371 388 371 388 385.5 388.5 c 128,-1,41
 400 389 400 389 405 388.5 c 128,-1,42
 410 388 410 388 419 386 c 0,43,44
 439 380 439 380 439 353.5 c 128,-1,45
 439 327 439 327 412.5 317.5 c 128,-1,46
 386 308 386 308 368.5 308 c 128,-1,47
 351 308 351 308 343 308 c 2,48,-1
 307 312 l 1,49,50
 242 239 242 239 213 203 c 1,51,52
 164 139 164 139 143 76 c 1,53,-1
 280 72 l 2,54,55
 311 72 311 72 350 75 c 2,56,-1
 405 80 l 2,57,58
 413 81 413 81 421.5 81 c 128,-1,59
 430 81 430 81 442 80 c 0,60,61
 468 78 468 78 474 45 c 0,62,63
 478 20 478 20 449 10 c 0,64,65
 417 -1 417 -1 384 -1.5 c 128,-1,66
 351 -2 351 -2 334 -2 c 2,67,-1
 251 0 l 2,68,69
 241 0 241 0 229 0 c 2,0,-1
EndSplineSet
Position2: "'cpsp' Capital Spacing lookup 0 subtable" dx=5 dy=0 dh=10 dv=0
EndChar

StartChar: bracketleft
Encoding: 91 91 63
Width: 303
GlyphClass: 2
Flags: W
LayerCount: 2
Fore
SplineSet
140 13 m 1,0,1
 144 14 144 14 166 14 c 0,2,3
 240 14 240 14 240 -14 c 0,4,5
 240 -67 240 -67 144 -67 c 0,6,7
 84 -67 84 -67 71 -51 c 0,8,9
 64 -43 64 -43 64 -29 c 2,10,-1
 64 312 l 1,11,-1
 61 397 l 1,12,-1
 61 701 l 1,13,14
 63 736 63 736 84.5 748 c 128,-1,15
 106 760 106 760 156 760 c 2,16,-1
 172 760 l 2,17,18
 257 760 257 760 257 724 c 0,19,20
 257 679 257 679 190 679 c 2,21,-1
 157 679 l 1,22,23
 148 681 148 681 140 679 c 1,24,25
 143 606 143 606 143 500 c 2,26,27
 143 500 143 500 140 13 c 1,0,1
EndSplineSet
EndChar

StartChar: backslash
Encoding: 92 92 64
Width: 420
GlyphClass: 2
Flags: W
LayerCount: 2
Fore
SplineSet
353 -38 m 0,0,1
 326 -38 326 -38 312 -12 c 1,2,3
 262 104 262 104 175 333.5 c 128,-1,4
 88 563 88 563 28 701 c 0,5,6
 25 710 25 710 25 719.5 c 128,-1,7
 25 729 25 729 32.5 736.5 c 128,-1,8
 40 744 40 744 50 744 c 0,9,10
 72 744 72 744 89 721 c 1,11,12
 146 588 146 588 234.5 363 c 128,-1,13
 323 138 323 138 351.5 68 c 128,-1,14
 380 -2 380 -2 380 -13.5 c 128,-1,15
 380 -25 380 -25 372.5 -31.5 c 128,-1,16
 365 -38 365 -38 353 -38 c 0,0,1
EndSplineSet
EndChar

StartChar: bracketright
Encoding: 93 93 65
Width: 296
GlyphClass: 2
Flags: W
LayerCount: 2
Fore
SplineSet
145 760 m 2,0,1
 196 760 196 760 217.5 748 c 128,-1,2
 239 736 239 736 239 701 c 2,3,-1
 239 -29 l 2,4,5
 239 -46 239 -46 225.5 -55 c 128,-1,6
 212 -64 212 -64 197 -65.5 c 128,-1,7
 182 -67 182 -67 157 -67 c 0,8,9
 61 -67 61 -67 61 -16 c 0,10,11
 61 14 61 14 136 14 c 0,12,13
 157 14 157 14 161 13 c 1,14,-1
 161 457 l 1,15,16
 160 531 160 531 160 586.5 c 128,-1,17
 160 642 160 642 161 679 c 1,18,19
 143 681 143 681 132 680 c 128,-1,20
 121 679 121 679 112 679 c 0,21,22
 44 679 44 679 44 721 c 0,23,24
 44 760 44 760 133 760 c 2,25,-1
 145 760 l 2,0,1
EndSplineSet
EndChar

StartChar: asciicircum
Encoding: 94 94 66
Width: 370
GlyphClass: 2
Flags: W
LayerCount: 2
Fore
SplineSet
303 620 m 0,0,1
 303 606 303 606 291 596 c 128,-1,2
 279 586 279 586 269 586.5 c 128,-1,3
 259 587 259 587 228 609.5 c 128,-1,4
 197 632 197 632 180 653 c 1,5,6
 115 588 115 588 95.5 588.5 c 128,-1,7
 76 589 76 589 67 600.5 c 128,-1,8
 58 612 58 612 58.5 627.5 c 128,-1,9
 59 643 59 643 111 682 c 128,-1,10
 163 721 163 721 185.5 720.5 c 128,-1,11
 208 720 208 720 255.5 681.5 c 128,-1,12
 303 643 303 643 303 620 c 0,0,1
EndSplineSet
EndChar

StartChar: underscore
Encoding: 95 95 67
Width: 571
GlyphClass: 2
Flags: W
LayerCount: 2
Fore
SplineSet
124 -60 m 2,0,1
 83 -60 83 -60 55 -60 c 0,2,3
 31 -60 31 -60 31 -33 c 0,4,5
 31 -19 31 -19 40 -10 c 128,-1,6
 49 -1 49 -1 67 -1 c 0,7,8
 216 -2 216 -2 328.5 -2 c 128,-1,9
 441 -2 441 -2 516 -1 c 0,10,11
 541 -1 541 -1 541 -29 c 0,12,13
 541 -40 541 -40 528 -50 c 128,-1,14
 515 -60 515 -60 504 -60 c 0,15,16
 465 -61 465 -61 397 -61 c 2,17,-1
 124 -60 l 2,0,1
EndSplineSet
EndChar

StartChar: grave
Encoding: 96 96 68
Width: 220
GlyphClass: 2
Flags: W
LayerCount: 2
Fore
SplineSet
172 563 m 0,0,1
 190 554 190 554 190 525 c 0,2,3
 190 517 190 517 184 511 c 1,4,5
 175 497 175 497 161.5 497 c 128,-1,6
 148 497 148 497 129.5 507 c 128,-1,7
 111 517 111 517 83.5 544 c 128,-1,8
 56 571 56 571 43 596.5 c 128,-1,9
 30 622 30 622 30 631.5 c 128,-1,10
 30 641 30 641 31.5 649.5 c 128,-1,11
 33 658 33 658 44.5 664.5 c 128,-1,12
 56 671 56 671 63 671 c 128,-1,13
 70 671 70 671 74 670 c 0,14,15
 89 666 89 666 115 622.5 c 128,-1,16
 141 579 141 579 172 563 c 0,0,1
EndSplineSet
EndChar

StartChar: a
Encoding: 97 97 69
Width: 440
GlyphClass: 2
Flags: W
LayerCount: 2
Fore
SplineSet
110 27 m 1,0,1
 106 2 106 2 74.5 2 c 128,-1,2
 43 2 43 2 43 28 c 0,3,4
 43 87 43 87 101 268 c 0,5,6
 127 351 127 351 159 406 c 128,-1,7
 191 461 191 461 221 461 c 0,8,9
 237 461 237 461 249 442 c 128,-1,10
 261 423 261 423 292.5 355.5 c 128,-1,11
 324 288 324 288 345 212.5 c 128,-1,12
 366 137 366 137 391 28 c 1,13,14
 391 15 391 15 382 7.5 c 128,-1,15
 373 0 373 0 360 0 c 0,16,17
 328 0 328 0 320 28 c 2,18,-1
 285 165 l 1,19,20
 197 165 197 165 144 179 c 1,21,22
 114 69 114 69 110 27 c 1,0,1
218 369 m 1,23,24
 185 313 185 313 164 244 c 1,25,26
 208 232 208 232 268 232 c 1,27,28
 249 301 249 301 218 369 c 1,23,24
EndSplineSet
Substitution2: "Single Substitution lookup 18 subtable" ordfeminine
Substitution2: "'aalt' Access All Alternates lookup 0 subtable" ordfeminine
EndChar

StartChar: b
Encoding: 98 98 70
Width: 400
GlyphClass: 2
Flags: W
LayerCount: 2
Fore
SplineSet
62 426 m 128,-1,1
 84 463 84 463 152 463 c 128,-1,2
 220 463 220 463 263.5 430.5 c 128,-1,3
 307 398 307 398 307 345 c 128,-1,4
 307 292 307 292 276 260 c 1,5,6
 311 252 311 252 334 216.5 c 128,-1,7
 357 181 357 181 357 142 c 0,8,9
 357 78 357 78 312 34 c 1,10,11
 280 0 280 0 44 0 c 1,12,13
 44 5 44 5 43 43 c 0,14,15
 40 157 40 157 40 299 c 0,16,0
 40 389 40 389 62 426 c 128,-1,1
110 350 m 2,17,-1
 110 265 l 1,18,19
 165 265 165 265 205.5 283.5 c 128,-1,20
 246 302 246 302 246 345 c 0,21,22
 246 369 246 369 222 384.5 c 128,-1,23
 198 400 198 400 165 400 c 128,-1,24
 132 400 132 400 121 388 c 128,-1,25
 110 376 110 376 110 350 c 2,17,-1
212 212 m 0,26,27
 166 212 166 212 109 204 c 1,28,29
 108 183 108 183 108 147.5 c 128,-1,30
 108 112 108 112 113 61 c 1,31,32
 121 61 121 61 142 61 c 128,-1,33
 163 61 163 61 204 67 c 0,34,35
 295 82 295 82 295 142 c 0,36,37
 295 212 295 212 212 212 c 0,26,27
EndSplineSet
EndChar

StartChar: c
Encoding: 99 99 71
Width: 450
GlyphClass: 2
Flags: W
LayerCount: 2
Fore
SplineSet
357 376 m 1,0,-1
 276 386 l 1,1,2
 114 386 114 386 114 224 c 0,3,4
 114 142 114 142 163 94 c 1,5,6
 187 69 187 69 213 69 c 128,-1,7
 239 69 239 69 304 92 c 128,-1,8
 369 115 369 115 374 115 c 0,9,10
 401 115 401 115 401 90 c 0,11,12
 401 69 401 69 378 54 c 1,13,14
 253 1 253 1 197 1 c 0,15,16
 163 1 163 1 130 23 c 128,-1,17
 97 45 97 45 78 80 c 0,18,19
 39 149 39 149 39 228 c 0,20,21
 39 334 39 334 103 396 c 128,-1,22
 167 458 167 458 267 458 c 0,23,24
 325 458 325 458 382 439 c 1,25,-1
 382 438 l 1,26,27
 400 427 400 427 400 413 c 128,-1,28
 400 399 400 399 385.5 387.5 c 128,-1,29
 371 376 371 376 357 376 c 1,0,-1
EndSplineSet
EndChar

StartChar: d
Encoding: 100 100 72
Width: 440
GlyphClass: 2
Flags: W
LayerCount: 2
Fore
SplineSet
65 26 m 1,0,1
 52 36 52 36 52 46.5 c 128,-1,2
 52 57 52 57 59 66 c 1,3,4
 49 143 49 143 45 244 c 128,-1,5
 41 345 41 345 41 358.5 c 128,-1,6
 41 372 41 372 41.5 387.5 c 128,-1,7
 42 403 42 403 46 422 c 0,8,9
 53 460 53 460 92 460 c 0,10,11
 195 460 195 460 290.5 367 c 128,-1,12
 386 274 386 274 386 165 c 0,13,14
 386 83 386 83 335 41.5 c 128,-1,15
 284 0 284 0 196 0 c 0,16,17
 179 0 179 0 148 4 c 1,18,19
 148 -12 148 -12 135 -24 c 128,-1,20
 122 -36 122 -36 105 -36 c 0,21,22
 79 -36 79 -36 74 -10 c 1,23,-1
 65 26 l 1,0,1
116 386 m 1,24,25
 115 375 115 375 115 348 c 128,-1,26
 115 321 115 321 120.5 228.5 c 128,-1,27
 126 136 126 136 135 71 c 1,28,29
 143 69 143 69 197 69 c 0,30,31
 314 69 314 69 314 135 c 0,32,33
 314 219 314 219 260.5 285 c 128,-1,34
 207 351 207 351 116 386 c 1,24,25
EndSplineSet
EndChar

StartChar: e
Encoding: 101 101 73
Width: 380
GlyphClass: 2
Flags: W
LayerCount: 2
Fore
SplineSet
121 225 m 1,0,-1
 123 94 l 2,1,2
 123 68 123 68 122 66 c 1,3,-1
 295 69 l 1,4,5
 324 66 324 66 324 44 c 0,6,7
 324 2 324 2 285 2 c 2,8,-1
 89 0 l 2,9,10
 71 0 71 0 62.5 12.5 c 128,-1,11
 54 25 54 25 53 39 c 128,-1,12
 52 53 52 53 52 70 c 2,13,-1
 52 236 l 1,14,15
 39 243 39 243 39 257 c 128,-1,16
 39 271 39 271 50 282 c 1,17,18
 47 360 47 360 47 424 c 0,19,20
 47 461 47 461 92 462 c 0,21,22
 104 462 104 462 120 462 c 2,23,-1
 295 459 l 1,24,-1
 296 459 l 1,25,26
 328 455 328 455 328 429 c 0,27,28
 328 409 328 409 316 402 c 0,29,30
 290 388 290 388 191 388 c 0,31,32
 154 388 154 388 117 391 c 1,33,34
 117 301 117 301 118 290 c 1,35,36
 157 289 157 289 271 289 c 1,37,38
 302 285 302 285 302 261 c 0,39,40
 302 249 302 249 292 238 c 128,-1,41
 282 227 282 227 270.5 225.5 c 128,-1,42
 259 224 259 224 221.5 224 c 128,-1,43
 184 224 184 224 121 225 c 1,0,-1
EndSplineSet
EndChar

StartChar: f
Encoding: 102 102 74
Width: 350
GlyphClass: 2
Flags: W
LayerCount: 2
Fore
SplineSet
248 211 m 2,0,-1
 124 211 l 1,1,2
 124 118 124 118 127 45 c 1,3,4
 127 -2 127 -2 96 -2 c 128,-1,5
 65 -2 65 -2 60 36 c 0,6,7
 58 45 58 45 58 118 c 2,8,-1
 58 276 l 2,9,10
 58 362 58 362 57 388 c 1,11,12
 31 391 31 391 31 426 c 0,13,14
 31 434 31 434 40 446 c 0,15,16
 52 461 52 461 64.5 461 c 128,-1,17
 77 461 77 461 109.5 458 c 128,-1,18
 142 455 142 455 258 455 c 0,19,20
 316 455 316 455 316 423 c 0,21,22
 316 398 316 398 300 394 c 0,23,24
 295 392 295 392 293 390.5 c 128,-1,25
 291 389 291 389 284 388.5 c 128,-1,26
 277 388 277 388 276 388 c 0,27,28
 271 386 271 386 252.5 385 c 128,-1,29
 234 384 234 384 201.5 384 c 128,-1,30
 169 384 169 384 124 387 c 1,31,-1
 124 279 l 1,32,-1
 254 279 l 2,33,34
 263 279 263 279 272 269 c 128,-1,35
 281 259 281 259 281 245.5 c 128,-1,36
 281 232 281 232 272.5 221.5 c 128,-1,37
 264 211 264 211 248 211 c 2,0,-1
EndSplineSet
EndChar

StartChar: g
Encoding: 103 103 75
Width: 420
GlyphClass: 2
Flags: W
LayerCount: 2
Fore
SplineSet
262 461 m 0,0,1
 304 461 304 461 340 443 c 128,-1,2
 376 425 376 425 376 399 c 0,3,4
 376 385 376 385 365 375 c 128,-1,5
 354 365 354 365 339 365 c 128,-1,6
 324 365 324 365 305 376.5 c 128,-1,7
 286 388 286 388 255 388 c 0,8,9
 191 388 191 388 151 335 c 128,-1,10
 111 282 111 282 111 218.5 c 128,-1,11
 111 155 111 155 139 111 c 128,-1,12
 167 67 167 67 204 67 c 128,-1,13
 241 67 241 67 264.5 86.5 c 128,-1,14
 288 106 288 106 288 136 c 0,15,16
 288 188 288 188 269 188 c 0,17,18
 227 188 227 188 211 193.5 c 128,-1,19
 195 199 195 199 195 218 c 0,20,21
 195 254 195 254 227 257 c 0,22,23
 241 258 241 258 263 258 c 128,-1,24
 285 258 285 258 308 250 c 0,25,26
 340 238 340 238 347 212 c 0,27,28
 362 150 362 150 362 96 c 0,29,30
 362 90 362 90 362 73 c 128,-1,31
 362 56 362 56 361.5 45.5 c 128,-1,32
 361 35 361 35 358.5 21.5 c 128,-1,33
 356 8 356 8 349.5 3 c 128,-1,34
 343 -2 343 -2 327.5 -2 c 128,-1,35
 312 -2 312 -2 304 4.5 c 128,-1,36
 296 11 296 11 293 28 c 1,37,38
 246 -3 246 -3 199 -3 c 128,-1,39
 152 -3 152 -3 113.5 30.5 c 128,-1,40
 75 64 75 64 56 114 c 128,-1,41
 37 164 37 164 37 214 c 0,42,43
 37 325 37 325 101 393 c 128,-1,44
 165 461 165 461 262 461 c 0,0,1
EndSplineSet
EndChar

StartChar: h
Encoding: 104 104 76
Width: 380
GlyphClass: 2
Flags: W
LayerCount: 2
Fore
SplineSet
335 204 m 1,0,-1
 334 56 l 2,1,2
 334 0 334 0 298 0 c 0,3,4
 281 0 281 0 272.5 7 c 128,-1,5
 264 14 264 14 265 29 c 0,6,7
 269 82 269 82 269 198 c 1,8,9
 252 196 252 196 216.5 196 c 128,-1,10
 181 196 181 196 106 204 c 1,11,-1
 106 183 l 2,12,13
 106 162 106 162 114 31 c 0,14,15
 115 15 115 15 102.5 7.5 c 128,-1,16
 90 0 90 0 77 0 c 128,-1,17
 64 0 64 0 56.5 7.5 c 128,-1,18
 49 15 49 15 48 25 c 0,19,20
 37 129 37 129 37 182.5 c 128,-1,21
 37 236 37 236 38 255 c 2,22,-1
 42 422 l 2,23,24
 43 434 43 434 55.5 442.5 c 128,-1,25
 68 451 68 451 82 451 c 0,26,27
 108 451 108 451 108 429 c 2,28,-1
 106 272 l 1,29,30
 156 264 156 264 193 264 c 128,-1,31
 230 264 230 264 238 264 c 2,32,-1
 269 264 l 1,33,34
 266 319 266 319 266 430 c 0,35,36
 266 444 266 444 279.5 453 c 128,-1,37
 293 462 293 462 308.5 462 c 128,-1,38
 324 462 324 462 330 448 c 128,-1,39
 336 434 336 434 335 421 c 1,40,-1
 335 204 l 1,0,-1
EndSplineSet
EndChar

StartChar: i
Encoding: 105 105 77
Width: 150
GlyphClass: 2
Flags: W
LayerCount: 2
Fore
SplineSet
61 0 m 0,0,1
 33 0 33 0 33 24 c 2,2,-1
 37 431 l 2,3,4
 37 445 37 445 47 453.5 c 128,-1,5
 57 462 57 462 71.5 462 c 128,-1,6
 86 462 86 462 96.5 455 c 128,-1,7
 107 448 107 448 108 431.5 c 128,-1,8
 109 415 109 415 109 358 c 0,9,10
 109 91 109 91 105 33 c 0,11,12
 104 20 104 20 89.5 10 c 128,-1,13
 75 0 75 0 61 0 c 0,0,1
EndSplineSet
Substitution2: "'locl' Localized Forms in Latin lookup 9 subtable" i.loclTRK
Substitution2: "'locl' Localized Forms in Latin lookup 8 subtable" i.loclTRK
Substitution2: "'locl' Localized Forms in Latin lookup 7 subtable" i.loclTRK
Substitution2: "'locl' Localized Forms in Latin lookup 6 subtable" i.loclTRK
Substitution2: "'locl' Localized Forms in Latin lookup 5 subtable" i.loclTRK
Substitution2: "'aalt' Access All Alternates lookup 0 subtable" i.loclTRK
EndChar

StartChar: j
Encoding: 106 106 78
Width: 300
GlyphClass: 2
Flags: W
LayerCount: 2
Fore
SplineSet
194 457.5 m 128,-1,1
 209 467 209 467 228.5 467 c 128,-1,2
 248 467 248 467 250 453 c 0,3,4
 267 286 267 286 267 222 c 128,-1,5
 267 158 267 158 265 130 c 0,6,7
 259 69 259 69 233 34.5 c 128,-1,8
 207 0 207 0 147 0 c 128,-1,9
 87 0 87 0 60 36 c 128,-1,10
 33 72 33 72 24 135 c 1,11,12
 24 147 24 147 37.5 156.5 c 128,-1,13
 51 166 51 166 64.5 166 c 128,-1,14
 78 166 78 166 82 160 c 128,-1,15
 86 154 86 154 91.5 126.5 c 128,-1,16
 97 99 97 99 115 80.5 c 128,-1,17
 133 62 133 62 150 62 c 0,18,19
 178 62 178 62 188 87 c 1,20,21
 203 133 203 133 203 199 c 128,-1,22
 203 265 203 265 191 342 c 128,-1,23
 179 419 179 419 178 437 c 1,24,0
 179 448 179 448 194 457.5 c 128,-1,1
EndSplineSet
EndChar

StartChar: k
Encoding: 107 107 79
Width: 450
GlyphClass: 2
Flags: W
LayerCount: 2
Fore
SplineSet
64 84 m 2,0,1
 64 138 64 138 58 251.5 c 128,-1,2
 52 365 52 365 48 393 c 128,-1,3
 44 421 44 421 44 432 c 128,-1,4
 44 443 44 443 56 452.5 c 128,-1,5
 68 462 68 462 85 462 c 128,-1,6
 102 462 102 462 111 444 c 0,7,8
 132 398 132 398 132 252 c 1,9,10
 194 303 194 303 232 343.5 c 128,-1,11
 270 384 270 384 309 442 c 0,12,13
 322 463 322 463 342 463 c 0,14,15
 380 463 380 463 380 438 c 0,16,17
 380 390 380 390 251 258 c 1,18,19
 306 208 306 208 354.5 132.5 c 128,-1,20
 403 57 403 57 403 38.5 c 128,-1,21
 403 20 403 20 392.5 10.5 c 128,-1,22
 382 1 382 1 368 1 c 128,-1,23
 354 1 354 1 335.5 25.5 c 128,-1,24
 317 50 317 50 291.5 91.5 c 128,-1,25
 266 133 266 133 246.5 157.5 c 128,-1,26
 227 182 227 182 193 211 c 1,27,28
 164 185 164 185 134 164 c 1,29,30
 137 47 137 47 137 33 c 0,31,32
 137 0 137 0 93 0 c 0,33,34
 63 0 63 0 64 31 c 1,35,-1
 64 84 l 2,0,1
EndSplineSet
EndChar

StartChar: l
Encoding: 108 108 80
Width: 300
GlyphClass: 2
Flags: W
LayerCount: 2
Fore
SplineSet
158 -1 m 2,0,-1
 63 0 l 2,1,2
 38 0 38 0 35 15 c 0,3,4
 29 57 29 57 29 146 c 1,5,-1
 36 436 l 2,6,7
 36 461 36 461 74 461 c 0,8,9
 93 461 93 461 105 452 c 128,-1,10
 117 443 117 443 117 427 c 0,11,12
 115 385 115 385 106 311 c 0,13,14
 95 214 95 214 95 169.5 c 128,-1,15
 95 125 95 125 98 63 c 1,16,-1
 246 72 l 1,17,18
 279 72 279 72 279 38 c 0,19,20
 279 10 279 10 258 6 c 0,21,22
 213 -1 213 -1 158 -1 c 2,0,-1
EndSplineSet
EndChar

StartChar: m
Encoding: 109 109 81
Width: 480
GlyphClass: 2
Flags: W
LayerCount: 2
Fore
SplineSet
413 485 m 0,0,1
 442 485 442 485 442 457 c 0,2,3
 445 279 445 279 445 42 c 0,4,5
 445 26 445 26 433.5 13 c 128,-1,6
 422 0 422 0 397 0 c 128,-1,7
 372 0 372 0 372 33 c 0,8,9
 372 139 372 139 370.5 190.5 c 128,-1,10
 369 242 369 242 369 302 c 1,11,12
 332 257 332 257 297.5 239 c 128,-1,13
 263 221 263 221 206 221 c 128,-1,14
 149 221 149 221 117 252 c 1,15,16
 117 73 117 73 115 42 c 0,17,18
 113 0 113 0 68 0 c 0,19,20
 41 0 41 0 41 29 c 2,21,-1
 44 214 l 1,22,23
 44 304 44 304 44 355 c 2,24,-1
 44 411 l 2,25,26
 44 425 44 425 55 438 c 128,-1,27
 66 451 66 451 80.5 451 c 128,-1,28
 95 451 95 451 106.5 444.5 c 128,-1,29
 118 438 118 438 119 425 c 0,30,31
 121 374 121 374 148.5 334 c 128,-1,32
 176 294 176 294 211 294 c 0,33,34
 312 294 312 294 351 403 c 0,35,36
 353 408 353 408 359.5 429 c 128,-1,37
 366 450 366 450 370 458 c 128,-1,38
 374 466 374 466 385.5 475.5 c 128,-1,39
 397 485 397 485 413 485 c 0,0,1
EndSplineSet
EndChar

StartChar: n
Encoding: 110 110 82
Width: 440
GlyphClass: 2
Flags: W
LayerCount: 2
Fore
SplineSet
115 312 m 1,0,-1
 104 69 l 2,1,2
 103 37 103 37 102 26 c 0,3,4
 98 -1 98 -1 67 -1 c 0,5,6
 55 -1 55 -1 45.5 7.5 c 128,-1,7
 36 16 36 16 35 29 c 1,8,9
 43 289 43 289 43 309.5 c 128,-1,10
 43 330 43 330 43 355 c 128,-1,11
 43 380 43 380 48 400 c 0,12,13
 55 427 55 427 84 427 c 0,14,15
 98 427 98 427 119 408 c 128,-1,16
 140 389 140 389 180 338 c 1,17,18
 275 221 275 221 324 117 c 1,19,20
 322 259 322 259 317 333.5 c 128,-1,21
 312 408 312 408 312 415 c 128,-1,22
 312 422 312 422 312 423 c 0,23,24
 319 461 319 461 353 461 c 0,25,26
 366 461 366 461 377 449.5 c 128,-1,27
 388 438 388 438 388 421 c 2,28,-1
 393 49 l 2,29,30
 393 -3 393 -3 351 -3 c 0,31,32
 326 -3 326 -3 312 14.5 c 128,-1,33
 298 32 298 32 292 42 c 128,-1,34
 286 52 286 52 274 74 c 0,35,36
 197 219 197 219 115 312 c 1,0,-1
EndSplineSet
Substitution2: "'sups' Superscript lookup 10 subtable" nsuperior
Substitution2: "'aalt' Access All Alternates lookup 0 subtable" nsuperior
EndChar

StartChar: o
Encoding: 111 111 83
Width: 450
GlyphClass: 2
Flags: W
LayerCount: 2
Fore
SplineSet
237 457 m 0,0,1
 311 457 311 457 356.5 400 c 128,-1,2
 402 343 402 343 402 244 c 128,-1,3
 402 145 402 145 352 73 c 128,-1,4
 302 1 302 1 225 1 c 0,5,6
 141 1 141 1 88 73 c 128,-1,7
 35 145 35 145 35 249 c 128,-1,8
 35 353 35 353 90 405 c 128,-1,9
 145 457 145 457 237 457 c 0,0,1
307 350.5 m 128,-1,11
 284 388 284 388 226 388 c 128,-1,12
 168 388 168 388 136 352.5 c 128,-1,13
 104 317 104 317 104 251.5 c 128,-1,14
 104 186 104 186 138 130 c 128,-1,15
 172 74 172 74 232 74 c 0,16,17
 266 74 266 74 290 103 c 0,18,19
 330 153 330 153 330 233 c 128,-1,10
 330 313 330 313 307 350.5 c 128,-1,11
EndSplineSet
Substitution2: "Single Substitution lookup 18 subtable" ordmasculine
Substitution2: "'aalt' Access All Alternates lookup 0 subtable" ordmasculine
EndChar

StartChar: p
Encoding: 112 112 84
Width: 370
GlyphClass: 2
Flags: W
LayerCount: 2
Fore
SplineSet
161 462 m 0,0,1
 233 462 233 462 276.5 430.5 c 128,-1,2
 320 399 320 399 320 346 c 0,3,4
 320 264 320 264 269 225 c 0,5,6
 232 197 232 197 169 197 c 0,7,8
 145 197 145 197 117 201 c 1,9,10
 120 142 120 142 120 98.5 c 128,-1,11
 120 55 120 55 118 23 c 0,12,13
 116 0 116 0 89 0 c 128,-1,14
 62 0 62 0 53.5 11 c 128,-1,15
 45 22 45 22 45 44 c 2,16,-1
 45 420 l 1,17,18
 47 462 47 462 161 462 c 0,0,1
115 391 m 1,19,20
 113 361 113 361 113 326.5 c 128,-1,21
 113 292 113 292 113 272 c 1,22,23
 139 269 139 269 171 269 c 128,-1,24
 203 269 203 269 224 281 c 0,25,26
 253 297 253 297 253 341 c 0,27,28
 253 345 253 345 253 350 c 0,29,30
 251 376 251 376 205 388 c 0,31,32
 179 395 179 395 157 395 c 128,-1,33
 135 395 135 395 115 391 c 1,19,20
EndSplineSet
EndChar

StartChar: q
Encoding: 113 113 85
Width: 520
GlyphClass: 2
Flags: W
LayerCount: 2
Fore
SplineSet
98 404.5 m 128,-1,1
 151 462 151 462 248 462 c 128,-1,2
 345 462 345 462 408.5 395 c 128,-1,3
 472 328 472 328 472 220 c 0,4,5
 472 156 472 156 431 97 c 1,6,7
 472 57 472 57 472 41.5 c 128,-1,8
 472 26 472 26 461 14 c 128,-1,9
 450 2 450 2 439 2 c 0,10,11
 421 2 421 2 385 35 c 2,12,-1
 373 46 l 1,13,14
 326 1 326 1 243 1 c 0,15,16
 190 1 190 1 149.5 23 c 128,-1,17
 109 45 109 45 88 80 c 0,18,19
 45 151 45 151 45 237 c 0,20,0
 45 347 45 347 98 404.5 c 128,-1,1
242 397 m 0,21,22
 207 397 207 397 180.5 379 c 128,-1,23
 154 361 154 361 142 334 c 1,24,25
 117 283 117 283 117 246 c 0,26,27
 117 144 117 144 174 95 c 0,28,29
 206 68 206 68 247.5 68 c 128,-1,30
 289 68 289 68 337 87 c 1,31,32
 320 104 320 104 309 115 c 128,-1,33
 298 126 298 126 290 135 c 128,-1,34
 282 144 282 144 277.5 150 c 128,-1,35
 273 156 273 156 268.5 164 c 128,-1,36
 264 172 264 172 263 178 c 128,-1,37
 262 184 262 184 262 190 c 0,38,39
 263 203 263 203 275 212.5 c 128,-1,40
 287 222 287 222 297.5 222 c 128,-1,41
 308 222 308 222 325 210 c 128,-1,42
 342 198 342 198 388 140 c 1,43,44
 409 171 409 171 409 217 c 0,45,46
 409 294 409 294 361.5 345.5 c 128,-1,47
 314 397 314 397 242 397 c 0,21,22
EndSplineSet
EndChar

StartChar: r
Encoding: 114 114 86
Width: 400
GlyphClass: 2
Flags: W
LayerCount: 2
Fore
SplineSet
115 37 m 2,0,1
 115 22 115 22 101 11 c 128,-1,2
 87 0 87 0 70 0 c 0,3,4
 48 0 48 0 48 20 c 1,5,6
 44 67 44 67 44 393 c 0,7,8
 44 425 44 425 82.5 443 c 128,-1,9
 121 461 121 461 185.5 461 c 128,-1,10
 250 461 250 461 298.5 429 c 128,-1,11
 347 397 347 397 347 352 c 0,12,13
 347 330 347 330 328 303 c 128,-1,14
 309 276 309 276 287.5 260.5 c 128,-1,15
 266 245 266 245 226 223 c 128,-1,16
 186 201 186 201 177 199 c 1,17,18
 240 159 240 159 289 112 c 128,-1,19
 338 65 338 65 338 38 c 128,-1,20
 338 11 338 11 314 3 c 0,21,22
 307 1 307 1 296 1 c 128,-1,23
 285 1 285 1 268 22.5 c 128,-1,24
 251 44 251 44 204 84.5 c 128,-1,25
 157 125 157 125 111 157 c 1,26,27
 113 77 113 77 115 38 c 1,28,-1
 115 37 l 2,0,1
111 246 m 1,29,30
 144 246 144 246 210 278.5 c 128,-1,31
 276 311 276 311 279 339 c 1,32,33
 279 366 279 366 249 379.5 c 128,-1,34
 219 393 219 393 186 393 c 0,35,36
 148 393 148 393 112 384 c 1,37,38
 111 336 111 336 111 246 c 1,29,30
EndSplineSet
EndChar

StartChar: s
Encoding: 115 115 87
Width: 400
GlyphClass: 2
Flags: W
LayerCount: 2
Fore
SplineSet
88 429.5 m 128,-1,1
 136 463 136 463 205.5 463 c 128,-1,2
 275 463 275 463 311 445 c 128,-1,3
 347 427 347 427 347 399 c 0,4,5
 347 386 347 386 338.5 377.5 c 128,-1,6
 330 369 330 369 318 369 c 128,-1,7
 306 369 306 369 270.5 385 c 128,-1,8
 235 401 235 401 206.5 401 c 128,-1,9
 178 401 178 401 146.5 385.5 c 128,-1,10
 115 370 115 370 115 347 c 128,-1,11
 115 324 115 324 153 306 c 128,-1,12
 191 288 191 288 243 275 c 128,-1,13
 295 262 295 262 312.5 249.5 c 128,-1,14
 330 237 330 237 337.5 229.5 c 128,-1,15
 345 222 345 222 353 200.5 c 128,-1,16
 361 179 361 179 361 145 c 0,17,18
 361 72 361 72 313.5 36.5 c 128,-1,19
 266 1 266 1 200.5 1 c 128,-1,20
 135 1 135 1 88 22 c 128,-1,21
 41 43 41 43 41 74 c 0,22,23
 41 90 41 90 54.5 102.5 c 128,-1,24
 68 115 68 115 83 109 c 0,25,26
 177 72 177 72 201 72 c 0,27,28
 244 72 244 72 267 93.5 c 128,-1,29
 290 115 290 115 290 148 c 128,-1,30
 290 181 290 181 264 198.5 c 128,-1,31
 238 216 238 216 201.5 224 c 128,-1,32
 165 232 165 232 128.5 242 c 128,-1,33
 92 252 92 252 66 277 c 128,-1,34
 40 302 40 302 40 349 c 128,-1,0
 40 396 40 396 88 429.5 c 128,-1,1
EndSplineSet
EndChar

StartChar: t
Encoding: 116 116 88
Width: 430
GlyphClass: 2
Flags: W
LayerCount: 2
Fore
SplineSet
240 401 m 1,0,-1
 238 164 l 2,1,2
 238 90 238 90 240 34 c 0,3,4
 241 19 241 19 227.5 9.5 c 128,-1,5
 214 0 214 0 200 0 c 0,6,7
 174 0 174 0 174 28 c 0,8,9
 171 137 171 137 171 235.5 c 128,-1,10
 171 334 171 334 177 398 c 1,11,12
 117 393 117 393 55 393 c 0,13,14
 24 393 24 393 24 419 c 0,15,16
 24 431 24 431 35.5 443 c 128,-1,17
 47 455 47 455 61 456 c 2,18,-1
 373 466 l 1,19,20
 400 460 400 460 400 440 c 0,21,22
 400 399 400 399 306 399 c 1,23,-1
 240 401 l 1,0,-1
EndSplineSet
EndChar

StartChar: u
Encoding: 117 117 89
Width: 450
GlyphClass: 2
Flags: W
LayerCount: 2
Fore
SplineSet
325 421 m 0,0,1
 324 425 324 425 324 434 c 128,-1,2
 324 443 324 443 336.5 453 c 128,-1,3
 349 463 349 463 362 463 c 128,-1,4
 375 463 375 463 385.5 455 c 128,-1,5
 396 447 396 447 397 437 c 0,6,7
 407 336 407 336 407 278 c 128,-1,8
 407 220 407 220 404 188 c 0,9,10
 397 91 397 91 355.5 45.5 c 128,-1,11
 314 0 314 0 228 0 c 0,12,13
 165 0 165 0 123 36.5 c 128,-1,14
 81 73 81 73 64 132 c 0,15,16
 38 221 38 221 38 330 c 0,17,18
 38 377 38 377 43 425 c 0,19,20
 44 439 44 439 58.5 448 c 128,-1,21
 73 457 73 457 85.5 457 c 128,-1,22
 98 457 98 457 106 449 c 128,-1,23
 114 441 114 441 113 428 c 0,24,25
 108 376 108 376 108 334.5 c 128,-1,26
 108 293 108 293 110 260 c 0,27,28
 116 180 116 180 147 123.5 c 128,-1,29
 178 67 178 67 228 67 c 0,30,31
 337 67 337 67 337 253 c 0,32,33
 337 364 337 364 325 421 c 0,0,1
EndSplineSet
EndChar

StartChar: v
Encoding: 118 118 90
Width: 460
GlyphClass: 2
Flags: W
LayerCount: 2
Fore
SplineSet
418 430 m 0,0,1
 418 420 418 420 408 399 c 2,2,-1
 390 361 l 2,3,4
 370 318 370 318 343.5 229 c 128,-1,5
 317 140 317 140 278 35 c 0,6,7
 265 0 265 0 238 0 c 0,8,9
 218 0 218 0 195 57 c 0,10,11
 135 204 135 204 61 341 c 0,12,13
 54 354 54 354 50 361.5 c 128,-1,14
 46 369 46 369 42 375.5 c 128,-1,15
 38 382 38 382 36.5 385.5 c 128,-1,16
 35 389 35 389 34 391.5 c 128,-1,17
 33 394 33 394 32.5 397 c 128,-1,18
 32 400 32 400 32 402 c 2,19,-1
 32 408 l 2,20,21
 32 420 32 420 45.5 432 c 128,-1,22
 59 444 59 444 72.5 444 c 128,-1,23
 86 444 86 444 95 437 c 128,-1,24
 104 430 104 430 113 414.5 c 128,-1,25
 122 399 122 399 129 384 c 0,26,27
 155 327 155 327 170 296 c 128,-1,28
 185 265 185 265 197.5 237 c 128,-1,29
 210 209 210 209 221.5 179 c 128,-1,30
 233 149 233 149 237 140 c 1,31,32
 244 165 244 165 280.5 267 c 128,-1,33
 317 369 317 369 332 404 c 0,34,35
 357 462 357 462 382 462 c 0,36,37
 387 462 387 462 392 460 c 0,38,39
 418 451 418 451 418 430 c 0,0,1
EndSplineSet
EndChar

StartChar: w
Encoding: 119 119 91
Width: 500
GlyphClass: 2
Flags: W
LayerCount: 2
Fore
SplineSet
26 413 m 1,0,1
 26 431 26 431 38 444.5 c 128,-1,2
 50 458 50 458 68 458 c 0,3,4
 89 458 89 458 95 431 c 1,5,6
 100 397 100 397 113 288 c 128,-1,7
 126 179 126 179 135 118 c 1,8,9
 152 149 152 149 169.5 187.5 c 128,-1,10
 187 226 187 226 195 242 c 0,11,12
 220 290 220 290 248 290 c 0,13,14
 269 290 269 290 290 239 c 1,15,16
 345 123 345 123 351 114 c 1,17,18
 390 292 390 292 406 435 c 0,19,20
 407 447 407 447 420.5 457.5 c 128,-1,21
 434 468 434 468 446 468 c 128,-1,22
 458 468 458 468 466 461.5 c 128,-1,23
 474 455 474 455 474 444 c 0,24,25
 474 390 474 390 400 28 c 0,26,27
 394 2 394 2 358 2 c 0,28,29
 341 2 341 2 331 19 c 0,30,31
 312 52 312 52 282.5 111.5 c 128,-1,32
 253 171 253 171 242 191 c 1,33,34
 199 90 199 90 171.5 45 c 128,-1,35
 144 0 144 0 113 0 c 0,36,37
 95 0 95 0 81.5 32 c 128,-1,38
 68 64 68 64 65.5 90.5 c 128,-1,39
 63 117 63 117 26 413 c 1,0,1
EndSplineSet
EndChar

StartChar: x
Encoding: 120 120 92
Width: 500
GlyphClass: 2
Flags: W
LayerCount: 2
Fore
SplineSet
50 59 m 0,0,1
 110 119 110 119 201 212 c 1,2,-1
 168 259 l 2,3,4
 147 289 147 289 122 321 c 0,5,6
 114 332 114 332 103.5 346.5 c 128,-1,7
 93 361 93 361 87 370.5 c 128,-1,8
 81 380 81 380 75.5 390 c 128,-1,9
 70 400 70 400 67.5 407.5 c 128,-1,10
 65 415 65 415 65 424.5 c 128,-1,11
 65 434 65 434 78 447 c 128,-1,12
 91 460 91 460 108 460 c 128,-1,13
 125 460 125 460 150 426 c 0,14,15
 164 407 164 407 176.5 388 c 128,-1,16
 189 369 189 369 212 333.5 c 128,-1,17
 235 298 235 298 255 269 c 1,18,19
 294 310 294 310 322 350 c 0,20,21
 330 363 330 363 351.5 396.5 c 128,-1,22
 373 430 373 430 379 438 c 0,23,24
 396 461 396 461 420 461 c 0,25,26
 432 461 432 461 440.5 450 c 128,-1,27
 449 439 449 439 449 431 c 0,28,29
 449 381 449 381 300 212 c 1,30,31
 319 185 319 185 353 146.5 c 128,-1,32
 387 108 387 108 406 83 c 128,-1,33
 425 58 425 58 425 43.5 c 128,-1,34
 425 29 425 29 412 18 c 128,-1,35
 399 7 399 7 384.5 7 c 128,-1,36
 370 7 370 7 329.5 50.5 c 128,-1,37
 289 94 289 94 245 154 c 1,38,39
 181 85 181 85 102 9 c 1,40,41
 85 0 85 0 72 0 c 128,-1,42
 59 0 59 0 49 10 c 1,43,44
 38 18 38 18 38 32.5 c 128,-1,45
 38 47 38 47 50 59 c 0,0,1
EndSplineSet
EndChar

StartChar: y
Encoding: 121 121 93
Width: 380
GlyphClass: 2
Flags: W
LayerCount: 2
Fore
SplineSet
309 465 m 0,0,1
 335 462 335 462 335 441 c 0,2,3
 335 415 335 415 308 372 c 0,4,5
 299 358 299 358 282 332.5 c 128,-1,6
 265 307 265 307 258.5 296.5 c 128,-1,7
 252 286 252 286 237.5 266 c 128,-1,8
 223 246 223 246 213 229 c 1,9,-1
 213 142 l 2,10,11
 213 52 213 52 207 26 c 128,-1,12
 201 0 201 0 170 0 c 0,13,14
 161 0 161 0 157 4 c 0,15,16
 146 15 146 15 146 70 c 2,17,-1
 147 178 l 2,18,19
 147 204 147 204 144 231 c 1,20,21
 103 284 103 284 32 413 c 0,22,23
 29 418 29 418 29 425 c 128,-1,24
 29 432 29 432 35 440 c 0,25,26
 49 461 49 461 69 461 c 0,27,28
 84 461 84 461 142 360 c 0,29,30
 168 315 168 315 181 296 c 1,31,32
 198 321 198 321 219 354.5 c 128,-1,33
 240 388 240 388 250 404 c 0,34,35
 280 451 280 451 296 460 c 0,36,37
 303 465 303 465 309 465 c 0,0,1
EndSplineSet
EndChar

StartChar: z
Encoding: 122 122 94
Width: 450
GlyphClass: 2
Flags: W
LayerCount: 2
Fore
SplineSet
239 66 m 1,0,-1
 318 69 l 1,1,2
 361 69 361 69 370 62 c 128,-1,3
 379 55 379 55 379 45 c 0,4,5
 379 17 379 17 359 10 c 0,6,7
 336 3 336 3 277 3 c 2,8,-1
 71 0 l 2,9,10
 54 0 54 0 47.5 6.5 c 128,-1,11
 41 13 41 13 41 29 c 1,12,13
 48 67 48 67 64 97.5 c 128,-1,14
 80 128 80 128 95 144 c 128,-1,15
 110 160 110 160 131 181.5 c 128,-1,16
 152 203 152 203 163 219 c 1,17,18
 76 230 76 230 76 268 c 0,19,20
 76 282 76 282 87.5 293.5 c 128,-1,21
 99 305 99 305 106 305 c 128,-1,22
 113 305 113 305 118 303 c 0,23,24
 164 287 164 287 223 282 c 1,25,-1
 236 298 l 1,26,27
 281 350 281 350 303 382 c 1,28,29
 229 398 229 398 67 398 c 0,30,31
 37 398 37 398 37 423 c 0,32,33
 37 441 37 441 55 456 c 1,34,35
 67 462 67 462 105.5 462 c 128,-1,36
 144 462 144 462 231.5 455.5 c 128,-1,37
 319 449 319 449 365 437 c 0,38,39
 393 430 393 430 393 400 c 0,40,41
 393 390 393 390 387 384 c 0,42,43
 345 333 345 333 302 277 c 1,44,45
 330 276 330 276 340 268 c 128,-1,46
 350 260 350 260 350 248 c 128,-1,47
 350 236 350 236 346.5 229.5 c 128,-1,48
 343 223 343 223 336.5 219 c 128,-1,49
 330 215 330 215 323 213 c 0,50,51
 312 210 312 210 285 210 c 2,52,-1
 245 211 l 1,53,54
 239 205 239 205 219 185.5 c 128,-1,55
 199 166 199 166 193 160 c 128,-1,56
 187 154 187 154 172.5 139 c 128,-1,57
 158 124 158 124 151 115 c 0,58,59
 129 87 129 87 118 66 c 1,60,-1
 239 66 l 1,0,-1
EndSplineSet
EndChar

StartChar: braceleft
Encoding: 123 123 95
Width: 339
GlyphClass: 2
Flags: W
LayerCount: 2
Fore
SplineSet
240 22 m 2,0,-1
 261 22 l 2,1,2
 263 22 263 22 265 22 c 0,3,4
 300 22 300 22 300 -5 c 0,5,6
 300 -19 300 -19 287.5 -34 c 128,-1,7
 275 -49 275 -49 259 -53 c 1,8,9
 149 -53 149 -53 122 12 c 0,10,11
 115 27 115 27 115 44.5 c 128,-1,12
 115 62 115 62 129 110 c 128,-1,13
 143 158 143 158 143 187 c 0,14,15
 143 245 143 245 99.5 292 c 128,-1,16
 56 339 56 339 56 361 c 128,-1,17
 56 383 56 383 90 414 c 0,18,19
 99 423 99 423 119 445 c 1,20,21
 152 484 152 484 152 544 c 0,22,23
 152 566 152 566 142 613 c 128,-1,24
 132 660 132 660 132 671 c 128,-1,25
 132 682 132 682 139 696.5 c 128,-1,26
 146 711 146 711 156.5 718.5 c 128,-1,27
 167 726 167 726 186 733 c 128,-1,28
 205 740 205 740 228 740 c 2,29,-1
 246 740 l 2,30,31
 312 740 312 740 312 707 c 0,32,33
 312 662 312 662 257 662 c 0,34,35
 246 662 246 662 227 665 c 1,36,37
 215 665 215 665 215 647.5 c 128,-1,38
 215 630 215 630 221.5 597 c 128,-1,39
 228 564 228 564 228 528 c 128,-1,40
 228 492 228 492 210.5 450.5 c 128,-1,41
 193 409 193 409 148 364 c 1,42,43
 156 352 156 352 183 319 c 1,44,45
 213 276 213 276 220 215 c 1,46,47
 220 200 220 200 206.5 144.5 c 128,-1,48
 193 89 193 89 193 66 c 128,-1,49
 193 43 193 43 207 32.5 c 128,-1,50
 221 22 221 22 240 22 c 2,0,-1
EndSplineSet
EndChar

StartChar: bar
Encoding: 124 124 96
Width: 176
GlyphClass: 2
Flags: W
LayerCount: 2
Fore
SplineSet
46 -19 m 2,0,-1
 46 697 l 1,1,2
 54 715 54 715 68 727 c 128,-1,3
 82 739 82 739 97 739 c 0,4,5
 118 739 118 739 126 709 c 1,6,-1
 126 -7 l 1,7,8
 120 -26 120 -26 104 -39.5 c 128,-1,9
 88 -53 88 -53 72 -53 c 0,10,11
 46 -53 46 -53 46 -19 c 2,0,-1
EndSplineSet
EndChar

StartChar: braceright
Encoding: 125 125 97
Width: 328
GlyphClass: 2
Flags: W
LayerCount: 2
Fore
SplineSet
56 -3 m 0,0,1
 56 23 56 23 99 23 c 1,2,-1
 116 22 l 1,3,4
 163 22 163 22 163 66 c 0,5,6
 163 91 163 91 150.5 143.5 c 128,-1,7
 138 196 138 196 138 218 c 128,-1,8
 138 240 138 240 148.5 271.5 c 128,-1,9
 159 303 159 303 191 341 c 1,10,11
 206 361 206 361 209 364 c 1,12,13
 163 409 163 409 145.5 450.5 c 128,-1,14
 128 492 128 492 128 553 c 0,15,16
 128 566 128 566 135 598 c 128,-1,17
 142 630 142 630 142 647.5 c 128,-1,18
 142 665 142 665 132 665 c 2,19,-1
 101 662 l 1,20,21
 44 662 44 662 44 707 c 1,22,23
 50 740 50 740 120 740 c 2,24,-1
 121 740 l 2,25,26
 172 740 172 740 198 719 c 128,-1,27
 224 698 224 698 224 665 c 0,28,29
 224 660 224 660 214 613 c 128,-1,30
 204 566 204 566 204 538 c 0,31,32
 204 484 204 484 238 445 c 0,33,34
 252 428 252 428 266 414 c 0,35,36
 300 383 300 383 300 361 c 128,-1,37
 300 339 300 339 257.5 292.5 c 128,-1,38
 215 246 215 246 215 187 c 0,39,40
 215 155 215 155 228 110 c 128,-1,41
 241 65 241 65 241 49 c 0,42,43
 241 3 241 3 205.5 -25 c 128,-1,44
 170 -53 170 -53 97 -53 c 1,45,46
 81 -49 81 -49 68.5 -34 c 128,-1,47
 56 -19 56 -19 56 -3 c 0,0,1
EndSplineSet
EndChar

StartChar: asciitilde
Encoding: 126 126 98
Width: 529
GlyphClass: 2
Flags: W
LayerCount: 2
Fore
SplineSet
74 408 m 0,0,1
 59 408 59 408 42.5 418.5 c 128,-1,2
 26 429 26 429 26 445 c 0,3,4
 26 476 26 476 82.5 514.5 c 128,-1,5
 139 553 139 553 175.5 553 c 128,-1,6
 212 553 212 553 266.5 523 c 128,-1,7
 321 493 321 493 347 484 c 1,8,9
 363 484 363 484 403 516 c 128,-1,10
 443 548 443 548 460.5 548 c 128,-1,11
 478 548 478 548 488.5 536.5 c 128,-1,12
 499 525 499 525 499 514 c 0,13,14
 499 483 499 483 442.5 445.5 c 128,-1,15
 386 408 386 408 351 408 c 0,16,17
 297 408 297 408 252.5 438.5 c 128,-1,18
 208 469 208 469 183 469 c 128,-1,19
 158 469 158 469 130 438.5 c 128,-1,20
 102 408 102 408 74 408 c 0,0,1
EndSplineSet
EndChar

StartChar: exclamdown
Encoding: 161 161 100
Width: 214
GlyphClass: 2
Flags: W
LayerCount: 2
Fore
SplineSet
167 420 m 0,0,1
 167 389 167 389 156.5 380 c 128,-1,2
 146 371 146 371 122 371 c 128,-1,3
 98 371 98 371 84.5 385.5 c 128,-1,4
 71 400 71 400 71 421 c 128,-1,5
 71 442 71 442 94 463 c 0,6,7
 104 472 104 472 114 472 c 0,8,9
 167 472 167 472 167 420 c 0,0,1
116 -211 m 0,10,11
 100 -211 100 -211 85.5 -203.5 c 128,-1,12
 71 -196 71 -196 67 -185 c 1,13,14
 67 22 67 22 83 239 c 1,15,16
 91 259 91 259 104.5 259 c 128,-1,17
 118 259 118 259 130 249.5 c 128,-1,18
 142 240 142 240 145 228 c 1,19,20
 144 212 144 212 144 153.5 c 128,-1,21
 144 95 144 95 149.5 -18 c 128,-1,22
 155 -131 155 -131 155 -185 c 1,23,24
 147 -211 147 -211 116 -211 c 0,10,11
EndSplineSet
EndChar

StartChar: cent
Encoding: 162 162 101
Width: 424
GlyphClass: 2
Flags: W
LayerCount: 2
Fore
SplineSet
383 112 m 0,0,1
 383 87 383 87 350 59 c 128,-1,2
 317 31 317 31 269 13 c 1,3,-1
 275 -47 l 1,4,5
 271 -84 271 -84 235 -84 c 0,6,7
 203 -84 203 -84 203 0 c 1,8,9
 119 0 119 0 72 62.5 c 128,-1,10
 25 125 25 125 25 235 c 0,11,12
 25 317 25 317 75.5 377.5 c 128,-1,13
 126 438 126 438 204 457 c 1,14,15
 210 493 210 493 212 524 c 1,16,17
 216 539 216 539 226.5 548.5 c 128,-1,18
 237 558 237 558 249 558 c 128,-1,19
 261 558 261 558 269 549.5 c 128,-1,20
 277 541 277 541 277 526 c 2,21,-1
 277 520 l 1,22,-1
 272 467 l 1,23,24
 373 459 373 459 373 428 c 0,25,26
 373 406 373 406 361 383 c 128,-1,27
 349 360 349 360 334.5 360 c 128,-1,28
 320 360 320 360 303 366.5 c 128,-1,29
 286 373 286 373 274 378 c 0,30,31
 270 379 270 379 268 379 c 1,32,33
 264 296 264 296 264 235.5 c 128,-1,34
 264 175 264 175 265 153 c 1,35,-1
 265 103 l 1,36,37
 269 105 269 105 277.5 109.5 c 128,-1,38
 286 114 286 114 311 127 c 128,-1,39
 336 140 336 140 351.5 140 c 128,-1,40
 367 140 367 140 375 132 c 128,-1,41
 383 124 383 124 383 112 c 0,0,1
200 372 m 1,42,43
 112 336 112 336 112 224 c 0,44,45
 112 160 112 160 131.5 126.5 c 128,-1,46
 151 93 151 93 199 89 c 1,47,48
 197 147 197 147 197 219 c 128,-1,49
 197 291 197 291 200 372 c 1,42,43
EndSplineSet
EndChar

StartChar: sterling
Encoding: 163 163 102
Width: 550
GlyphClass: 2
Flags: W
LayerCount: 2
Fore
SplineSet
73 265 m 0,0,1
 37 265 37 265 37 308 c 0,2,3
 37 324 37 324 47.5 334.5 c 128,-1,4
 58 345 58 345 74.5 346 c 128,-1,5
 91 347 91 347 144 347 c 1,6,7
 138 396 138 396 138 486.5 c 128,-1,8
 138 577 138 577 185 620.5 c 128,-1,9
 232 664 232 664 302 664 c 128,-1,10
 372 664 372 664 432 631 c 0,11,12
 480 604 480 604 480 575 c 0,13,14
 480 572 480 572 479 569 c 0,15,16
 472 538 472 538 443 538 c 0,17,18
 425 538 425 538 408 551 c 1,19,20
 350 588 350 588 309 588 c 0,21,22
 246 588 246 588 229 539 c 0,23,24
 218 506 218 506 218 469 c 128,-1,25
 218 432 218 432 218.5 415.5 c 128,-1,26
 219 399 219 399 221 373.5 c 128,-1,27
 223 348 223 348 223 346 c 1,28,29
 275 351 275 351 348 351 c 0,30,31
 375 351 375 351 384.5 342.5 c 128,-1,32
 394 334 394 334 394 315 c 0,33,34
 394 275 394 275 370.5 271.5 c 128,-1,35
 347 268 347 268 224 268 c 1,36,37
 226 233 226 233 226 199.5 c 128,-1,38
 226 166 226 166 223 134 c 1,39,40
 241 105 241 105 275 89 c 128,-1,41
 309 73 309 73 347 73 c 0,42,43
 413 73 413 73 449 120 c 0,44,45
 460 134 460 134 481 134 c 0,46,47
 514 134 514 134 514 108 c 0,48,49
 514 72 514 72 460.5 36 c 128,-1,50
 407 0 407 0 350 0 c 0,51,52
 283 0 283 0 242 22 c 0,53,54
 214 38 214 38 185 59 c 1,55,56
 161 59 161 59 136 38 c 0,57,58
 129 32 129 32 112 16 c 128,-1,59
 95 0 95 0 76 0 c 0,60,61
 40 0 40 0 40 37 c 0,62,63
 40 66 40 66 118 119 c 0,64,65
 140 134 140 134 145 138 c 1,66,67
 148 160 148 160 148 192 c 128,-1,68
 148 224 148 224 145 268 c 1,69,-1
 76 265 l 2,70,71
 74 265 74 265 73 265 c 0,0,1
EndSplineSet
Substitution2: "'smcp' Lowercase to Small Capitals lookup 15 subtable" sterling.smcp
Substitution2: "'aalt' Access All Alternates lookup 0 subtable" sterling.smcp
EndChar

StartChar: currency
Encoding: 164 164 103
Width: 692
GlyphClass: 2
Flags: W
LayerCount: 2
Fore
SplineSet
517 163 m 1,0,-1
 592 91 l 1,1,2
 598 82 598 82 598 66 c 128,-1,3
 598 50 598 50 584.5 36.5 c 128,-1,4
 571 23 571 23 555 23 c 128,-1,5
 539 23 539 23 527 35 c 2,6,-1
 451 112 l 1,7,8
 396 82 396 82 333 82 c 128,-1,9
 270 82 270 82 220 108 c 1,10,11
 153 38 153 38 139.5 31.5 c 128,-1,12
 126 25 126 25 117 25 c 0,13,14
 88 25 88 25 88 55 c 128,-1,15
 88 85 88 85 161 155 c 1,16,17
 107 216 107 216 103 320 c 1,18,19
 104 421 104 421 167 491 c 1,20,21
 144 515 144 515 120 543 c 1,22,-1
 93 572 l 1,23,24
 86 578 86 578 86 594.5 c 128,-1,25
 86 611 86 611 100.5 624.5 c 128,-1,26
 115 638 115 638 132 638 c 0,27,28
 159 638 159 638 207 578 c 0,29,30
 214 569 214 569 224 556.5 c 128,-1,31
 234 544 234 544 236 541 c 1,32,33
 292 569 292 569 352 569 c 128,-1,34
 412 569 412 569 467 536 c 1,35,36
 474 545 474 545 521 603 c 0,37,38
 553 641 553 641 579 641 c 0,39,40
 592 641 592 641 600 632.5 c 128,-1,41
 608 624 608 624 608 608 c 128,-1,42
 608 592 608 592 587 570 c 128,-1,43
 566 548 566 548 521 493 c 1,44,45
 580 426 580 426 580 328 c 128,-1,46
 580 230 580 230 517 163 c 1,0,-1
337 491 m 128,-1,48
 270 491 270 491 226.5 449 c 128,-1,49
 183 407 183 407 180 332 c 1,50,51
 184 253 184 253 233 205 c 128,-1,52
 282 157 282 157 348 157 c 128,-1,53
 414 157 414 157 457 199.5 c 128,-1,54
 500 242 500 242 500 318 c 128,-1,55
 500 394 500 394 452 442.5 c 128,-1,47
 404 491 404 491 337 491 c 128,-1,48
EndSplineSet
EndChar

StartChar: yen
Encoding: 165 165 104
Width: 464
GlyphClass: 2
Flags: W
LayerCount: 2
Fore
SplineSet
336 293 m 1,0,1
 364 284 364 284 364 260 c 0,2,3
 364 226 364 226 284 217 c 1,4,-1
 247 211 l 1,5,-1
 247 175 l 1,6,7
 308 188 308 188 326.5 188 c 128,-1,8
 345 188 345 188 355 179 c 128,-1,9
 365 170 365 170 365 157 c 0,10,11
 365 117 365 117 245 103 c 1,12,13
 245 72 245 72 247 44 c 1,14,15
 244 29 244 29 231 15.5 c 128,-1,16
 218 2 218 2 208 2 c 0,17,18
 176 2 176 2 176 60 c 2,19,-1
 176 91 l 1,20,21
 169 89 169 89 141.5 84 c 128,-1,22
 114 79 114 79 103 75.5 c 128,-1,23
 92 72 92 72 82 72 c 128,-1,24
 72 72 72 72 64 82 c 128,-1,25
 56 92 56 92 56 103 c 0,26,27
 56 138 56 138 85 143 c 1,28,-1
 176 163 l 1,29,-1
 176 199 l 1,30,31
 116 186 116 186 89 185 c 1,32,33
 54 190 54 190 54 223 c 0,34,35
 54 239 54 239 64 245 c 1,36,37
 75 250 75 250 114 257 c 2,38,-1
 176 269 l 1,39,-1
 178 308 l 2,40,41
 178 321 178 321 176 331 c 1,42,43
 123 407 123 407 82 492 c 0,44,45
 75 507 75 507 70.5 515.5 c 128,-1,46
 66 524 66 524 63 531 c 128,-1,47
 60 538 60 538 58 541 c 128,-1,48
 56 544 56 544 41 575 c 128,-1,49
 26 606 26 606 23 610.5 c 128,-1,50
 20 615 20 615 20 627.5 c 128,-1,51
 20 640 20 640 33 652.5 c 128,-1,52
 46 665 46 665 58.5 665 c 128,-1,53
 71 665 71 665 89 640.5 c 128,-1,54
 107 616 107 616 137 562 c 1,55,56
 163 510 163 510 167 506 c 1,57,-1
 190 462 l 2,58,59
 209 425 209 425 217 413 c 1,60,-1
 263 493 l 2,61,62
 263 495 263 495 273 511 c 2,63,-1
 286 534 l 1,64,65
 299 560 299 560 317 584 c 1,66,-1
 333 608 l 2,67,68
 348 630 348 630 367.5 648 c 128,-1,69
 387 666 387 666 401 666 c 128,-1,70
 415 666 415 666 423 658.5 c 128,-1,71
 431 651 431 651 431 639 c 128,-1,72
 431 627 431 627 427 619 c 1,73,74
 354 529 354 529 269 362 c 0,75,76
 254 332 254 332 248 324 c 1,77,-1
 248 280 l 1,78,-1
 336 293 l 1,0,1
EndSplineSet
Substitution2: "'smcp' Lowercase to Small Capitals lookup 15 subtable" yen.smcp
Substitution2: "'aalt' Access All Alternates lookup 0 subtable" yen.smcp
EndChar

StartChar: brokenbar
Encoding: 166 166 105
Width: 170
GlyphClass: 2
Flags: W
LayerCount: 2
Fore
SplineSet
41 426 m 2,0,-1
 43 698 l 1,1,2
 47 716 47 716 61.5 729 c 128,-1,3
 76 742 76 742 92 742 c 0,4,5
 113 742 113 742 122 712 c 1,6,-1
 121 430 l 1,7,8
 117 412 117 412 101.5 402 c 128,-1,9
 86 392 86 392 69 392 c 0,10,11
 41 392 41 392 41 426 c 2,0,-1
41 -23 m 2,12,-1
 43 273 l 1,13,14
 47 289 47 289 61 299 c 128,-1,15
 75 309 75 309 92 309 c 0,16,17
 114 309 114 309 122 279 c 1,18,-1
 121 -11 l 1,19,20
 117 -31 117 -31 101.5 -43.5 c 128,-1,21
 86 -56 86 -56 69 -56 c 0,22,23
 41 -56 41 -56 41 -23 c 2,12,-1
EndSplineSet
EndChar

StartChar: section
Encoding: 167 167 106
Width: 384
GlyphClass: 2
Flags: W
LayerCount: 2
Fore
SplineSet
127 451 m 1,0,1
 73 476 73 476 73 529 c 0,2,3
 73 610 73 610 133 643 c 1,4,5
 170 667 170 667 215 667 c 0,6,7
 294 667 294 667 294 624 c 0,8,9
 294 608 294 608 284 594.5 c 128,-1,10
 274 581 274 581 260 581 c 1,11,-1
 220 586 l 1,12,13
 188 586 188 586 170 571.5 c 128,-1,14
 152 557 152 557 152 533 c 0,15,16
 152 492 152 492 222.5 465 c 128,-1,17
 293 438 293 438 315 405.5 c 128,-1,18
 337 373 337 373 337 333 c 0,19,20
 337 253 337 253 265 188 c 1,21,22
 289 158 289 158 289 105.5 c 128,-1,23
 289 53 289 53 255.5 26.5 c 128,-1,24
 222 0 222 0 171 0 c 128,-1,25
 120 0 120 0 86 11.5 c 128,-1,26
 52 23 52 23 52 46 c 0,27,28
 52 84 52 84 90 84 c 1,29,-1
 164 77 l 1,30,31
 208 77 208 77 214 103 c 0,32,33
 215 107 215 107 215 115 c 0,34,35
 215 152 215 152 168 181 c 0,36,37
 165 183 165 183 162 184.5 c 128,-1,38
 159 186 159 186 141 197 c 128,-1,39
 123 208 123 208 111 216 c 128,-1,40
 99 224 99 224 78 242 c 0,41,42
 43 273 43 273 43 319 c 0,43,44
 43 394 43 394 127 451 c 1,0,1
109 331 m 0,45,46
 109 291 109 291 169 257 c 0,47,48
 199 239 199 239 208 235 c 1,49,50
 234 250 234 250 253 276 c 128,-1,51
 272 302 272 302 272 328.5 c 128,-1,52
 272 355 272 355 248 379 c 128,-1,53
 224 403 224 403 196 403 c 128,-1,54
 168 403 168 403 138.5 380 c 128,-1,55
 109 357 109 357 109 331 c 0,45,46
EndSplineSet
EndChar

StartChar: dieresis
Encoding: 168 168 107
Width: 404
GlyphClass: 2
Flags: W
LayerCount: 2
Fore
SplineSet
115 512 m 0,0,1
 78 512 78 512 70 551 c 1,2,3
 70 574 70 574 87 591.5 c 128,-1,4
 104 609 104 609 124.5 609 c 128,-1,5
 145 609 145 609 157 595 c 128,-1,6
 169 581 169 581 170 557 c 1,7,8
 167 537 167 537 151.5 524.5 c 128,-1,9
 136 512 136 512 115 512 c 0,0,1
295 608 m 0,10,11
 313 608 313 608 325.5 597.5 c 128,-1,12
 338 587 338 587 339 569 c 1,13,14
 336 544 336 544 321 529.5 c 128,-1,15
 306 515 306 515 286.5 515 c 128,-1,16
 267 515 267 515 254 528.5 c 128,-1,17
 241 542 241 542 241 563 c 0,18,19
 241 608 241 608 295 608 c 0,10,11
EndSplineSet
EndChar

StartChar: copyright
Encoding: 169 169 108
Width: 759
GlyphClass: 2
Flags: W
LayerCount: 2
Fore
SplineSet
44 332 m 0,0,1
 44 418 44 418 91 493.5 c 128,-1,2
 138 569 138 569 215 614 c 128,-1,3
 292 659 292 659 379 667 c 1,4,5
 509 661 509 661 558 636 c 0,6,7
 586 622 586 622 607 601 c 0,8,9
 697 512 697 512 697 335 c 0,10,11
 697 182 697 182 618.5 92.5 c 128,-1,12
 540 3 540 3 395 -1 c 1,13,14
 321 -1 321 -1 256 19.5 c 128,-1,15
 191 40 191 40 135 93.5 c 128,-1,16
 79 147 79 147 58 227 c 0,17,18
 44 277 44 277 44 332 c 0,0,1
620 329 m 0,19,20
 620 522 620 522 498 575 c 1,21,22
 448 595 448 595 379 596 c 1,23,24
 269 585 269 585 195 507.5 c 128,-1,25
 121 430 121 430 121 325 c 128,-1,26
 121 220 121 220 197 148 c 128,-1,27
 273 76 273 76 386.5 76 c 128,-1,28
 500 76 500 76 560 142 c 128,-1,29
 620 208 620 208 620 329 c 0,19,20
292 343 m 0,30,31
 292 216 292 216 364 216 c 0,32,33
 367 216 367 216 415 236.5 c 128,-1,34
 463 257 463 257 486 257 c 0,35,36
 515 257 515 257 515 228 c 0,37,38
 515 203 515 203 489 180.5 c 128,-1,39
 463 158 463 158 427.5 147 c 128,-1,40
 392 136 392 136 368 136 c 0,41,42
 305 136 305 136 260 188 c 128,-1,43
 215 240 215 240 215 313 c 0,44,45
 215 432 215 432 288 499 c 0,46,47
 327 535 327 535 379 535 c 0,48,49
 402 535 402 535 435 522 c 128,-1,50
 468 509 468 509 495.5 485.5 c 128,-1,51
 523 462 523 462 523 441.5 c 128,-1,52
 523 421 523 421 510 408.5 c 128,-1,53
 497 396 497 396 478.5 396 c 128,-1,54
 460 396 460 396 430 427 c 1,55,56
 390 454 390 454 365 457 c 1,57,58
 333 457 333 457 312.5 422.5 c 128,-1,59
 292 388 292 388 292 343 c 0,30,31
EndSplineSet
EndChar

StartChar: ordfeminine
Encoding: 170 170 109
Width: 289
GlyphClass: 2
Flags: W
LayerCount: 2
Fore
SplineSet
261 603 m 2,0,-1
 260 532 l 1,1,-1
 270 348 l 1,2,3
 270 327 270 327 226 327 c 0,4,5
 202 327 202 327 202 354 c 0,6,7
 202 358 202 358 202 362 c 1,8,9
 170 335 170 335 124 335 c 0,10,11
 23 335 23 335 23 488 c 0,12,13
 23 573 23 573 55.5 616.5 c 128,-1,14
 88 660 88 660 148 660 c 0,15,16
 175 660 175 660 202 651 c 1,17,18
 212 663 212 663 228 663 c 0,19,20
 261 663 261 663 261 603 c 2,0,-1
189.5 574 m 128,-1,22
 180 592 180 592 149 592 c 128,-1,23
 118 592 118 592 100 571 c 128,-1,24
 82 550 82 550 82 491 c 0,25,26
 82 394 82 394 134 394 c 0,27,28
 167 394 167 394 183 429.5 c 128,-1,29
 199 465 199 465 199 510.5 c 128,-1,21
 199 556 199 556 189.5 574 c 128,-1,22
EndSplineSet
EndChar

StartChar: guillemotleft
Encoding: 171 171 110
Width: 478
GlyphClass: 2
Flags: W
LayerCount: 2
Fore
SplineSet
233 427 m 0,0,1
 259 427 259 427 259 395.5 c 128,-1,2
 259 364 259 364 169 286 c 0,3,4
 134 256 134 256 127 247 c 1,5,6
 138 236 138 236 170 209 c 1,7,8
 233 150 233 150 233 120 c 0,9,10
 233 103 233 103 224.5 93 c 128,-1,11
 216 83 216 83 205 83 c 128,-1,12
 194 83 194 83 174 97.5 c 128,-1,13
 154 112 154 112 143 127.5 c 128,-1,14
 132 143 132 143 104 167.5 c 128,-1,15
 76 192 76 192 65.5 207 c 128,-1,16
 55 222 55 222 55 242 c 0,17,18
 55 281 55 281 90 316 c 1,19,20
 106 334 106 334 141.5 365.5 c 128,-1,21
 177 397 177 397 182.5 404 c 128,-1,22
 188 411 188 411 204.5 419 c 128,-1,23
 221 427 221 427 233 427 c 0,0,1
336 380 m 1,24,-1
 354 399 l 2,25,26
 367 414 367 414 374 418 c 0,27,28
 381 421 381 421 393.5 421 c 128,-1,29
 406 421 406 421 416 414 c 128,-1,30
 426 407 426 407 426 396 c 0,31,32
 426 363 426 363 311 239 c 1,33,34
 318 223 318 223 347 199 c 1,35,36
 420 134 420 134 420 114 c 0,37,38
 420 77 420 77 391 77 c 0,39,40
 366 77 366 77 349 94 c 0,41,42
 343 99 343 99 332.5 112.5 c 128,-1,43
 322 126 322 126 301 145 c 0,44,45
 237 202 237 202 237 240 c 0,46,47
 237 255 237 255 265 294 c 128,-1,48
 293 333 293 333 336 380 c 1,24,-1
EndSplineSet
EndChar

StartChar: logicalnot
Encoding: 172 172 111
Width: 484
GlyphClass: 2
Flags: W
LayerCount: 2
Fore
SplineSet
56.5 265 m 128,-1,1
 78 278 78 278 99 279 c 128,-1,2
 120 280 120 280 139 280 c 2,3,-1
 244 278 l 1,4,5
 335 278 335 278 407 277 c 1,6,7
 427 274 427 274 430 259 c 1,8,9
 433 251 433 251 433 236 c 2,10,-1
 433 73 l 1,11,12
 430 56 430 56 420.5 46 c 128,-1,13
 411 36 411 36 398.5 36 c 128,-1,14
 386 36 386 36 376 45.5 c 128,-1,15
 366 55 366 55 364 72 c 1,16,17
 364 171 364 171 365 200 c 1,18,-1
 68 200 l 2,19,20
 35 200 35 200 35 226 c 128,-1,0
 35 252 35 252 56.5 265 c 128,-1,1
EndSplineSet
EndChar

StartChar: softhyphen
Encoding: 173 173 112
Width: 404
GlyphClass: 2
Flags: W
LayerCount: 2
Fore
SplineSet
152 197 m 1,0,-1
 69 195 l 2,1,2
 55 195 55 195 45.5 205 c 128,-1,3
 36 215 36 215 36 233.5 c 128,-1,4
 36 252 36 252 48 264 c 128,-1,5
 60 276 60 276 82 276 c 2,6,-1
 136 276 l 1,7,-1
 281 276 l 2,8,9
 312 276 312 276 331 276 c 1,10,11
 368 274 368 274 368 238 c 0,12,13
 368 221 368 221 356.5 208.5 c 128,-1,14
 345 196 345 196 323 196 c 2,15,-1
 152 197 l 1,0,-1
EndSplineSet
EndChar

StartChar: registered
Encoding: 174 174 113
Width: 760
GlyphClass: 2
Flags: W
LayerCount: 2
Fore
SplineSet
93 494 m 128,-1,1
 139 569 139 569 216 614 c 128,-1,2
 293 659 293 659 379 665 c 1,3,4
 500 664 500 664 557 636 c 1,5,6
 581 623 581 623 605 601 c 0,7,8
 696 513 696 513 696 336 c 0,9,10
 696 183 696 183 618 94 c 128,-1,11
 540 5 540 5 395 0 c 1,12,13
 234 0 234 0 134 96 c 0,14,15
 95 133 95 133 71 195.5 c 128,-1,16
 47 258 47 258 47 338.5 c 128,-1,0
 47 419 47 419 93 494 c 128,-1,1
619 329 m 0,17,18
 619 524 619 524 498 575 c 0,19,20
 450 595 450 595 380 596 c 1,21,22
 270 584 270 584 197 507 c 128,-1,23
 124 430 124 430 124 324.5 c 128,-1,24
 124 219 124 219 198.5 148 c 128,-1,25
 273 77 273 77 386 77 c 128,-1,26
 499 77 499 77 559 143 c 128,-1,27
 619 209 619 209 619 329 c 0,17,18
371 517 m 2,28,29
 436 517 436 517 472 489 c 128,-1,30
 508 461 508 461 508 413 c 0,31,32
 508 348 508 348 451 316 c 1,33,34
 459 303 459 303 483.5 267.5 c 128,-1,35
 508 232 508 232 514 206 c 1,36,37
 514 183 514 183 492 168 c 1,38,39
 481 162 481 162 469.5 162 c 128,-1,40
 458 162 458 162 449 181 c 1,41,42
 442 206 442 206 415.5 245.5 c 128,-1,43
 389 285 389 285 384 296 c 1,44,45
 341 296 341 296 320 299 c 1,46,47
 320 285 320 285 321 274 c 1,48,-1
 321 219 l 1,49,50
 318 156 318 156 277 156 c 0,51,52
 253 156 253 156 253 185 c 2,53,-1
 257 476 l 1,54,55
 270 517 270 517 345 517 c 2,56,-1
 371 517 l 2,28,29
357 450 m 128,-1,58
 329 450 329 450 323 449 c 1,59,-1
 323 368 l 1,60,61
 334 360 334 360 363.5 360 c 128,-1,62
 393 360 393 360 419 372.5 c 128,-1,63
 445 385 445 385 445 404.5 c 128,-1,64
 445 424 445 424 415 437 c 128,-1,57
 385 450 385 450 357 450 c 128,-1,58
EndSplineSet
EndChar

StartChar: macron
Encoding: 175 175 114
Width: 400
GlyphClass: 2
Flags: W
LayerCount: 2
Fore
SplineSet
70 596 m 1,0,-1
 187 593 l 1,1,2
 257 593 257 593 291.5 595.5 c 128,-1,3
 326 598 326 598 332.5 598 c 128,-1,4
 339 598 339 598 349 591 c 128,-1,5
 359 584 359 584 359.5 577 c 128,-1,6
 360 570 360 570 360 556 c 0,7,8
 360 521 360 521 321 517 c 0,9,10
 272 513 272 513 207 513 c 128,-1,11
 142 513 142 513 62 517 c 0,12,13
 29 518 29 518 29 545 c 0,14,15
 29 596 29 596 70 596 c 1,0,-1
EndSplineSet
EndChar

StartChar: degree
Encoding: 176 176 115
Width: 232
GlyphClass: 2
Flags: W
LayerCount: 2
Fore
SplineSet
124 713 m 0,0,1
 175 713 175 713 190 663 c 0,2,3
 196 646 196 646 196 625 c 1,4,5
 191 584 191 584 155 563 c 0,6,7
 136 551 136 551 110 551 c 128,-1,8
 84 551 84 551 57.5 572.5 c 128,-1,9
 31 594 31 594 31 631 c 128,-1,10
 31 668 31 668 57.5 690.5 c 128,-1,11
 84 713 84 713 124 713 c 0,0,1
148 637 m 0,12,13
 148 657 148 657 138 664 c 128,-1,14
 128 671 128 671 115.5 671 c 128,-1,15
 103 671 103 671 91.5 660.5 c 128,-1,16
 80 650 80 650 80 636 c 0,17,18
 80 604 80 604 114 604 c 128,-1,19
 148 604 148 604 148 637 c 0,12,13
EndSplineSet
EndChar

StartChar: plusminus
Encoding: 177 177 116
Width: 475
GlyphClass: 2
Flags: W
LayerCount: 2
Fore
SplineSet
204 277 m 1,0,-1
 204 285 l 1,1,-1
 202 355 l 1,2,3
 202 456 202 456 252 456 c 0,4,5
 275 456 275 456 283 427 c 1,6,-1
 281 277 l 1,7,-1
 407 277 l 1,8,9
 436 272 436 272 436 250 c 0,10,11
 436 234 436 234 424 219.5 c 128,-1,12
 412 205 412 205 395 200 c 1,13,-1
 280 200 l 1,14,15
 279 193 279 193 279 177 c 2,16,17
 279 177 279 177 279 129 c 0,18,19
 279 126 279 126 279 122 c 0,20,21
 279 12 279 12 231 12 c 0,22,23
 200 12 200 12 200 47 c 0,24,25
 200 149 200 149 203 200 c 1,26,-1
 68 200 l 2,27,28
 35 200 35 200 35 227 c 0,29,30
 35 243 35 243 48.5 259 c 128,-1,31
 62 275 62 275 80 277 c 1,32,-1
 204 277 l 1,0,-1
73 -120 m 2,33,34
 56 -120 56 -120 46 -110.5 c 128,-1,35
 36 -101 36 -101 36 -88 c 0,36,37
 36 -51 36 -51 85 -44 c 1,38,-1
 391 -44 l 1,39,40
 428 -56 428 -56 428 -83 c 0,41,42
 428 -99 428 -99 419.5 -106.5 c 128,-1,43
 411 -114 411 -114 388 -120 c 1,44,-1
 73 -120 l 2,33,34
EndSplineSet
EndChar

StartChar: twosuperior
Encoding: 178 178 117
Width: 230
GlyphClass: 2
Flags: W
LayerCount: 2
Fore
SplineSet
129 462 m 0,0,1
 24 462 24 462 24 499 c 0,2,3
 24 532 24 532 69 567 c 128,-1,4
 114 602 114 602 114 624 c 0,5,6
 114 636 114 636 108 637 c 128,-1,7
 102 638 102 638 87.5 630.5 c 128,-1,8
 73 623 73 623 63 623 c 0,9,10
 26 623 26 623 26 661 c 0,11,12
 26 681 26 681 54 700.5 c 128,-1,13
 82 720 82 720 114.5 720 c 128,-1,14
 147 720 147 720 169.5 700.5 c 128,-1,15
 192 681 192 681 192 650 c 0,16,17
 192 592 192 592 111 526 c 1,18,19
 134 530 134 530 180 534 c 0,20,21
 196 536 196 536 201.5 527.5 c 128,-1,22
 207 519 207 519 207 504 c 0,23,24
 207 474 207 474 189 468 c 128,-1,25
 171 462 171 462 129 462 c 0,0,1
EndSplineSet
EndChar

StartChar: threesuperior
Encoding: 179 179 118
Width: 220
GlyphClass: 2
Flags: W
LayerCount: 2
Fore
SplineSet
110.5 613.5 m 128,-1,1
 126 622 126 622 126 634.5 c 128,-1,2
 126 647 126 647 109 647 c 128,-1,3
 92 647 92 647 74.5 644.5 c 128,-1,4
 57 642 57 642 47.5 652.5 c 128,-1,5
 38 663 38 663 38 681 c 0,6,7
 38 720 38 720 93 720 c 0,8,9
 135 720 135 720 164 705.5 c 128,-1,10
 193 691 193 691 193 665.5 c 128,-1,11
 193 640 193 640 186.5 623.5 c 128,-1,12
 180 607 180 607 158 594 c 1,13,14
 198 587 198 587 198 533 c 0,15,16
 198 502 198 502 177 481 c 128,-1,17
 156 460 156 460 123 460 c 0,18,19
 66 460 66 460 41 485 c 0,20,21
 32 494 32 494 32 505 c 0,22,23
 32 543 32 543 65 543 c 0,24,25
 78 543 78 543 93 538 c 0,26,27
 120 529 120 529 126 541 c 0,28,29
 134 560 134 560 127 567 c 128,-1,30
 120 574 120 574 107.5 581 c 128,-1,31
 95 588 95 588 95 596.5 c 128,-1,0
 95 605 95 605 110.5 613.5 c 128,-1,1
EndSplineSet
EndChar

StartChar: acute
Encoding: 180 180 119
Width: 247
GlyphClass: 2
Flags: W
LayerCount: 2
Fore
SplineSet
135 660 m 0,0,1
 141 677 141 677 160.5 677 c 128,-1,2
 180 677 180 677 191.5 665 c 128,-1,3
 203 653 203 653 203 645.5 c 128,-1,4
 203 638 203 638 201 633 c 0,5,6
 185 588 185 588 147.5 548 c 128,-1,7
 110 508 110 508 90 508 c 128,-1,8
 70 508 70 508 60 518 c 128,-1,9
 50 528 50 528 50 541.5 c 128,-1,10
 50 555 50 555 66 568 c 0,11,12
 119 611 119 611 135 660 c 0,0,1
EndSplineSet
EndChar

StartChar: paragraph
Encoding: 182 182 120
Width: 500
GlyphClass: 2
Flags: W
LayerCount: 2
Fore
SplineSet
341 -5 m 0,0,1
 303 -5 303 -5 303 120 c 1,2,-1
 312 605 l 1,3,-1
 269 605 l 1,4,5
 262 517 262 517 262 320 c 2,6,-1
 263 41 l 2,7,8
 263 7 263 7 216 -4 c 1,9,10
 199 -1 199 -1 198 6 c 1,11,12
 194 14 194 14 194 23 c 1,13,14
 188 71 188 71 188 190 c 128,-1,15
 188 309 188 309 192 352 c 1,16,17
 96 361 96 361 57 422 c 0,18,19
 36 455 36 455 36 503 c 0,20,21
 36 581 36 581 95 622.5 c 128,-1,22
 154 664 154 664 265 664 c 2,23,-1
 352 664 l 2,24,25
 406 664 406 664 429 658 c 128,-1,26
 452 652 452 652 452 638 c 0,27,28
 452 621 452 621 444.5 611.5 c 128,-1,29
 437 602 437 602 415.5 602 c 128,-1,30
 394 602 394 602 380 604 c 1,31,32
 374 348 374 348 374 145 c 1,33,-1
 376 41 l 2,34,35
 376 22 376 22 365 8.5 c 128,-1,36
 354 -5 354 -5 341 -5 c 0,0,1
EndSplineSet
EndChar

StartChar: periodcentered
Encoding: 183 183 121
Width: 200
GlyphClass: 2
Flags: W
LayerCount: 2
Fore
SplineSet
63.5 276 m 128,-1,1
 79 300 79 300 100.5 300 c 128,-1,2
 122 300 122 300 138 284 c 128,-1,3
 154 268 154 268 157 240 c 1,4,5
 157 218 157 218 141 199.5 c 128,-1,6
 125 181 125 181 103.5 181 c 128,-1,7
 82 181 82 181 65 192.5 c 128,-1,8
 48 204 48 204 48 228 c 128,-1,0
 48 252 48 252 63.5 276 c 128,-1,1
EndSplineSet
EndChar

StartChar: cedilla
Encoding: 184 184 122
Width: 400
GlyphClass: 2
Flags: W
LayerCount: 2
Fore
SplineSet
200 -37 m 2,0,-1
 233 -33 l 1,1,2
 255 -33 255 -33 268 -41 c 0,3,4
 290 -53 290 -53 297 -90 c 0,5,6
 300 -106 300 -106 300 -119 c 0,7,8
 300 -152 300 -152 275 -177 c 128,-1,9
 250 -202 250 -202 203.5 -202 c 128,-1,10
 157 -202 157 -202 128.5 -189 c 128,-1,11
 100 -176 100 -176 100 -159 c 128,-1,12
 100 -142 100 -142 108 -132 c 128,-1,13
 116 -122 116 -122 124 -122 c 128,-1,14
 132 -122 132 -122 157 -135 c 128,-1,15
 182 -148 182 -148 202 -148 c 128,-1,16
 222 -148 222 -148 234.5 -138 c 128,-1,17
 247 -128 247 -128 247 -118 c 0,18,19
 247 -89 247 -89 232 -84 c 0,20,21
 228 -83 228 -83 216 -83 c 128,-1,22
 204 -83 204 -83 180 -85 c 1,23,24
 135 -85 135 -85 135 -28 c 128,-1,25
 135 29 135 29 171 29 c 0,26,27
 194 29 194 29 194 -2 c 1,28,29
 193 -11 193 -11 193 -24 c 128,-1,30
 193 -37 193 -37 200 -37 c 2,0,-1
EndSplineSet
EndChar

StartChar: onesuperior
Encoding: 185 185 123
Width: 200
GlyphClass: 2
Flags: W
LayerCount: 2
Fore
SplineSet
118 460 m 128,-1,1
 102 460 102 460 92 472 c 128,-1,2
 82 484 82 484 83 499 c 0,3,4
 86 546 86 546 99 616 c 1,5,6
 46 582 46 582 30 600 c 0,7,8
 22 609 22 609 22 628.5 c 128,-1,9
 22 648 22 648 64.5 684.5 c 128,-1,10
 107 721 107 721 138 721 c 0,11,12
 174 721 174 721 174 665 c 0,13,14
 174 651 174 651 158 510 c 0,15,16
 156 489 156 489 145 474.5 c 128,-1,0
 134 460 134 460 118 460 c 128,-1,1
EndSplineSet
EndChar

StartChar: ordmasculine
Encoding: 186 186 124
Width: 299
GlyphClass: 2
Flags: W
LayerCount: 2
Fore
SplineSet
244 611.5 m 128,-1,1
 276 563 276 563 276 497 c 128,-1,2
 276 431 276 431 242.5 383.5 c 128,-1,3
 209 336 209 336 154.5 336 c 128,-1,4
 100 336 100 336 66 384.5 c 128,-1,5
 32 433 32 433 32 499.5 c 128,-1,6
 32 566 32 566 63 612 c 0,7,8
 96 660 96 660 154 660 c 128,-1,0
 212 660 212 660 244 611.5 c 128,-1,1
152 595 m 0,9,10
 126 595 126 595 109.5 567.5 c 128,-1,11
 93 540 93 540 93 499 c 128,-1,12
 93 458 93 458 111 433 c 128,-1,13
 129 408 129 408 154.5 408 c 128,-1,14
 180 408 180 408 196.5 423.5 c 128,-1,15
 213 439 213 439 213 489 c 0,16,17
 213 595 213 595 152 595 c 0,9,10
EndSplineSet
EndChar

StartChar: guillemotright
Encoding: 187 187 125
Width: 508
GlyphClass: 2
Flags: W
LayerCount: 2
Fore
SplineSet
256 416 m 0,0,1
 264 416 264 416 281 408.5 c 128,-1,2
 298 401 298 401 307 390 c 128,-1,3
 316 379 316 379 346.5 353 c 128,-1,4
 377 327 377 327 398 306 c 0,5,6
 432 272 432 272 432 233 c 0,7,8
 432 213 432 213 421.5 198 c 128,-1,9
 411 183 411 183 383.5 158.5 c 128,-1,10
 356 134 356 134 345 117 c 0,11,12
 333 100 333 100 313.5 86 c 128,-1,13
 294 72 294 72 283 72 c 128,-1,14
 272 72 272 72 262.5 82 c 128,-1,15
 253 92 253 92 253 111.5 c 128,-1,16
 253 131 253 131 279 159.5 c 128,-1,17
 305 188 305 188 337 216 c 2,18,-1
 360 236 l 1,19,20
 350 248 350 248 319 275 c 0,21,22
 233 348 233 348 228 384 c 1,23,24
 228 416 228 416 256 416 c 0,0,1
105 67 m 2,25,26
 67 67 67 67 67 98 c 0,27,28
 67 124 67 124 140 189 c 0,29,30
 168 213 168 213 176 228 c 1,31,32
 60 349 60 349 60 385 c 0,33,34
 60 396 60 396 71 404 c 128,-1,35
 82 412 82 412 95 412 c 128,-1,36
 108 412 108 412 121 401 c 1,37,38
 161 361 161 361 205.5 306.5 c 128,-1,39
 250 252 250 252 250 236 c 0,40,41
 250 204 250 204 226 176.5 c 128,-1,42
 202 149 202 149 184.5 133.5 c 128,-1,43
 167 118 167 118 155 103 c 1,44,-1
 138 84 l 1,45,46
 112 67 112 67 109 67 c 2,47,-1
 105 67 l 2,25,26
EndSplineSet
EndChar

StartChar: onequarter
Encoding: 188 188 126
Width: 535
GlyphClass: 3
Flags: W
LayerCount: 2
Fore
SplineSet
152 216 m 0,0,1
 121 216 121 216 115 252 c 1,2,3
 116 305 116 305 131 368 c 1,4,5
 128 365 128 365 107.5 357.5 c 128,-1,6
 87 350 87 350 83 348 c 1,7,8
 53 348 53 348 53 379 c 0,9,10
 53 401 53 401 95 434.5 c 128,-1,11
 137 468 137 468 169 468 c 0,12,13
 205 468 205 468 205 419 c 0,14,15
 205 393 205 393 197 333 c 128,-1,16
 189 273 189 273 188.5 260 c 128,-1,17
 188 247 188 247 177 231.5 c 128,-1,18
 166 216 166 216 152 216 c 0,0,1
445 404 m 1,19,-1
 433 387 l 2,20,21
 428 379 428 379 300 207 c 128,-1,22
 172 35 172 35 160 18 c 128,-1,23
 148 1 148 1 131.5 1 c 128,-1,24
 115 1 115 1 103.5 11 c 128,-1,25
 92 21 92 21 92 33 c 128,-1,26
 92 45 92 45 97 53 c 2,27,-1
 149 120 l 2,28,29
 261 264 261 264 281 295 c 0,30,31
 381 450 381 450 413 464 c 0,32,33
 420 468 420 468 431 468 c 128,-1,34
 442 468 442 468 450 457.5 c 128,-1,35
 458 447 458 447 458 431.5 c 128,-1,36
 458 416 458 416 445 404 c 1,19,-1
401 31 m 1,37,-1
 401 73 l 1,38,-1
 377 73 l 2,39,40
 334 73 334 73 320 80.5 c 128,-1,41
 306 88 306 88 306 106 c 0,42,43
 306 135 306 135 404 245 c 1,44,45
 416 254 416 254 432 254 c 0,46,47
 464 254 464 254 473 228 c 1,48,49
 475 218 475 218 474 212 c 128,-1,50
 473 206 473 206 464 136 c 1,51,52
 487 131 487 131 487 111.5 c 128,-1,53
 487 92 487 92 473 84 c 0,54,55
 472 84 472 84 470.5 83 c 128,-1,56
 469 82 469 82 463 79 c 1,57,58
 461 73 461 73 461 53 c 0,59,60
 459 -1 459 -1 432.5 -1 c 128,-1,61
 406 -1 406 -1 401 31 c 1,37,-1
404 148 m 2,62,-1
 404 158 l 1,63,64
 403 162 403 162 403 168 c 1,65,66
 388 153 388 153 376 131 c 1,67,68
 404 135 404 135 404 148 c 2,62,-1
EndSplineSet
Ligature2: "'frac' Diagonal Fractions lookup 11 subtable" one slash four
EndChar

StartChar: onehalf
Encoding: 189 189 127
Width: 586
GlyphClass: 3
Flags: W
LayerCount: 2
Fore
SplineSet
152 216 m 0,0,1
 121 216 121 216 115 252 c 1,2,3
 116 305 116 305 131 368 c 1,4,5
 128 365 128 365 107.5 357.5 c 128,-1,6
 87 350 87 350 83 348 c 1,7,8
 53 348 53 348 53 379 c 0,9,10
 53 401 53 401 95 434.5 c 128,-1,11
 137 468 137 468 169 468 c 0,12,13
 205 468 205 468 205 419 c 0,14,15
 205 393 205 393 197 333 c 128,-1,16
 189 273 189 273 188.5 260 c 128,-1,17
 188 247 188 247 177 231.5 c 128,-1,18
 166 216 166 216 152 216 c 0,0,1
445 404 m 1,19,-1
 433 387 l 2,20,21
 428 379 428 379 300 207 c 128,-1,22
 172 35 172 35 160 18 c 128,-1,23
 148 1 148 1 131.5 1 c 128,-1,24
 115 1 115 1 103.5 11 c 128,-1,25
 92 21 92 21 92 33 c 128,-1,26
 92 45 92 45 97 53 c 2,27,-1
 149 120 l 2,28,29
 261 264 261 264 281 295 c 0,30,31
 381 450 381 450 413 464 c 0,32,33
 420 468 420 468 431 468 c 128,-1,34
 442 468 442 468 450 457.5 c 128,-1,35
 458 447 458 447 458 431.5 c 128,-1,36
 458 416 458 416 445 404 c 1,19,-1
460 -1 m 2,37,-1
 425 -1 l 1,38,39
 347 0 347 0 347 37 c 0,40,41
 347 68 347 68 391 99 c 1,42,43
 436 128 436 128 436 152 c 0,44,45
 436 161 436 161 432 169 c 1,46,47
 424 169 424 169 407 162 c 128,-1,48
 390 155 390 155 378.5 155 c 128,-1,49
 367 155 367 155 357.5 164.5 c 128,-1,50
 348 174 348 174 348 193.5 c 128,-1,51
 348 213 348 213 376 230 c 128,-1,52
 404 247 404 247 435 247 c 0,53,54
 515 247 515 247 515 174 c 0,55,56
 515 134 515 134 432 65 c 1,57,58
 432 65 432 65 500 73 c 1,59,60
 513 73 513 73 521 63.5 c 128,-1,61
 529 54 529 54 529 37.5 c 128,-1,62
 529 21 529 21 516 12 c 0,63,64
 514 11 514 11 509.5 8 c 128,-1,65
 505 5 505 5 498 2 c 128,-1,66
 491 -1 491 -1 460 -1 c 2,37,-1
EndSplineSet
Ligature2: "'frac' Diagonal Fractions lookup 11 subtable" one slash two
EndChar

StartChar: threequarters
Encoding: 190 190 128
Width: 536
GlyphClass: 3
Flags: W
LayerCount: 2
Fore
SplineSet
444 404 m 1,0,-1
 362 294 l 2,1,2
 176 43 176 43 163 22 c 128,-1,3
 150 1 150 1 129 1 c 128,-1,4
 108 1 108 1 96 19 c 0,5,6
 91 27 91 27 91 36 c 128,-1,7
 91 45 91 45 100 57.5 c 128,-1,8
 109 70 109 70 187 172 c 128,-1,9
 265 274 265 274 280 297 c 128,-1,10
 295 320 295 320 311 344 c 2,11,-1
 325 365 l 2,12,13
 394 468 394 468 426 468 c 0,14,15
 439 468 439 468 447.5 457.5 c 128,-1,16
 456 447 456 447 456 431.5 c 128,-1,17
 456 416 456 416 444 404 c 1,0,-1
89 400 m 2,18,19
 60 400 60 400 60 433.5 c 128,-1,20
 60 467 60 467 112 467 c 0,21,22
 152 467 152 467 178.5 454.5 c 128,-1,23
 205 442 205 442 205 419 c 0,24,25
 205 368 205 368 175 353 c 1,26,27
 191 350 191 350 201.5 332 c 128,-1,28
 212 314 212 314 212 293.5 c 128,-1,29
 212 273 212 273 191 250.5 c 128,-1,30
 170 228 170 228 138 228 c 128,-1,31
 106 228 106 228 75 240 c 128,-1,32
 44 252 44 252 44 272 c 0,33,34
 44 285 44 285 54.5 294.5 c 128,-1,35
 65 304 65 304 80 305 c 1,36,37
 113 299 113 299 116 299 c 0,38,39
 134 299 134 299 144 317 c 1,40,41
 132 317 132 317 111 334 c 0,42,43
 103 340 103 340 103 353 c 128,-1,44
 103 366 103 366 111 371 c 2,45,-1
 144 389 l 1,46,47
 139 400 139 400 112 400 c 2,48,-1
 89 400 l 2,18,19
395 73 m 1,49,-1
 371 73 l 2,50,51
 328 73 328 73 313.5 80.5 c 128,-1,52
 299 88 299 88 299 106 c 0,53,54
 299 135 299 135 397 245 c 1,55,56
 409 254 409 254 425 254 c 0,57,58
 457 254 457 254 466 228 c 1,59,60
 468 218 468 218 467 212 c 128,-1,61
 466 206 466 206 457 136 c 1,62,63
 481 132 481 132 481 107 c 0,64,65
 481 97 481 97 476 90.5 c 128,-1,66
 471 84 471 84 456 79 c 1,67,68
 455 74 455 74 455 57 c 0,69,70
 453 -1 453 -1 429 -1 c 0,71,72
 398 -1 398 -1 395 31 c 1,73,-1
 395 73 l 1,49,-1
368 131 m 1,74,75
 375 132 375 132 395 132 c 1,76,77
 396 140 396 140 396 168 c 1,78,79
 383 155 383 155 368 131 c 1,74,75
EndSplineSet
Ligature2: "'frac' Diagonal Fractions lookup 11 subtable" three slash four
EndChar

StartChar: questiondown
Encoding: 191 191 129
Width: 375
GlyphClass: 2
Flags: W
LayerCount: 2
Fore
SplineSet
231 386.5 m 128,-1,1
 218 371 218 371 202 371 c 0,2,3
 170 371 170 371 159 379.5 c 128,-1,4
 148 388 148 388 148 419 c 0,5,6
 148 472 148 472 194 472 c 0,7,8
 211 472 211 472 227.5 456.5 c 128,-1,9
 244 441 244 441 244 421.5 c 128,-1,0
 244 402 244 402 231 386.5 c 128,-1,1
107 -68 m 0,10,11
 107 -91 107 -91 133 -111 c 128,-1,12
 159 -131 159 -131 186 -131 c 0,13,14
 235 -131 235 -131 264.5 -91.5 c 128,-1,15
 294 -52 294 -52 311.5 -52 c 128,-1,16
 329 -52 329 -52 340.5 -63 c 128,-1,17
 352 -74 352 -74 352 -92 c 0,18,19
 352 -130 352 -130 298.5 -169.5 c 128,-1,20
 245 -209 245 -209 187 -209 c 0,21,22
 105 -209 105 -209 57 -143 c 0,23,24
 31 -108 31 -108 31 -68 c 0,25,26
 31 -2 31 -2 86 60 c 0,27,28
 108 86 108 86 131 108 c 0,29,30
 185 162 185 162 185 181 c 128,-1,31
 185 200 185 200 171.5 222.5 c 128,-1,32
 158 245 158 245 158 255.5 c 128,-1,33
 158 266 158 266 169.5 276.5 c 128,-1,34
 181 287 181 287 193 287 c 0,35,36
 221 287 221 287 244.5 257 c 128,-1,37
 268 227 268 227 268 189 c 0,38,39
 268 126 268 126 218 72 c 0,40,41
 190 42 190 42 175 29 c 0,42,43
 107 -34 107 -34 107 -68 c 0,10,11
EndSplineSet
EndChar

StartChar: Agrave
Encoding: 192 192 130
Width: 488
GlyphClass: 2
Flags: W
LayerCount: 2
Fore
SplineSet
329 710 m 1,0,1
 320 696 320 696 306.5 696 c 128,-1,2
 293 696 293 696 274.5 706 c 128,-1,3
 256 716 256 716 228.5 743 c 128,-1,4
 201 770 201 770 187.5 795.5 c 128,-1,5
 174 821 174 821 174 830.5 c 128,-1,6
 174 840 174 840 176 848.5 c 128,-1,7
 178 857 178 857 189.5 863.5 c 128,-1,8
 201 870 201 870 208 870 c 128,-1,9
 215 870 215 870 219 869 c 0,10,11
 234 865 234 865 260 821.5 c 128,-1,12
 286 778 286 778 317 762 c 0,13,14
 333 754 333 754 335 736 c 128,-1,15
 337 718 337 718 329 710 c 1,0,1
259 659 m 0,16,17
 284 659 284 659 301 637 c 128,-1,18
 318 615 318 615 345 546 c 0,19,20
 408 383 408 383 468 35 c 0,21,22
 469 31 469 31 469 23.5 c 128,-1,23
 469 16 469 16 459.5 7.5 c 128,-1,24
 450 -1 450 -1 432.5 -1 c 128,-1,25
 415 -1 415 -1 403 7.5 c 128,-1,26
 391 16 391 16 387 35.5 c 128,-1,27
 383 55 383 55 372 112 c 0,28,29
 348 239 348 239 340 244 c 0,30,31
 328 251 328 251 260.5 259 c 128,-1,32
 193 267 193 267 171 267 c 128,-1,33
 149 267 149 267 145 263 c 0,34,35
 127 247 127 247 96 20 c 1,36,37
 92 1 92 1 58 1 c 128,-1,38
 24 1 24 1 24 30 c 0,39,40
 24 102 24 102 77 305 c 128,-1,41
 130 508 130 508 165 574 c 0,42,43
 209 659 209 659 259 659 c 0,16,17
255 548 m 0,44,45
 240 548 240 548 203 459.5 c 128,-1,46
 166 371 166 371 166 350 c 0,47,48
 166 345 166 345 168 343 c 0,49,50
 176 335 176 335 231 329 c 128,-1,51
 286 323 286 323 304 323 c 128,-1,52
 322 323 322 323 324 325.5 c 128,-1,53
 326 328 326 328 326 341.5 c 128,-1,54
 326 355 326 355 299 451.5 c 128,-1,55
 272 548 272 548 255 548 c 0,44,45
EndSplineSet
Position2: "'cpsp' Capital Spacing lookup 0 subtable" dx=5 dy=0 dh=10 dv=0
EndChar

StartChar: Aacute
Encoding: 193 193 131
Width: 488
GlyphClass: 2
Flags: W
LayerCount: 2
Fore
SplineSet
262 859 m 0,0,1
 268 876 268 876 287.5 876 c 128,-1,2
 307 876 307 876 318.5 864 c 128,-1,3
 330 852 330 852 330 844.5 c 128,-1,4
 330 837 330 837 328 832 c 0,5,6
 312 787 312 787 274.5 747 c 128,-1,7
 237 707 237 707 217 707 c 128,-1,8
 197 707 197 707 187 717 c 128,-1,9
 177 727 177 727 177 740.5 c 128,-1,10
 177 754 177 754 192 766 c 0,11,12
 246 810 246 810 262 859 c 0,0,1
259 659 m 0,13,14
 284 659 284 659 301 637 c 128,-1,15
 318 615 318 615 345 546 c 0,16,17
 408 383 408 383 468 35 c 0,18,19
 469 31 469 31 469 23.5 c 128,-1,20
 469 16 469 16 459.5 7.5 c 128,-1,21
 450 -1 450 -1 432.5 -1 c 128,-1,22
 415 -1 415 -1 403 7.5 c 128,-1,23
 391 16 391 16 387 35.5 c 128,-1,24
 383 55 383 55 372 112 c 0,25,26
 348 239 348 239 340 244 c 0,27,28
 328 251 328 251 260.5 259 c 128,-1,29
 193 267 193 267 171 267 c 128,-1,30
 149 267 149 267 145 263 c 0,31,32
 127 247 127 247 96 20 c 1,33,34
 92 1 92 1 58 1 c 128,-1,35
 24 1 24 1 24 30 c 0,36,37
 24 102 24 102 77 305 c 128,-1,38
 130 508 130 508 165 574 c 0,39,40
 209 659 209 659 259 659 c 0,13,14
255 548 m 0,41,42
 240 548 240 548 203 459.5 c 128,-1,43
 166 371 166 371 166 350 c 0,44,45
 166 345 166 345 168 343 c 0,46,47
 176 335 176 335 231 329 c 128,-1,48
 286 323 286 323 304 323 c 128,-1,49
 322 323 322 323 324 325.5 c 128,-1,50
 326 328 326 328 326 341.5 c 128,-1,51
 326 355 326 355 299 451.5 c 128,-1,52
 272 548 272 548 255 548 c 0,41,42
EndSplineSet
Position2: "'cpsp' Capital Spacing lookup 0 subtable" dx=5 dy=0 dh=10 dv=0
EndChar

StartChar: Acircumflex
Encoding: 194 194 132
Width: 488
GlyphClass: 2
Flags: W
LayerCount: 2
Fore
SplineSet
186 811 m 128,-1,1
 237 851 237 851 259.5 851 c 128,-1,2
 282 851 282 851 331 813.5 c 128,-1,3
 380 776 380 776 380 753 c 0,4,5
 380 739 380 739 368 729 c 128,-1,6
 356 719 356 719 348 719 c 128,-1,7
 340 719 340 719 304 751 c 128,-1,8
 268 783 268 783 258.5 783 c 128,-1,9
 249 783 249 783 215.5 750 c 128,-1,10
 182 717 182 717 168 717 c 128,-1,11
 154 717 154 717 144.5 728.5 c 128,-1,12
 135 740 135 740 135 755.5 c 128,-1,0
 135 771 135 771 186 811 c 128,-1,1
259 659 m 0,13,14
 284 659 284 659 301 637 c 128,-1,15
 318 615 318 615 345 546 c 0,16,17
 408 383 408 383 468 35 c 0,18,19
 469 31 469 31 469 23.5 c 128,-1,20
 469 16 469 16 459.5 7.5 c 128,-1,21
 450 -1 450 -1 432.5 -1 c 128,-1,22
 415 -1 415 -1 403 7.5 c 128,-1,23
 391 16 391 16 387 35.5 c 128,-1,24
 383 55 383 55 372 112 c 0,25,26
 348 239 348 239 340 244 c 0,27,28
 328 251 328 251 260.5 259 c 128,-1,29
 193 267 193 267 171 267 c 128,-1,30
 149 267 149 267 145 263 c 0,31,32
 127 247 127 247 96 20 c 1,33,34
 92 1 92 1 58 1 c 128,-1,35
 24 1 24 1 24 30 c 0,36,37
 24 102 24 102 77 305 c 128,-1,38
 130 508 130 508 165 574 c 0,39,40
 209 659 209 659 259 659 c 0,13,14
255 548 m 0,41,42
 240 548 240 548 203 459.5 c 128,-1,43
 166 371 166 371 166 350 c 0,44,45
 166 345 166 345 168 343 c 0,46,47
 176 335 176 335 231 329 c 128,-1,48
 286 323 286 323 304 323 c 128,-1,49
 322 323 322 323 324 325.5 c 128,-1,50
 326 328 326 328 326 341.5 c 128,-1,51
 326 355 326 355 299 451.5 c 128,-1,52
 272 548 272 548 255 548 c 0,41,42
EndSplineSet
Position2: "'cpsp' Capital Spacing lookup 0 subtable" dx=5 dy=0 dh=10 dv=0
EndChar

StartChar: Atilde
Encoding: 195 195 133
Width: 488
GlyphClass: 2
Flags: W
LayerCount: 2
Fore
SplineSet
149.5 805 m 128,-1,1
 179 829 179 829 205.5 829 c 128,-1,2
 232 829 232 829 248 821 c 128,-1,3
 264 813 264 813 270 803 c 0,4,5
 286 777 286 777 299 777 c 128,-1,6
 312 777 312 777 327.5 801 c 128,-1,7
 343 825 343 825 356.5 825 c 128,-1,8
 370 825 370 825 380 813 c 128,-1,9
 390 801 390 801 390 788 c 0,10,11
 390 752 390 752 360.5 733 c 128,-1,12
 331 714 331 714 303.5 714 c 128,-1,13
 276 714 276 714 261 725.5 c 128,-1,14
 246 737 246 737 235 748.5 c 128,-1,15
 224 760 224 760 211 760 c 0,16,17
 205 760 205 760 186 737.5 c 128,-1,18
 167 715 167 715 154 715 c 128,-1,19
 141 715 141 715 130.5 727.5 c 128,-1,20
 120 740 120 740 120 760.5 c 128,-1,0
 120 781 120 781 149.5 805 c 128,-1,1
259 659 m 0,21,22
 284 659 284 659 301 637 c 128,-1,23
 318 615 318 615 345 546 c 0,24,25
 408 383 408 383 468 35 c 0,26,27
 469 31 469 31 469 23.5 c 128,-1,28
 469 16 469 16 459.5 7.5 c 128,-1,29
 450 -1 450 -1 432.5 -1 c 128,-1,30
 415 -1 415 -1 403 7.5 c 128,-1,31
 391 16 391 16 387 35.5 c 128,-1,32
 383 55 383 55 372 112 c 0,33,34
 348 239 348 239 340 244 c 0,35,36
 328 251 328 251 260.5 259 c 128,-1,37
 193 267 193 267 171 267 c 128,-1,38
 149 267 149 267 145 263 c 0,39,40
 127 247 127 247 96 20 c 1,41,42
 92 1 92 1 58 1 c 128,-1,43
 24 1 24 1 24 30 c 0,44,45
 24 102 24 102 77 305 c 128,-1,46
 130 508 130 508 165 574 c 0,47,48
 209 659 209 659 259 659 c 0,21,22
255 548 m 0,49,50
 240 548 240 548 203 459.5 c 128,-1,51
 166 371 166 371 166 350 c 0,52,53
 166 345 166 345 168 343 c 0,54,55
 176 335 176 335 231 329 c 128,-1,56
 286 323 286 323 304 323 c 128,-1,57
 322 323 322 323 324 325.5 c 128,-1,58
 326 328 326 328 326 341.5 c 128,-1,59
 326 355 326 355 299 451.5 c 128,-1,60
 272 548 272 548 255 548 c 0,49,50
EndSplineSet
Position2: "'cpsp' Capital Spacing lookup 0 subtable" dx=5 dy=0 dh=10 dv=0
EndChar

StartChar: Adieresis
Encoding: 196 196 134
Width: 488
GlyphClass: 2
Flags: W
LayerCount: 2
Fore
SplineSet
167 711 m 0,0,1
 130 711 130 711 122 750 c 1,2,3
 122 773 122 773 139 790.5 c 128,-1,4
 156 808 156 808 176.5 808 c 128,-1,5
 197 808 197 808 209 794 c 128,-1,6
 221 780 221 780 222 756 c 1,7,8
 219 736 219 736 203.5 723.5 c 128,-1,9
 188 711 188 711 167 711 c 0,0,1
347 807 m 0,10,11
 365 807 365 807 377.5 796.5 c 128,-1,12
 390 786 390 786 391 768 c 1,13,14
 388 743 388 743 373 728.5 c 128,-1,15
 358 714 358 714 338.5 714 c 128,-1,16
 319 714 319 714 306 727.5 c 128,-1,17
 293 741 293 741 293 762 c 0,18,19
 293 807 293 807 347 807 c 0,10,11
259 659 m 0,20,21
 284 659 284 659 301 637 c 128,-1,22
 318 615 318 615 345 546 c 0,23,24
 408 383 408 383 468 35 c 0,25,26
 469 31 469 31 469 23.5 c 128,-1,27
 469 16 469 16 459.5 7.5 c 128,-1,28
 450 -1 450 -1 432.5 -1 c 128,-1,29
 415 -1 415 -1 403 7.5 c 128,-1,30
 391 16 391 16 387 35.5 c 128,-1,31
 383 55 383 55 372 112 c 0,32,33
 348 239 348 239 340 244 c 0,34,35
 328 251 328 251 260.5 259 c 128,-1,36
 193 267 193 267 171 267 c 128,-1,37
 149 267 149 267 145 263 c 0,38,39
 127 247 127 247 96 20 c 1,40,41
 92 1 92 1 58 1 c 128,-1,42
 24 1 24 1 24 30 c 0,43,44
 24 102 24 102 77 305 c 128,-1,45
 130 508 130 508 165 574 c 0,46,47
 209 659 209 659 259 659 c 0,20,21
255 548 m 0,48,49
 240 548 240 548 203 459.5 c 128,-1,50
 166 371 166 371 166 350 c 0,51,52
 166 345 166 345 168 343 c 0,53,54
 176 335 176 335 231 329 c 128,-1,55
 286 323 286 323 304 323 c 128,-1,56
 322 323 322 323 324 325.5 c 128,-1,57
 326 328 326 328 326 341.5 c 128,-1,58
 326 355 326 355 299 451.5 c 128,-1,59
 272 548 272 548 255 548 c 0,48,49
EndSplineSet
Position2: "'cpsp' Capital Spacing lookup 0 subtable" dx=5 dy=0 dh=10 dv=0
EndChar

StartChar: Aring
Encoding: 197 197 135
Width: 488
GlyphClass: 2
Flags: W
LayerCount: 2
Fore
SplineSet
195.5 835 m 128,-1,1
 224 859 224 859 261.5 859 c 128,-1,2
 299 859 299 859 319.5 835 c 128,-1,3
 340 811 340 811 340 774 c 0,4,5
 340 735 340 735 314 712 c 128,-1,6
 288 689 288 689 252.5 689 c 128,-1,7
 217 689 217 689 192 716 c 128,-1,8
 167 743 167 743 167 777 c 128,-1,0
 167 811 167 811 195.5 835 c 128,-1,1
259 809 m 0,9,10
 246 809 246 809 236 800 c 128,-1,11
 226 791 226 791 226 778 c 0,12,13
 226 750 226 750 252 750 c 0,14,15
 284 750 284 750 284 779.5 c 128,-1,16
 284 809 284 809 259 809 c 0,9,10
259 659 m 0,17,18
 284 659 284 659 301 637 c 128,-1,19
 318 615 318 615 345 546 c 0,20,21
 408 383 408 383 468 35 c 0,22,23
 469 31 469 31 469 23.5 c 128,-1,24
 469 16 469 16 459.5 7.5 c 128,-1,25
 450 -1 450 -1 432.5 -1 c 128,-1,26
 415 -1 415 -1 403 7.5 c 128,-1,27
 391 16 391 16 387 35.5 c 128,-1,28
 383 55 383 55 372 112 c 0,29,30
 348 239 348 239 340 244 c 0,31,32
 328 251 328 251 260.5 259 c 128,-1,33
 193 267 193 267 171 267 c 128,-1,34
 149 267 149 267 145 263 c 0,35,36
 127 247 127 247 96 20 c 1,37,38
 92 1 92 1 58 1 c 128,-1,39
 24 1 24 1 24 30 c 0,40,41
 24 102 24 102 77 305 c 128,-1,42
 130 508 130 508 165 574 c 0,43,44
 209 659 209 659 259 659 c 0,17,18
255 548 m 0,45,46
 240 548 240 548 203 459.5 c 128,-1,47
 166 371 166 371 166 350 c 0,48,49
 166 345 166 345 168 343 c 0,50,51
 176 335 176 335 231 329 c 128,-1,52
 286 323 286 323 304 323 c 128,-1,53
 322 323 322 323 324 325.5 c 128,-1,54
 326 328 326 328 326 341.5 c 128,-1,55
 326 355 326 355 299 451.5 c 128,-1,56
 272 548 272 548 255 548 c 0,45,46
EndSplineSet
Position2: "'cpsp' Capital Spacing lookup 0 subtable" dx=5 dy=0 dh=10 dv=0
EndChar

StartChar: AE
Encoding: 198 198 136
Width: 661
GlyphClass: 2
Flags: W
LayerCount: 2
Fore
SplineSet
559 368 m 1,0,1
 595 362 595 362 595 337 c 0,2,3
 595 324 595 324 583.5 311.5 c 128,-1,4
 572 299 572 299 556 295 c 1,5,6
 540 295 540 295 513 297 c 128,-1,7
 486 299 486 299 427 299 c 2,8,-1
 401 299 l 1,9,-1
 407 102 l 1,10,-1
 407 76 l 1,11,-1
 595 79 l 1,12,13
 628 74 628 74 628 50 c 0,14,15
 628 30 628 30 605 12 c 1,16,17
 593 4 593 4 583 1 c 1,18,-1
 380 1 l 2,19,20
 377 1 377 1 375 1 c 0,21,22
 320 1 320 1 320 31 c 2,23,24
 320 31 320 31 323 289 c 1,25,-1
 233 287 l 1,26,27
 185 287 185 287 152 296 c 1,28,29
 134 223 134 223 123 131 c 1,30,-1
 108 25 l 2,31,32
 105 1 105 1 70.5 1 c 128,-1,33
 36 1 36 1 36 29 c 0,34,35
 36 119 36 119 55 230.5 c 128,-1,36
 74 342 74 342 124 427 c 0,37,38
 196 552 196 552 248.5 597.5 c 128,-1,39
 301 643 301 643 372 643 c 2,40,-1
 601 643 l 1,41,42
 638 631 638 631 638 608 c 0,43,44
 638 560 638 560 522 560 c 2,45,-1
 487 560 l 2,46,47
 481 560 481 560 396 568 c 1,48,49
 396 416 396 416 400 372 c 1,50,-1
 559 368 l 1,0,1
313 563 m 1,51,52
 280 541 280 541 241 491.5 c 128,-1,53
 202 442 202 442 172 373 c 1,54,55
 200 368 200 368 226 368 c 1,56,-1
 317 372 l 1,57,58
 318 385 318 385 318 411.5 c 128,-1,59
 318 438 318 438 313 563 c 1,51,52
EndSplineSet
Position2: "'cpsp' Capital Spacing lookup 0 subtable" dx=5 dy=0 dh=10 dv=0
EndChar

StartChar: Ccedilla
Encoding: 199 199 137
Width: 548
GlyphClass: 2
Flags: W
LayerCount: 2
Fore
SplineSet
339 -17 m 2,0,-1
 372 -13 l 1,1,2
 394 -13 394 -13 408 -21 c 0,3,4
 429 -33 429 -33 436 -70 c 0,5,6
 439 -86 439 -86 439 -99 c 0,7,8
 439 -132 439 -132 414 -157 c 128,-1,9
 389 -182 389 -182 342.5 -182 c 128,-1,10
 296 -182 296 -182 267.5 -169 c 128,-1,11
 239 -156 239 -156 239 -139 c 128,-1,12
 239 -122 239 -122 247 -112 c 128,-1,13
 255 -102 255 -102 263 -102 c 128,-1,14
 271 -102 271 -102 296 -115 c 128,-1,15
 321 -128 321 -128 341 -128 c 128,-1,16
 361 -128 361 -128 373.5 -118 c 128,-1,17
 386 -108 386 -108 386 -98 c 0,18,19
 386 -69 386 -69 371 -64 c 0,20,21
 367 -63 367 -63 355 -63 c 128,-1,22
 343 -63 343 -63 319 -65 c 1,23,24
 274 -65 274 -65 274 -12 c 2,25,-1
 274 2 l 1,26,27
 268 1 268 1 256 1 c 0,28,29
 184 1 184 1 133 54 c 1,30,31
 42 152 42 152 42 321.5 c 128,-1,32
 42 491 42 491 128.5 572.5 c 128,-1,33
 215 654 215 654 336 654 c 0,34,35
 403 654 403 654 484 628 c 1,36,37
 502 614 502 614 502 597.5 c 128,-1,38
 502 581 502 581 485.5 568.5 c 128,-1,39
 469 556 469 556 448 556 c 1,40,41
 394 570 394 570 347 570 c 0,42,43
 239 570 239 570 183 506 c 128,-1,44
 127 442 127 442 127 316 c 128,-1,45
 127 190 127 190 193 119 c 0,46,47
 227 82 227 82 274 82 c 128,-1,48
 321 82 321 82 424 132 c 0,49,50
 460 149 460 149 472 149 c 0,51,52
 498 149 498 149 498 122 c 128,-1,53
 498 95 498 95 473 77 c 1,54,55
 392 35 392 35 333 15 c 1,56,57
 332 7 332 7 332 -5 c 128,-1,58
 332 -17 332 -17 339 -17 c 2,0,-1
EndSplineSet
Position2: "'cpsp' Capital Spacing lookup 0 subtable" dx=5 dy=0 dh=10 dv=0
EndChar

StartChar: Egrave
Encoding: 200 200 138
Width: 442
GlyphClass: 2
Flags: W
LayerCount: 2
Fore
SplineSet
305 711 m 1,0,1
 296 697 296 697 282.5 697 c 128,-1,2
 269 697 269 697 250.5 707 c 128,-1,3
 232 717 232 717 204.5 744 c 128,-1,4
 177 771 177 771 163.5 796.5 c 128,-1,5
 150 822 150 822 150 831.5 c 128,-1,6
 150 841 150 841 152 849.5 c 128,-1,7
 154 858 154 858 165.5 864.5 c 128,-1,8
 177 871 177 871 184 871 c 128,-1,9
 191 871 191 871 195 870 c 0,10,11
 210 866 210 866 236 822.5 c 128,-1,12
 262 779 262 779 293 763 c 0,13,14
 309 755 309 755 311 737 c 128,-1,15
 313 719 313 719 305 711 c 1,0,1
55 344 m 1,16,17
 41 353 41 353 41 370 c 128,-1,18
 41 387 41 387 52 401 c 1,19,20
 48 501 48 501 48 612 c 1,21,22
 54 636 54 636 66.5 647 c 128,-1,23
 79 658 79 658 103 661 c 1,24,25
 235 655 235 655 389 655 c 1,26,27
 427 647 427 647 427 622 c 0,28,29
 427 580 427 580 345 573 c 0,30,31
 323 572 323 572 297 572 c 2,32,-1
 232 572 l 2,33,34
 213 572 213 572 127 580 c 1,35,36
 127 455 127 455 131 408 c 1,37,38
 184 407 184 407 335 407 c 1,39,40
 371 400 371 400 371 374.5 c 128,-1,41
 371 349 371 349 342 335 c 0,42,43
 339 333 339 333 331 331 c 1,44,-1
 158 334 l 2,45,46
 142 334 142 334 132 332 c 1,47,-1
 136 160 l 1,48,49
 136 102 136 102 133 77 c 1,50,-1
 365 80 l 1,51,52
 397 75 397 75 397 53 c 0,53,54
 397 38 397 38 383.5 23 c 128,-1,55
 370 8 370 8 352 4 c 1,56,-1
 96 0 l 2,57,58
 73 0 73 0 64 8.5 c 128,-1,59
 55 17 55 17 55 37 c 1,60,61
 59 65 59 65 59 127 c 2,62,-1
 59 197 l 1,63,-1
 55 344 l 1,16,17
EndSplineSet
Position2: "'cpsp' Capital Spacing lookup 0 subtable" dx=5 dy=0 dh=10 dv=0
EndChar

StartChar: Eacute
Encoding: 201 201 139
Width: 442
GlyphClass: 2
Flags: W
LayerCount: 2
Fore
SplineSet
238 860 m 0,0,1
 244 877 244 877 263.5 877 c 128,-1,2
 283 877 283 877 294.5 865 c 128,-1,3
 306 853 306 853 306 845.5 c 128,-1,4
 306 838 306 838 304 833 c 0,5,6
 288 788 288 788 250.5 748 c 128,-1,7
 213 708 213 708 193 708 c 128,-1,8
 173 708 173 708 163 718 c 128,-1,9
 153 728 153 728 153 741.5 c 128,-1,10
 153 755 153 755 168 768 c 0,11,12
 222 811 222 811 238 860 c 0,0,1
55 344 m 1,13,14
 41 353 41 353 41 370 c 128,-1,15
 41 387 41 387 52 401 c 1,16,17
 48 501 48 501 48 612 c 1,18,19
 54 636 54 636 66.5 647 c 128,-1,20
 79 658 79 658 103 661 c 1,21,22
 235 655 235 655 389 655 c 1,23,24
 427 647 427 647 427 622 c 0,25,26
 427 580 427 580 345 573 c 0,27,28
 323 572 323 572 297 572 c 2,29,-1
 232 572 l 2,30,31
 213 572 213 572 127 580 c 1,32,33
 127 455 127 455 131 408 c 1,34,35
 184 407 184 407 335 407 c 1,36,37
 371 400 371 400 371 374.5 c 128,-1,38
 371 349 371 349 342 335 c 0,39,40
 339 333 339 333 331 331 c 1,41,-1
 158 334 l 2,42,43
 142 334 142 334 132 332 c 1,44,-1
 136 160 l 1,45,46
 136 102 136 102 133 77 c 1,47,-1
 365 80 l 1,48,49
 397 75 397 75 397 53 c 0,50,51
 397 38 397 38 383.5 23 c 128,-1,52
 370 8 370 8 352 4 c 1,53,-1
 96 0 l 2,54,55
 73 0 73 0 64 8.5 c 128,-1,56
 55 17 55 17 55 37 c 1,57,58
 59 65 59 65 59 127 c 2,59,-1
 59 197 l 1,60,-1
 55 344 l 1,13,14
EndSplineSet
Position2: "'cpsp' Capital Spacing lookup 0 subtable" dx=5 dy=0 dh=10 dv=0
EndChar

StartChar: Ecircumflex
Encoding: 202 202 140
Width: 442
GlyphClass: 2
Flags: W
LayerCount: 2
Fore
SplineSet
162 812 m 128,-1,1
 213 852 213 852 235.5 852 c 128,-1,2
 258 852 258 852 307 814.5 c 128,-1,3
 356 777 356 777 356 754 c 0,4,5
 356 740 356 740 344 730 c 128,-1,6
 332 720 332 720 324 720 c 128,-1,7
 316 720 316 720 280 752 c 128,-1,8
 244 784 244 784 234.5 784 c 128,-1,9
 225 784 225 784 191.5 751 c 128,-1,10
 158 718 158 718 144 718 c 128,-1,11
 130 718 130 718 120.5 729.5 c 128,-1,12
 111 741 111 741 111 756.5 c 128,-1,0
 111 772 111 772 162 812 c 128,-1,1
55 344 m 1,13,14
 41 353 41 353 41 370 c 128,-1,15
 41 387 41 387 52 401 c 1,16,17
 48 501 48 501 48 612 c 1,18,19
 54 636 54 636 66.5 647 c 128,-1,20
 79 658 79 658 103 661 c 1,21,22
 235 655 235 655 389 655 c 1,23,24
 427 647 427 647 427 622 c 0,25,26
 427 580 427 580 345 573 c 0,27,28
 323 572 323 572 297 572 c 2,29,-1
 232 572 l 2,30,31
 213 572 213 572 127 580 c 1,32,33
 127 455 127 455 131 408 c 1,34,35
 184 407 184 407 335 407 c 1,36,37
 371 400 371 400 371 374.5 c 128,-1,38
 371 349 371 349 342 335 c 0,39,40
 339 333 339 333 331 331 c 1,41,-1
 158 334 l 2,42,43
 142 334 142 334 132 332 c 1,44,-1
 136 160 l 1,45,46
 136 102 136 102 133 77 c 1,47,-1
 365 80 l 1,48,49
 397 75 397 75 397 53 c 0,50,51
 397 38 397 38 383.5 23 c 128,-1,52
 370 8 370 8 352 4 c 1,53,-1
 96 0 l 2,54,55
 73 0 73 0 64 8.5 c 128,-1,56
 55 17 55 17 55 37 c 1,57,58
 59 65 59 65 59 127 c 2,59,-1
 59 197 l 1,60,-1
 55 344 l 1,13,14
EndSplineSet
Position2: "'cpsp' Capital Spacing lookup 0 subtable" dx=5 dy=0 dh=10 dv=0
EndChar

StartChar: Edieresis
Encoding: 203 203 141
Width: 442
GlyphClass: 2
Flags: W
LayerCount: 2
Fore
SplineSet
143 712 m 0,0,1
 106 712 106 712 98 751 c 1,2,3
 98 774 98 774 115 791.5 c 128,-1,4
 132 809 132 809 152.5 809 c 128,-1,5
 173 809 173 809 185 795 c 128,-1,6
 197 781 197 781 198 757 c 1,7,8
 195 737 195 737 179.5 724.5 c 128,-1,9
 164 712 164 712 143 712 c 0,0,1
323 808 m 0,10,11
 341 808 341 808 353.5 797.5 c 128,-1,12
 366 787 366 787 367 769 c 1,13,14
 364 744 364 744 349 729.5 c 128,-1,15
 334 715 334 715 314.5 715 c 128,-1,16
 295 715 295 715 282 728.5 c 128,-1,17
 269 742 269 742 269 763 c 0,18,19
 269 808 269 808 323 808 c 0,10,11
55 344 m 1,20,21
 41 353 41 353 41 370 c 128,-1,22
 41 387 41 387 52 401 c 1,23,24
 48 501 48 501 48 612 c 1,25,26
 54 636 54 636 66.5 647 c 128,-1,27
 79 658 79 658 103 661 c 1,28,29
 235 655 235 655 389 655 c 1,30,31
 427 647 427 647 427 622 c 0,32,33
 427 580 427 580 345 573 c 0,34,35
 323 572 323 572 297 572 c 2,36,-1
 232 572 l 2,37,38
 213 572 213 572 127 580 c 1,39,40
 127 455 127 455 131 408 c 1,41,42
 184 407 184 407 335 407 c 1,43,44
 371 400 371 400 371 374.5 c 128,-1,45
 371 349 371 349 342 335 c 0,46,47
 339 333 339 333 331 331 c 1,48,-1
 158 334 l 2,49,50
 142 334 142 334 132 332 c 1,51,-1
 136 160 l 1,52,53
 136 102 136 102 133 77 c 1,54,-1
 365 80 l 1,55,56
 397 75 397 75 397 53 c 0,57,58
 397 38 397 38 383.5 23 c 128,-1,59
 370 8 370 8 352 4 c 1,60,-1
 96 0 l 2,61,62
 73 0 73 0 64 8.5 c 128,-1,63
 55 17 55 17 55 37 c 1,64,65
 59 65 59 65 59 127 c 2,66,-1
 59 197 l 1,67,-1
 55 344 l 1,20,21
EndSplineSet
Position2: "'cpsp' Capital Spacing lookup 0 subtable" dx=5 dy=0 dh=10 dv=0
EndChar

StartChar: Igrave
Encoding: 204 204 142
Width: 235
GlyphClass: 2
Flags: W
LayerCount: 2
Fore
SplineSet
180 763 m 0,0,1
 198 754 198 754 198 725 c 0,2,3
 198 717 198 717 192 711 c 1,4,5
 183 697 183 697 169.5 697 c 128,-1,6
 156 697 156 697 137.5 707 c 128,-1,7
 119 717 119 717 91.5 744 c 128,-1,8
 64 771 64 771 51 796.5 c 128,-1,9
 38 822 38 822 38 831.5 c 128,-1,10
 38 841 38 841 39.5 849.5 c 128,-1,11
 41 858 41 858 52.5 864.5 c 128,-1,12
 64 871 64 871 71 871 c 128,-1,13
 78 871 78 871 82 870 c 0,14,15
 97 866 97 866 123 822.5 c 128,-1,16
 149 779 149 779 180 763 c 0,0,1
135 646 m 128,-1,18
 155 646 155 646 160 623 c 1,19,20
 161 507 161 507 164 276 c 1,21,22
 164 135 164 135 156 37 c 0,23,24
 154 22 154 22 137.5 10.5 c 128,-1,25
 121 -1 121 -1 104 -1 c 0,26,27
 76 -1 76 -1 76 28 c 1,28,29
 86 128 86 128 86 276 c 1,30,-1
 80 612 l 1,31,32
 84 626 84 626 99.5 636 c 128,-1,17
 115 646 115 646 135 646 c 128,-1,18
EndSplineSet
Position2: "'cpsp' Capital Spacing lookup 0 subtable" dx=5 dy=0 dh=10 dv=0
EndChar

StartChar: Iacute
Encoding: 205 205 143
Width: 235
GlyphClass: 2
Flags: W
LayerCount: 2
Fore
SplineSet
125 860 m 0,0,1
 131 877 131 877 150.5 877 c 128,-1,2
 170 877 170 877 181.5 865 c 128,-1,3
 193 853 193 853 193 845.5 c 128,-1,4
 193 838 193 838 191 833 c 0,5,6
 175 788 175 788 137.5 748 c 128,-1,7
 100 708 100 708 80 708 c 128,-1,8
 60 708 60 708 50 718 c 128,-1,9
 40 728 40 728 40 741.5 c 128,-1,10
 40 755 40 755 56 768 c 0,11,12
 109 811 109 811 125 860 c 0,0,1
135 646 m 128,-1,14
 155 646 155 646 160 623 c 1,15,16
 161 507 161 507 164 276 c 1,17,18
 164 135 164 135 156 37 c 0,19,20
 154 22 154 22 137.5 10.5 c 128,-1,21
 121 -1 121 -1 104 -1 c 0,22,23
 76 -1 76 -1 76 28 c 1,24,25
 86 128 86 128 86 276 c 1,26,-1
 80 612 l 1,27,28
 84 626 84 626 99.5 636 c 128,-1,13
 115 646 115 646 135 646 c 128,-1,14
EndSplineSet
Position2: "'cpsp' Capital Spacing lookup 0 subtable" dx=5 dy=0 dh=10 dv=0
EndChar

StartChar: Icircumflex
Encoding: 206 206 144
Width: 235
GlyphClass: 2
Flags: W
LayerCount: 2
Fore
SplineSet
49 812 m 128,-1,1
 100 852 100 852 122.5 852 c 128,-1,2
 145 852 145 852 194 814.5 c 128,-1,3
 243 777 243 777 243 754 c 0,4,5
 243 740 243 740 231 730 c 128,-1,6
 219 720 219 720 211.5 720 c 128,-1,7
 204 720 204 720 167 752 c 128,-1,8
 130 784 130 784 121 784 c 128,-1,9
 112 784 112 784 78.5 751 c 128,-1,10
 45 718 45 718 31 718 c 128,-1,11
 17 718 17 718 7.5 729.5 c 128,-1,12
 -2 741 -2 741 -2 756.5 c 128,-1,0
 -2 772 -2 772 49 812 c 128,-1,1
135 646 m 128,-1,14
 155 646 155 646 160 623 c 1,15,16
 161 507 161 507 164 276 c 1,17,18
 164 135 164 135 156 37 c 0,19,20
 154 22 154 22 137.5 10.5 c 128,-1,21
 121 -1 121 -1 104 -1 c 0,22,23
 76 -1 76 -1 76 28 c 1,24,25
 86 128 86 128 86 276 c 1,26,-1
 80 612 l 1,27,28
 84 626 84 626 99.5 636 c 128,-1,13
 115 646 115 646 135 646 c 128,-1,14
EndSplineSet
Position2: "'cpsp' Capital Spacing lookup 0 subtable" dx=5 dy=0 dh=10 dv=0
EndChar

StartChar: Idieresis
Encoding: 207 207 145
Width: 235
GlyphClass: 2
Flags: W
LayerCount: 2
Fore
SplineSet
30 712 m 0,0,1
 -8 712 -8 712 -15 751 c 1,2,3
 -15 774 -15 774 2 791.5 c 128,-1,4
 19 809 19 809 39.5 809 c 128,-1,5
 60 809 60 809 72 795 c 128,-1,6
 84 781 84 781 85 757 c 1,7,8
 82 737 82 737 66.5 724.5 c 128,-1,9
 51 712 51 712 30 712 c 0,0,1
210 808 m 0,10,11
 228 808 228 808 240.5 797.5 c 128,-1,12
 253 787 253 787 254 769 c 1,13,14
 251 744 251 744 236 729.5 c 128,-1,15
 221 715 221 715 201.5 715 c 128,-1,16
 182 715 182 715 169 728.5 c 128,-1,17
 156 742 156 742 156 763 c 0,18,19
 156 808 156 808 210 808 c 0,10,11
135 646 m 128,-1,21
 155 646 155 646 160 623 c 1,22,23
 161 507 161 507 164 276 c 1,24,25
 164 135 164 135 156 37 c 0,26,27
 154 22 154 22 137.5 10.5 c 128,-1,28
 121 -1 121 -1 104 -1 c 0,29,30
 76 -1 76 -1 76 28 c 1,31,32
 86 128 86 128 86 276 c 1,33,-1
 80 612 l 1,34,35
 84 626 84 626 99.5 636 c 128,-1,20
 115 646 115 646 135 646 c 128,-1,21
EndSplineSet
Position2: "'cpsp' Capital Spacing lookup 0 subtable" dx=5 dy=0 dh=10 dv=0
EndChar

StartChar: Eth
Encoding: 208 208 146
Width: 589
GlyphClass: 2
Flags: W
LayerCount: 2
Fore
SplineSet
127 79 m 1,0,1
 114 179 114 179 109 317 c 1,2,-1
 72 317 l 1,3,4
 36 322 36 322 36 355 c 0,5,6
 36 370 36 370 46 380.5 c 128,-1,7
 56 391 56 391 73 392 c 1,8,-1
 109 392 l 1,9,10
 109 561 109 561 113 625 c 1,11,12
 121 651 121 651 149 660 c 1,13,14
 161 662 161 662 169 662 c 128,-1,15
 177 662 177 662 180 661 c 0,16,17
 323 621 323 621 429 506.5 c 128,-1,18
 535 392 535 392 540 232 c 1,19,20
 540 56 540 56 394 11 c 0,21,22
 352 -2 352 -2 305.5 -2 c 128,-1,23
 259 -2 259 -2 224 5 c 1,24,25
 228 -3 228 -3 228 -16.5 c 128,-1,26
 228 -30 228 -30 211.5 -42.5 c 128,-1,27
 195 -55 195 -55 172.5 -55 c 128,-1,28
 150 -55 150 -55 144 -28 c 2,29,-1
 131 32 l 1,30,31
 116 42 116 42 116 56 c 128,-1,32
 116 70 116 70 127 79 c 1,0,1
192 392 m 1,33,-1
 265 392 l 1,34,35
 295 384 295 384 295 353.5 c 128,-1,36
 295 323 295 323 264 317 c 1,37,-1
 193 317 l 1,38,39
 198 192 198 192 211 83 c 1,40,41
 235 76 235 76 292 76 c 128,-1,42
 349 76 349 76 401.5 95 c 128,-1,43
 454 114 454 114 457 151 c 0,44,45
 460 179 460 179 460 194 c 0,46,47
 460 324 460 324 390.5 424 c 128,-1,48
 321 524 321 524 196 576 c 1,49,50
 192 527 192 527 192 392 c 1,33,-1
EndSplineSet
Position2: "'cpsp' Capital Spacing lookup 0 subtable" dx=5 dy=0 dh=10 dv=0
EndChar

StartChar: Ntilde
Encoding: 209 209 147
Width: 532
GlyphClass: 2
Flags: W
LayerCount: 2
Fore
SplineSet
160.5 806 m 128,-1,1
 190 830 190 830 216.5 830 c 128,-1,2
 243 830 243 830 259 822 c 128,-1,3
 275 814 275 814 281 804 c 0,4,5
 297 778 297 778 310 778 c 128,-1,6
 323 778 323 778 338.5 802 c 128,-1,7
 354 826 354 826 367.5 826 c 128,-1,8
 381 826 381 826 391 814 c 128,-1,9
 401 802 401 802 401 789 c 0,10,11
 401 753 401 753 371.5 734 c 128,-1,12
 342 715 342 715 314.5 715 c 128,-1,13
 287 715 287 715 272 726.5 c 128,-1,14
 257 738 257 738 246 749.5 c 128,-1,15
 235 761 235 761 222 761 c 0,16,17
 216 761 216 761 197 738.5 c 128,-1,18
 178 716 178 716 165 716 c 128,-1,19
 152 716 152 716 141.5 728.5 c 128,-1,20
 131 741 131 741 131 761.5 c 128,-1,0
 131 782 131 782 160.5 806 c 128,-1,1
449 662 m 128,-1,22
 465 662 465 662 478 648.5 c 128,-1,23
 491 635 491 635 491 617 c 0,24,25
 491 226 491 226 494.5 144.5 c 128,-1,26
 498 63 498 63 498 61 c 0,27,28
 498 39 498 39 486 19.5 c 128,-1,29
 474 0 474 0 459.5 0 c 128,-1,30
 445 0 445 0 437.5 1.5 c 128,-1,31
 430 3 430 3 424 5 c 128,-1,32
 418 7 418 7 412 13 c 2,33,-1
 402 23 l 2,34,35
 398 27 398 27 391.5 38.5 c 128,-1,36
 385 50 385 50 381 57 c 128,-1,37
 377 64 377 64 368.5 81.5 c 128,-1,38
 360 99 360 99 331.5 153 c 128,-1,39
 303 207 303 207 280 250 c 0,40,41
 201 395 201 395 133 479 c 1,42,43
 133 154 133 154 115 28 c 0,44,45
 112 4 112 4 78 4 c 0,46,47
 62 4 62 4 51.5 12 c 128,-1,48
 41 20 41 20 41 38 c 128,-1,49
 41 56 41 56 48.5 236 c 128,-1,50
 56 416 56 416 56 460.5 c 128,-1,51
 56 505 56 505 56 517 c 0,52,53
 56 589 56 589 67 598 c 128,-1,54
 78 607 78 607 90 607 c 0,55,56
 145 607 145 607 258 427 c 0,57,58
 280 392 280 392 342 280.5 c 128,-1,59
 404 169 404 169 416 143 c 1,60,-1
 404 558 l 1,61,62
 404 644 404 644 423 656 c 0,63,21
 433 662 433 662 449 662 c 128,-1,22
EndSplineSet
Position2: "'cpsp' Capital Spacing lookup 0 subtable" dx=5 dy=0 dh=10 dv=0
EndChar

StartChar: Ograve
Encoding: 210 210 148
Width: 556
GlyphClass: 2
Flags: W
LayerCount: 2
Fore
SplineSet
366 711 m 1,0,1
 357 697 357 697 343.5 697 c 128,-1,2
 330 697 330 697 311.5 707 c 128,-1,3
 293 717 293 717 265.5 744 c 128,-1,4
 238 771 238 771 225 796.5 c 128,-1,5
 212 822 212 822 212 831.5 c 128,-1,6
 212 841 212 841 213.5 849.5 c 128,-1,7
 215 858 215 858 226.5 864.5 c 128,-1,8
 238 871 238 871 245 871 c 128,-1,9
 252 871 252 871 256 870 c 0,10,11
 271 866 271 866 297 822.5 c 128,-1,12
 323 779 323 779 354 763 c 0,13,14
 370 755 370 755 372 737 c 128,-1,15
 374 719 374 719 366 711 c 1,0,1
306 665 m 0,16,17
 376 665 376 665 425 620 c 0,18,19
 521 534 521 534 521 348.5 c 128,-1,20
 521 163 521 163 415 57 c 1,21,22
 360 4 360 4 288 -1 c 1,23,24
 193 -1 193 -1 140 64 c 128,-1,25
 87 129 87 129 64.5 209.5 c 128,-1,26
 42 290 42 290 42 365 c 0,27,28
 42 493 42 493 103 576 c 1,29,30
 167 665 167 665 306 665 c 0,16,17
299 582 m 0,31,32
 165 582 165 582 132 455 c 1,33,34
 122 421 122 421 122 368 c 128,-1,35
 122 315 122 315 142 245 c 0,36,37
 169 151 169 151 222 113 c 1,38,39
 253 89 253 89 297 89 c 128,-1,40
 341 89 341 89 376 128.5 c 128,-1,41
 411 168 411 168 424 229 c 128,-1,42
 437 290 437 290 437 352 c 0,43,44
 437 462 437 462 405.5 522 c 128,-1,45
 374 582 374 582 299 582 c 0,31,32
EndSplineSet
Position2: "'cpsp' Capital Spacing lookup 0 subtable" dx=5 dy=0 dh=10 dv=0
EndChar

StartChar: Oacute
Encoding: 211 211 149
Width: 556
GlyphClass: 2
Flags: W
LayerCount: 2
Fore
SplineSet
299 860 m 0,0,1
 305 877 305 877 324.5 877 c 128,-1,2
 344 877 344 877 355.5 865 c 128,-1,3
 367 853 367 853 367 845.5 c 128,-1,4
 367 838 367 838 365 833 c 0,5,6
 349 788 349 788 311.5 748 c 128,-1,7
 274 708 274 708 254 708 c 128,-1,8
 234 708 234 708 224 718 c 128,-1,9
 214 728 214 728 214 741.5 c 128,-1,10
 214 755 214 755 230 768 c 0,11,12
 283 811 283 811 299 860 c 0,0,1
306 665 m 0,13,14
 376 665 376 665 425 620 c 0,15,16
 521 534 521 534 521 348.5 c 128,-1,17
 521 163 521 163 415 57 c 1,18,19
 360 4 360 4 288 -1 c 1,20,21
 193 -1 193 -1 140 64 c 128,-1,22
 87 129 87 129 64.5 209.5 c 128,-1,23
 42 290 42 290 42 365 c 0,24,25
 42 493 42 493 103 576 c 1,26,27
 167 665 167 665 306 665 c 0,13,14
299 582 m 0,28,29
 165 582 165 582 132 455 c 1,30,31
 122 421 122 421 122 368 c 128,-1,32
 122 315 122 315 142 245 c 0,33,34
 169 151 169 151 222 113 c 1,35,36
 253 89 253 89 297 89 c 128,-1,37
 341 89 341 89 376 128.5 c 128,-1,38
 411 168 411 168 424 229 c 128,-1,39
 437 290 437 290 437 352 c 0,40,41
 437 462 437 462 405.5 522 c 128,-1,42
 374 582 374 582 299 582 c 0,28,29
EndSplineSet
Position2: "'cpsp' Capital Spacing lookup 0 subtable" dx=5 dy=0 dh=10 dv=0
EndChar

StartChar: Ocircumflex
Encoding: 212 212 150
Width: 556
GlyphClass: 2
Flags: W
LayerCount: 2
Fore
SplineSet
223 812 m 128,-1,1
 274 852 274 852 296.5 852 c 128,-1,2
 319 852 319 852 368 814.5 c 128,-1,3
 417 777 417 777 417 754 c 0,4,5
 417 740 417 740 405 730 c 128,-1,6
 393 720 393 720 385.5 720 c 128,-1,7
 378 720 378 720 341 752 c 128,-1,8
 304 784 304 784 295 784 c 128,-1,9
 286 784 286 784 252.5 751 c 128,-1,10
 219 718 219 718 205 718 c 128,-1,11
 191 718 191 718 181.5 729.5 c 128,-1,12
 172 741 172 741 172 756.5 c 128,-1,0
 172 772 172 772 223 812 c 128,-1,1
306 665 m 0,13,14
 376 665 376 665 425 620 c 0,15,16
 521 534 521 534 521 348.5 c 128,-1,17
 521 163 521 163 415 57 c 1,18,19
 360 4 360 4 288 -1 c 1,20,21
 193 -1 193 -1 140 64 c 128,-1,22
 87 129 87 129 64.5 209.5 c 128,-1,23
 42 290 42 290 42 365 c 0,24,25
 42 493 42 493 103 576 c 1,26,27
 167 665 167 665 306 665 c 0,13,14
299 582 m 0,28,29
 165 582 165 582 132 455 c 1,30,31
 122 421 122 421 122 368 c 128,-1,32
 122 315 122 315 142 245 c 0,33,34
 169 151 169 151 222 113 c 1,35,36
 253 89 253 89 297 89 c 128,-1,37
 341 89 341 89 376 128.5 c 128,-1,38
 411 168 411 168 424 229 c 128,-1,39
 437 290 437 290 437 352 c 0,40,41
 437 462 437 462 405.5 522 c 128,-1,42
 374 582 374 582 299 582 c 0,28,29
EndSplineSet
Position2: "'cpsp' Capital Spacing lookup 0 subtable" dx=5 dy=0 dh=10 dv=0
EndChar

StartChar: Otilde
Encoding: 213 213 151
Width: 556
GlyphClass: 2
Flags: W
LayerCount: 2
Fore
SplineSet
186.5 806 m 128,-1,1
 216 830 216 830 242.5 830 c 128,-1,2
 269 830 269 830 285 822 c 128,-1,3
 301 814 301 814 307 804 c 0,4,5
 323 778 323 778 336 778 c 128,-1,6
 349 778 349 778 364.5 802 c 128,-1,7
 380 826 380 826 393.5 826 c 128,-1,8
 407 826 407 826 417 814 c 128,-1,9
 427 802 427 802 427 789 c 0,10,11
 427 753 427 753 397.5 734 c 128,-1,12
 368 715 368 715 340.5 715 c 128,-1,13
 313 715 313 715 298 726.5 c 128,-1,14
 283 738 283 738 272 749.5 c 128,-1,15
 261 761 261 761 248 761 c 0,16,17
 242 761 242 761 223 738.5 c 128,-1,18
 204 716 204 716 191 716 c 128,-1,19
 178 716 178 716 167.5 728.5 c 128,-1,20
 157 741 157 741 157 761.5 c 128,-1,0
 157 782 157 782 186.5 806 c 128,-1,1
306 665 m 0,21,22
 376 665 376 665 425 620 c 0,23,24
 521 534 521 534 521 348.5 c 128,-1,25
 521 163 521 163 415 57 c 1,26,27
 360 4 360 4 288 -1 c 1,28,29
 193 -1 193 -1 140 64 c 128,-1,30
 87 129 87 129 64.5 209.5 c 128,-1,31
 42 290 42 290 42 365 c 0,32,33
 42 493 42 493 103 576 c 1,34,35
 167 665 167 665 306 665 c 0,21,22
299 582 m 0,36,37
 165 582 165 582 132 455 c 1,38,39
 122 421 122 421 122 368 c 128,-1,40
 122 315 122 315 142 245 c 0,41,42
 169 151 169 151 222 113 c 1,43,44
 253 89 253 89 297 89 c 128,-1,45
 341 89 341 89 376 128.5 c 128,-1,46
 411 168 411 168 424 229 c 128,-1,47
 437 290 437 290 437 352 c 0,48,49
 437 462 437 462 405.5 522 c 128,-1,50
 374 582 374 582 299 582 c 0,36,37
EndSplineSet
Position2: "'cpsp' Capital Spacing lookup 0 subtable" dx=5 dy=0 dh=10 dv=0
EndChar

StartChar: Odieresis
Encoding: 214 214 152
Width: 556
GlyphClass: 2
Flags: W
LayerCount: 2
Fore
SplineSet
204 712 m 0,0,1
 166 712 166 712 159 751 c 1,2,3
 159 774 159 774 176 791.5 c 128,-1,4
 193 809 193 809 213.5 809 c 128,-1,5
 234 809 234 809 246 795 c 128,-1,6
 258 781 258 781 259 757 c 1,7,8
 256 737 256 737 240.5 724.5 c 128,-1,9
 225 712 225 712 204 712 c 0,0,1
384 808 m 0,10,11
 402 808 402 808 414.5 797.5 c 128,-1,12
 427 787 427 787 428 769 c 1,13,14
 425 744 425 744 410 729.5 c 128,-1,15
 395 715 395 715 375.5 715 c 128,-1,16
 356 715 356 715 343 728.5 c 128,-1,17
 330 742 330 742 330 763 c 0,18,19
 330 808 330 808 384 808 c 0,10,11
306 665 m 0,20,21
 376 665 376 665 425 620 c 0,22,23
 521 534 521 534 521 348.5 c 128,-1,24
 521 163 521 163 415 57 c 1,25,26
 360 4 360 4 288 -1 c 1,27,28
 193 -1 193 -1 140 64 c 128,-1,29
 87 129 87 129 64.5 209.5 c 128,-1,30
 42 290 42 290 42 365 c 0,31,32
 42 493 42 493 103 576 c 1,33,34
 167 665 167 665 306 665 c 0,20,21
299 582 m 0,35,36
 165 582 165 582 132 455 c 1,37,38
 122 421 122 421 122 368 c 128,-1,39
 122 315 122 315 142 245 c 0,40,41
 169 151 169 151 222 113 c 1,42,43
 253 89 253 89 297 89 c 128,-1,44
 341 89 341 89 376 128.5 c 128,-1,45
 411 168 411 168 424 229 c 128,-1,46
 437 290 437 290 437 352 c 0,47,48
 437 462 437 462 405.5 522 c 128,-1,49
 374 582 374 582 299 582 c 0,35,36
EndSplineSet
Position2: "'cpsp' Capital Spacing lookup 0 subtable" dx=5 dy=0 dh=10 dv=0
EndChar

StartChar: multiply
Encoding: 215 215 153
Width: 490
GlyphClass: 2
Flags: W
LayerCount: 2
Fore
SplineSet
338 326 m 0,0,1
 298 293 298 293 277 268 c 1,2,3
 294 250 294 250 327 221.5 c 128,-1,4
 360 193 360 193 365.5 187.5 c 128,-1,5
 371 182 371 182 389 167 c 0,6,7
 424 140 424 140 424 112 c 128,-1,8
 424 84 424 84 382 84 c 0,9,10
 372 84 372 84 361 95 c 0,11,12
 323 129 323 129 240 217 c 1,13,-1
 228 202 l 1,14,15
 133 85 133 85 101 85 c 0,16,17
 86 85 86 85 76.5 95 c 128,-1,18
 67 105 67 105 67 119 c 128,-1,19
 67 133 67 133 93 164 c 1,20,21
 122 196 122 196 157 229.5 c 128,-1,22
 192 263 192 263 193 265 c 1,23,24
 96 360 96 360 78 388 c 128,-1,25
 60 416 60 416 60 428 c 128,-1,26
 60 440 60 440 69.5 450 c 128,-1,27
 79 460 79 460 92 460 c 128,-1,28
 105 460 105 460 130 435.5 c 128,-1,29
 155 411 155 411 183.5 377.5 c 128,-1,30
 212 344 212 344 239 313 c 1,31,-1
 281 359 l 1,32,33
 326 410 326 410 355 434 c 1,34,35
 394 461 394 461 397 461 c 2,36,-1
 408 461 l 2,37,38
 425 461 425 461 425 429 c 128,-1,39
 425 397 425 397 338 326 c 0,0,1
EndSplineSet
EndChar

StartChar: Oslash
Encoding: 216 216 154
Width: 568
GlyphClass: 2
Flags: W
LayerCount: 2
Fore
SplineSet
191 26 m 1,0,1
 180 -5 180 -5 160 -5 c 0,2,3
 152 -5 152 -5 146 0 c 1,4,5
 124 9 124 9 124 23 c 128,-1,6
 124 37 124 37 138 66 c 1,7,8
 42 170 42 170 42 368 c 0,9,10
 42 496 42 496 103 578 c 1,11,12
 132 619 132 619 184 643 c 128,-1,13
 236 667 236 667 288.5 667 c 128,-1,14
 341 667 341 667 377 651 c 1,15,16
 390 689 390 689 404 698 c 1,17,18
 411 701 411 701 419.5 701 c 128,-1,19
 428 701 428 701 439 695 c 1,20,21
 457 689 457 689 457 673.5 c 128,-1,22
 457 658 457 658 437 612 c 1,23,24
 521 526 521 526 521 353 c 0,25,26
 521 268 521 268 494 189.5 c 128,-1,27
 467 111 467 111 413.5 58.5 c 128,-1,28
 360 6 360 6 288 1 c 1,29,30
 233 1 233 1 191 26 c 1,0,1
347 576 m 1,31,32
 320 584 320 584 285 584 c 128,-1,33
 250 584 250 584 215.5 567.5 c 128,-1,34
 181 551 181 551 161 522 c 0,35,36
 122 465 122 465 122 378 c 0,37,38
 122 255 122 255 179 164 c 1,39,-1
 347 576 l 1,31,32
227 112 m 1,40,41
 255 91 255 91 298.5 91 c 128,-1,42
 342 91 342 91 376.5 130.5 c 128,-1,43
 411 170 411 170 424 231 c 128,-1,44
 437 292 437 292 437 367 c 0,45,46
 437 476 437 476 401 529 c 1,47,48
 278 232 278 232 227 112 c 1,40,41
EndSplineSet
Position2: "'cpsp' Capital Spacing lookup 0 subtable" dx=5 dy=0 dh=10 dv=0
EndChar

StartChar: Ugrave
Encoding: 217 217 155
Width: 550
GlyphClass: 2
Flags: W
LayerCount: 2
Fore
SplineSet
345 711 m 1,0,1
 336 697 336 697 322.5 697 c 128,-1,2
 309 697 309 697 290.5 707 c 128,-1,3
 272 717 272 717 244.5 744 c 128,-1,4
 217 771 217 771 203.5 796.5 c 128,-1,5
 190 822 190 822 190 831.5 c 128,-1,6
 190 841 190 841 192 849.5 c 128,-1,7
 194 858 194 858 205.5 864.5 c 128,-1,8
 217 871 217 871 224 871 c 128,-1,9
 231 871 231 871 235 870 c 0,10,11
 250 866 250 866 276 822.5 c 128,-1,12
 302 779 302 779 333 763 c 0,13,14
 349 755 349 755 351 737 c 128,-1,15
 353 719 353 719 345 711 c 1,0,1
464 666 m 128,-1,17
 481 666 481 666 493 649 c 1,18,19
 510 562 510 562 510 454 c 2,20,-1
 510 378 l 2,21,22
 510 292 510 292 507 276.5 c 128,-1,23
 504 261 504 261 501 242 c 128,-1,24
 498 223 498 223 495.5 213 c 128,-1,25
 493 203 493 203 488 186 c 0,26,27
 477 149 477 149 457 120 c 1,28,29
 427 64 427 64 378 32 c 128,-1,30
 329 0 329 0 278.5 0 c 128,-1,31
 228 0 228 0 174.5 44 c 128,-1,32
 121 88 121 88 87 154 c 0,33,34
 35 256 35 256 35 389 c 0,35,36
 35 436 35 436 49 612 c 1,37,38
 56 628 56 628 70.5 640.5 c 128,-1,39
 85 653 85 653 100 653 c 0,40,41
 122 653 122 653 127 623 c 1,42,43
 113 450 113 450 113 404 c 0,44,45
 113 294 113 294 156 209 c 1,46,47
 183 153 183 153 222.5 115.5 c 128,-1,48
 262 78 262 78 300 78 c 0,49,50
 363 78 363 78 408 176 c 1,51,52
 427 210 427 210 429 285 c 0,53,54
 429 305 429 305 431 313 c 1,55,-1
 433 445 l 1,56,57
 433 537 433 537 419 613 c 1,58,59
 419 634 419 634 433 650 c 128,-1,16
 447 666 447 666 464 666 c 128,-1,17
EndSplineSet
Position2: "'cpsp' Capital Spacing lookup 0 subtable" dx=5 dy=0 dh=10 dv=0
EndChar

StartChar: Uacute
Encoding: 218 218 156
Width: 550
GlyphClass: 2
Flags: W
LayerCount: 2
Fore
SplineSet
278 860 m 0,0,1
 284 877 284 877 303.5 877 c 128,-1,2
 323 877 323 877 334.5 865 c 128,-1,3
 346 853 346 853 346 845.5 c 128,-1,4
 346 838 346 838 344 833 c 0,5,6
 328 788 328 788 290.5 748 c 128,-1,7
 253 708 253 708 233 708 c 128,-1,8
 213 708 213 708 203 718 c 128,-1,9
 193 728 193 728 193 741.5 c 128,-1,10
 193 755 193 755 208 768 c 0,11,12
 262 811 262 811 278 860 c 0,0,1
464 666 m 128,-1,14
 481 666 481 666 493 649 c 1,15,16
 510 562 510 562 510 454 c 2,17,-1
 510 378 l 2,18,19
 510 292 510 292 507 276.5 c 128,-1,20
 504 261 504 261 501 242 c 128,-1,21
 498 223 498 223 495.5 213 c 128,-1,22
 493 203 493 203 488 186 c 0,23,24
 477 149 477 149 457 120 c 1,25,26
 427 64 427 64 378 32 c 128,-1,27
 329 0 329 0 278.5 0 c 128,-1,28
 228 0 228 0 174.5 44 c 128,-1,29
 121 88 121 88 87 154 c 0,30,31
 35 256 35 256 35 389 c 0,32,33
 35 436 35 436 49 612 c 1,34,35
 56 628 56 628 70.5 640.5 c 128,-1,36
 85 653 85 653 100 653 c 0,37,38
 122 653 122 653 127 623 c 1,39,40
 113 450 113 450 113 404 c 0,41,42
 113 294 113 294 156 209 c 1,43,44
 183 153 183 153 222.5 115.5 c 128,-1,45
 262 78 262 78 300 78 c 0,46,47
 363 78 363 78 408 176 c 1,48,49
 427 210 427 210 429 285 c 0,50,51
 429 305 429 305 431 313 c 1,52,-1
 433 445 l 1,53,54
 433 537 433 537 419 613 c 1,55,56
 419 634 419 634 433 650 c 128,-1,13
 447 666 447 666 464 666 c 128,-1,14
EndSplineSet
Position2: "'cpsp' Capital Spacing lookup 0 subtable" dx=5 dy=0 dh=10 dv=0
EndChar

StartChar: Ucircumflex
Encoding: 219 219 157
Width: 550
GlyphClass: 2
Flags: W
LayerCount: 2
Fore
SplineSet
202 812 m 128,-1,1
 253 852 253 852 275.5 852 c 128,-1,2
 298 852 298 852 347 814.5 c 128,-1,3
 396 777 396 777 396 754 c 0,4,5
 396 740 396 740 384 730 c 128,-1,6
 372 720 372 720 364 720 c 128,-1,7
 356 720 356 720 320 752 c 128,-1,8
 284 784 284 784 274.5 784 c 128,-1,9
 265 784 265 784 231.5 751 c 128,-1,10
 198 718 198 718 184 718 c 128,-1,11
 170 718 170 718 160.5 729.5 c 128,-1,12
 151 741 151 741 151 756.5 c 128,-1,0
 151 772 151 772 202 812 c 128,-1,1
464 666 m 128,-1,14
 481 666 481 666 493 649 c 1,15,16
 510 562 510 562 510 454 c 2,17,-1
 510 378 l 2,18,19
 510 292 510 292 507 276.5 c 128,-1,20
 504 261 504 261 501 242 c 128,-1,21
 498 223 498 223 495.5 213 c 128,-1,22
 493 203 493 203 488 186 c 0,23,24
 477 149 477 149 457 120 c 1,25,26
 427 64 427 64 378 32 c 128,-1,27
 329 0 329 0 278.5 0 c 128,-1,28
 228 0 228 0 174.5 44 c 128,-1,29
 121 88 121 88 87 154 c 0,30,31
 35 256 35 256 35 389 c 0,32,33
 35 436 35 436 49 612 c 1,34,35
 56 628 56 628 70.5 640.5 c 128,-1,36
 85 653 85 653 100 653 c 0,37,38
 122 653 122 653 127 623 c 1,39,40
 113 450 113 450 113 404 c 0,41,42
 113 294 113 294 156 209 c 1,43,44
 183 153 183 153 222.5 115.5 c 128,-1,45
 262 78 262 78 300 78 c 0,46,47
 363 78 363 78 408 176 c 1,48,49
 427 210 427 210 429 285 c 0,50,51
 429 305 429 305 431 313 c 1,52,-1
 433 445 l 1,53,54
 433 537 433 537 419 613 c 1,55,56
 419 634 419 634 433 650 c 128,-1,13
 447 666 447 666 464 666 c 128,-1,14
EndSplineSet
Position2: "'cpsp' Capital Spacing lookup 0 subtable" dx=5 dy=0 dh=10 dv=0
EndChar

StartChar: Udieresis
Encoding: 220 220 158
Width: 550
GlyphClass: 2
Flags: W
LayerCount: 2
Fore
SplineSet
183 712 m 0,0,1
 146 712 146 712 138 751 c 1,2,3
 138 774 138 774 155 791.5 c 128,-1,4
 172 809 172 809 192.5 809 c 128,-1,5
 213 809 213 809 225 795 c 128,-1,6
 237 781 237 781 238 757 c 1,7,8
 235 737 235 737 219.5 724.5 c 128,-1,9
 204 712 204 712 183 712 c 0,0,1
363 808 m 0,10,11
 381 808 381 808 393.5 797.5 c 128,-1,12
 406 787 406 787 407 769 c 1,13,14
 404 744 404 744 389 729.5 c 128,-1,15
 374 715 374 715 354.5 715 c 128,-1,16
 335 715 335 715 322 728.5 c 128,-1,17
 309 742 309 742 309 763 c 0,18,19
 309 808 309 808 363 808 c 0,10,11
464 666 m 128,-1,21
 481 666 481 666 493 649 c 1,22,23
 510 562 510 562 510 454 c 2,24,-1
 510 378 l 2,25,26
 510 292 510 292 507 276.5 c 128,-1,27
 504 261 504 261 501 242 c 128,-1,28
 498 223 498 223 495.5 213 c 128,-1,29
 493 203 493 203 488 186 c 0,30,31
 477 149 477 149 457 120 c 1,32,33
 427 64 427 64 378 32 c 128,-1,34
 329 0 329 0 278.5 0 c 128,-1,35
 228 0 228 0 174.5 44 c 128,-1,36
 121 88 121 88 87 154 c 0,37,38
 35 256 35 256 35 389 c 0,39,40
 35 436 35 436 49 612 c 1,41,42
 56 628 56 628 70.5 640.5 c 128,-1,43
 85 653 85 653 100 653 c 0,44,45
 122 653 122 653 127 623 c 1,46,47
 113 450 113 450 113 404 c 0,48,49
 113 294 113 294 156 209 c 1,50,51
 183 153 183 153 222.5 115.5 c 128,-1,52
 262 78 262 78 300 78 c 0,53,54
 363 78 363 78 408 176 c 1,55,56
 427 210 427 210 429 285 c 0,57,58
 429 305 429 305 431 313 c 1,59,-1
 433 445 l 1,60,61
 433 537 433 537 419 613 c 1,62,63
 419 634 419 634 433 650 c 128,-1,20
 447 666 447 666 464 666 c 128,-1,21
EndSplineSet
Position2: "'cpsp' Capital Spacing lookup 0 subtable" dx=5 dy=0 dh=10 dv=0
EndChar

StartChar: Yacute
Encoding: 221 221 159
Width: 442
GlyphClass: 2
Flags: W
LayerCount: 2
Fore
SplineSet
228 860 m 0,0,1
 234 877 234 877 253.5 877 c 128,-1,2
 273 877 273 877 284.5 865 c 128,-1,3
 296 853 296 853 296 845.5 c 128,-1,4
 296 838 296 838 294 833 c 0,5,6
 278 788 278 788 240.5 748 c 128,-1,7
 203 708 203 708 183 708 c 128,-1,8
 163 708 163 708 153 718 c 128,-1,9
 143 728 143 728 143 741.5 c 128,-1,10
 143 755 143 755 158 768 c 0,11,12
 212 811 212 811 228 860 c 0,0,1
178 242 m 1,13,-1
 179 293 l 2,14,15
 179 319 179 319 162.5 344 c 128,-1,16
 146 369 146 369 83 489 c 128,-1,17
 20 609 20 609 20 624.5 c 128,-1,18
 20 640 20 640 33 652.5 c 128,-1,19
 46 665 46 665 58.5 665 c 128,-1,20
 71 665 71 665 88.5 642 c 128,-1,21
 106 619 106 619 157.5 521 c 128,-1,22
 209 423 209 423 217 413 c 1,23,24
 313 583 313 583 371 653 c 1,25,26
 385 666 385 666 393.5 666 c 128,-1,27
 402 666 402 666 406 664 c 0,28,29
 430 654 430 654 430 637.5 c 128,-1,30
 430 621 430 621 422 609 c 256,31,32
 414 597 414 597 378 546 c 0,33,34
 325 472 325 472 286.5 396.5 c 128,-1,35
 248 321 248 321 248 304 c 2,36,-1
 248 121 l 1,37,-1
 251 41 l 2,38,39
 251 19 251 19 239 10.5 c 128,-1,40
 227 2 227 2 209.5 2 c 128,-1,41
 192 2 192 2 186 21 c 128,-1,42
 180 40 180 40 179 71 c 128,-1,43
 178 102 178 102 178 162 c 2,44,-1
 178 242 l 1,13,-1
EndSplineSet
Position2: "'cpsp' Capital Spacing lookup 0 subtable" dx=5 dy=0 dh=10 dv=0
EndChar

StartChar: Thorn
Encoding: 222 222 160
Width: 492
GlyphClass: 2
Flags: W
LayerCount: 2
Fore
SplineSet
60 35 m 2,0,-1
 60 632 l 1,1,2
 71 667 71 667 105 667 c 0,3,4
 123 667 123 667 137 644 c 1,5,-1
 137 588 l 1,6,7
 161 592 161 592 206 592 c 128,-1,8
 251 592 251 592 311 574.5 c 128,-1,9
 371 557 371 557 407 513.5 c 128,-1,10
 443 470 443 470 443 402 c 0,11,12
 443 220 443 220 187 220 c 0,13,14
 148 220 148 220 137 221 c 1,15,-1
 137 47 l 1,16,17
 134 29 134 29 119 14.5 c 128,-1,18
 104 0 104 0 89 0 c 0,19,20
 60 0 60 0 60 35 c 2,0,-1
175 514 m 0,21,22
 153 514 153 514 137 512 c 1,23,-1
 137 300 l 1,24,25
 194 296 194 296 220 296 c 0,26,27
 351 296 351 296 371 395 c 1,28,29
 357 514 357 514 175 514 c 0,21,22
EndSplineSet
Position2: "'cpsp' Capital Spacing lookup 0 subtable" dx=5 dy=0 dh=10 dv=0
EndChar

StartChar: germandbls
Encoding: 223 223 161
Width: 800
GlyphClass: 2
Flags: W
LayerCount: 2
Fore
SplineSet
88.5 427.5 m 128,-1,1
 139 462 139 462 205.5 462 c 128,-1,2
 272 462 272 462 308.5 444 c 128,-1,3
 345 426 345 426 345 398 c 0,4,5
 345 385 345 385 336.5 376.5 c 128,-1,6
 328 368 328 368 316.5 368 c 128,-1,7
 305 368 305 368 269.5 384 c 128,-1,8
 234 400 234 400 205 400 c 128,-1,9
 176 400 176 400 144.5 384 c 128,-1,10
 113 368 113 368 113 350 c 0,11,12
 113 324 113 324 150 306.5 c 128,-1,13
 187 289 187 289 240 276 c 128,-1,14
 293 263 293 263 310 252 c 0,15,16
 359 223 359 223 359 158 c 128,-1,17
 359 93 359 93 309 46.5 c 128,-1,18
 259 0 259 0 187 0 c 0,19,20
 142 0 142 0 90.5 25.5 c 128,-1,21
 39 51 39 51 39 73 c 0,22,23
 39 87 39 87 51.5 97.5 c 128,-1,24
 64 108 64 108 81 108 c 1,25,26
 165 71 165 71 210 71 c 0,27,28
 272 71 272 71 285 143 c 1,29,30
 284 169 284 169 266 187 c 128,-1,31
 248 205 248 205 230 209.5 c 128,-1,32
 212 214 212 214 187.5 219.5 c 128,-1,33
 163 225 163 225 153.5 227.5 c 128,-1,34
 144 230 144 230 124 236.5 c 128,-1,35
 104 243 104 243 95 248.5 c 128,-1,36
 86 254 86 254 72.5 263.5 c 128,-1,37
 59 273 59 273 54 284 c 0,38,39
 38 315 38 315 38 343 c 0,40,0
 38 393 38 393 88.5 427.5 c 128,-1,1
670 433 m 128,-1,42
 719 411 719 411 719 389 c 0,43,44
 719 371 719 371 710 358 c 128,-1,45
 701 345 701 345 682 352 c 0,46,47
 584 390 584 390 547 390 c 0,48,49
 481 390 481 390 481 327 c 0,50,51
 481 301 481 301 499.5 285 c 128,-1,52
 518 269 518 269 540 262.5 c 128,-1,53
 562 256 562 256 599 247.5 c 128,-1,54
 636 239 636 239 659.5 230.5 c 128,-1,55
 683 222 683 222 701.5 189 c 128,-1,56
 720 156 720 156 720 119 c 0,57,58
 720 68 720 68 669 33.5 c 128,-1,59
 618 -1 618 -1 552.5 -1 c 128,-1,60
 487 -1 487 -1 449.5 17 c 128,-1,61
 412 35 412 35 412 63 c 0,62,63
 412 75 412 75 421 84 c 128,-1,64
 430 93 430 93 439 93 c 128,-1,65
 448 93 448 93 488.5 77 c 128,-1,66
 529 61 529 61 555 61 c 128,-1,67
 581 61 581 61 612 80.5 c 128,-1,68
 643 100 643 100 643 121 c 128,-1,69
 643 142 643 142 625 158.5 c 128,-1,70
 607 175 607 175 574 182 c 128,-1,71
 541 189 541 189 525 192.5 c 128,-1,72
 509 196 509 196 480.5 206.5 c 128,-1,73
 452 217 452 217 440 229 c 0,74,75
 407 262 407 262 407 315 c 0,76,77
 407 399 407 399 484 440 c 1,78,79
 519 455 519 455 570 455 c 128,-1,41
 621 455 621 455 670 433 c 128,-1,42
EndSplineSet
EndChar

StartChar: agrave
Encoding: 224 224 162
Width: 440
GlyphClass: 2
Flags: W
LayerCount: 2
Fore
SplineSet
298 512 m 1,0,1
 289 498 289 498 275.5 498 c 128,-1,2
 262 498 262 498 243.5 508 c 128,-1,3
 225 518 225 518 197.5 545 c 128,-1,4
 170 572 170 572 157 597.5 c 128,-1,5
 144 623 144 623 144 632.5 c 128,-1,6
 144 642 144 642 145.5 650.5 c 128,-1,7
 147 659 147 659 158.5 665.5 c 128,-1,8
 170 672 170 672 177 672 c 128,-1,9
 184 672 184 672 188 671 c 0,10,11
 203 667 203 667 229 623.5 c 128,-1,12
 255 580 255 580 286 564 c 0,13,14
 302 556 302 556 304 538 c 128,-1,15
 306 520 306 520 298 512 c 1,0,1
110 27 m 1,16,17
 106 2 106 2 74.5 2 c 128,-1,18
 43 2 43 2 43 28 c 0,19,20
 43 87 43 87 101 268 c 0,21,22
 127 351 127 351 159 406 c 128,-1,23
 191 461 191 461 221 461 c 0,24,25
 237 461 237 461 249 442 c 128,-1,26
 261 423 261 423 292.5 355.5 c 128,-1,27
 324 288 324 288 345 212.5 c 128,-1,28
 366 137 366 137 391 28 c 1,29,30
 391 15 391 15 382 7.5 c 128,-1,31
 373 0 373 0 360 0 c 0,32,33
 328 0 328 0 320 28 c 2,34,-1
 285 165 l 1,35,36
 197 165 197 165 144 179 c 1,37,38
 114 69 114 69 110 27 c 1,16,17
218 369 m 1,39,40
 185 313 185 313 164 244 c 1,41,42
 208 232 208 232 268 232 c 1,43,44
 249 301 249 301 218 369 c 1,39,40
EndSplineSet
EndChar

StartChar: aacute
Encoding: 225 225 163
Width: 440
GlyphClass: 2
Flags: W
LayerCount: 2
Fore
SplineSet
231 661 m 0,0,1
 237 678 237 678 256.5 678 c 128,-1,2
 276 678 276 678 287.5 666 c 128,-1,3
 299 654 299 654 299 646.5 c 128,-1,4
 299 639 299 639 297 634 c 0,5,6
 281 589 281 589 243.5 549 c 128,-1,7
 206 509 206 509 186 509 c 128,-1,8
 166 509 166 509 156 519 c 128,-1,9
 146 529 146 529 146 542.5 c 128,-1,10
 146 556 146 556 162 568 c 0,11,12
 215 612 215 612 231 661 c 0,0,1
110 27 m 1,13,14
 106 2 106 2 74.5 2 c 128,-1,15
 43 2 43 2 43 28 c 0,16,17
 43 87 43 87 101 268 c 0,18,19
 127 351 127 351 159 406 c 128,-1,20
 191 461 191 461 221 461 c 0,21,22
 237 461 237 461 249 442 c 128,-1,23
 261 423 261 423 292.5 355.5 c 128,-1,24
 324 288 324 288 345 212.5 c 128,-1,25
 366 137 366 137 391 28 c 1,26,27
 391 15 391 15 382 7.5 c 128,-1,28
 373 0 373 0 360 0 c 0,29,30
 328 0 328 0 320 28 c 2,31,-1
 285 165 l 1,32,33
 197 165 197 165 144 179 c 1,34,35
 114 69 114 69 110 27 c 1,13,14
218 369 m 1,36,37
 185 313 185 313 164 244 c 1,38,39
 208 232 208 232 268 232 c 1,40,41
 249 301 249 301 218 369 c 1,36,37
EndSplineSet
EndChar

StartChar: acircumflex
Encoding: 226 226 164
Width: 440
GlyphClass: 2
Flags: W
LayerCount: 2
Fore
SplineSet
155 613 m 128,-1,1
 206 653 206 653 228.5 653 c 128,-1,2
 251 653 251 653 300 615.5 c 128,-1,3
 349 578 349 578 349 555 c 0,4,5
 349 541 349 541 337 531 c 128,-1,6
 325 521 325 521 317.5 521 c 128,-1,7
 310 521 310 521 273 553 c 128,-1,8
 236 585 236 585 227 585 c 128,-1,9
 218 585 218 585 184.5 552 c 128,-1,10
 151 519 151 519 137 519 c 128,-1,11
 123 519 123 519 113.5 530.5 c 128,-1,12
 104 542 104 542 104 557.5 c 128,-1,0
 104 573 104 573 155 613 c 128,-1,1
110 27 m 1,13,14
 106 2 106 2 74.5 2 c 128,-1,15
 43 2 43 2 43 28 c 0,16,17
 43 87 43 87 101 268 c 0,18,19
 127 351 127 351 159 406 c 128,-1,20
 191 461 191 461 221 461 c 0,21,22
 237 461 237 461 249 442 c 128,-1,23
 261 423 261 423 292.5 355.5 c 128,-1,24
 324 288 324 288 345 212.5 c 128,-1,25
 366 137 366 137 391 28 c 1,26,27
 391 15 391 15 382 7.5 c 128,-1,28
 373 0 373 0 360 0 c 0,29,30
 328 0 328 0 320 28 c 2,31,-1
 285 165 l 1,32,33
 197 165 197 165 144 179 c 1,34,35
 114 69 114 69 110 27 c 1,13,14
218 369 m 1,36,37
 185 313 185 313 164 244 c 1,38,39
 208 232 208 232 268 232 c 1,40,41
 249 301 249 301 218 369 c 1,36,37
EndSplineSet
EndChar

StartChar: atilde
Encoding: 227 227 165
Width: 440
GlyphClass: 2
Flags: W
LayerCount: 2
Fore
SplineSet
118.5 607 m 128,-1,1
 148 631 148 631 174.5 631 c 128,-1,2
 201 631 201 631 217 623 c 128,-1,3
 233 615 233 615 239 605 c 0,4,5
 255 579 255 579 268 579 c 128,-1,6
 281 579 281 579 296.5 603 c 128,-1,7
 312 627 312 627 325.5 627 c 128,-1,8
 339 627 339 627 349 615 c 128,-1,9
 359 603 359 603 359 590 c 0,10,11
 359 554 359 554 329.5 535 c 128,-1,12
 300 516 300 516 272.5 516 c 128,-1,13
 245 516 245 516 230 527.5 c 128,-1,14
 215 539 215 539 204 550.5 c 128,-1,15
 193 562 193 562 180 562 c 0,16,17
 174 562 174 562 155 539.5 c 128,-1,18
 136 517 136 517 123 517 c 128,-1,19
 110 517 110 517 99.5 529.5 c 128,-1,20
 89 542 89 542 89 562.5 c 128,-1,0
 89 583 89 583 118.5 607 c 128,-1,1
110 27 m 1,21,22
 106 2 106 2 74.5 2 c 128,-1,23
 43 2 43 2 43 28 c 0,24,25
 43 87 43 87 101 268 c 0,26,27
 127 351 127 351 159 406 c 128,-1,28
 191 461 191 461 221 461 c 0,29,30
 237 461 237 461 249 442 c 128,-1,31
 261 423 261 423 292.5 355.5 c 128,-1,32
 324 288 324 288 345 212.5 c 128,-1,33
 366 137 366 137 391 28 c 1,34,35
 391 15 391 15 382 7.5 c 128,-1,36
 373 0 373 0 360 0 c 0,37,38
 328 0 328 0 320 28 c 2,39,-1
 285 165 l 1,40,41
 197 165 197 165 144 179 c 1,42,43
 114 69 114 69 110 27 c 1,21,22
218 369 m 1,44,45
 185 313 185 313 164 244 c 1,46,47
 208 232 208 232 268 232 c 1,48,49
 249 301 249 301 218 369 c 1,44,45
EndSplineSet
EndChar

StartChar: adieresis
Encoding: 228 228 166
Width: 440
GlyphClass: 2
Flags: W
LayerCount: 2
Fore
SplineSet
136 513 m 0,0,1
 98 513 98 513 91 552 c 1,2,3
 91 575 91 575 108 592.5 c 128,-1,4
 125 610 125 610 145.5 610 c 128,-1,5
 166 610 166 610 178 596 c 128,-1,6
 190 582 190 582 191 558 c 1,7,8
 188 538 188 538 172.5 525.5 c 128,-1,9
 157 513 157 513 136 513 c 0,0,1
316 609 m 0,10,11
 334 609 334 609 346.5 598.5 c 128,-1,12
 359 588 359 588 360 570 c 1,13,14
 357 545 357 545 342 530.5 c 128,-1,15
 327 516 327 516 307.5 516 c 128,-1,16
 288 516 288 516 275 529.5 c 128,-1,17
 262 543 262 543 262 564 c 0,18,19
 262 609 262 609 316 609 c 0,10,11
110 27 m 1,20,21
 106 2 106 2 74.5 2 c 128,-1,22
 43 2 43 2 43 28 c 0,23,24
 43 87 43 87 101 268 c 0,25,26
 127 351 127 351 159 406 c 128,-1,27
 191 461 191 461 221 461 c 0,28,29
 237 461 237 461 249 442 c 128,-1,30
 261 423 261 423 292.5 355.5 c 128,-1,31
 324 288 324 288 345 212.5 c 128,-1,32
 366 137 366 137 391 28 c 1,33,34
 391 15 391 15 382 7.5 c 128,-1,35
 373 0 373 0 360 0 c 0,36,37
 328 0 328 0 320 28 c 2,38,-1
 285 165 l 1,39,40
 197 165 197 165 144 179 c 1,41,42
 114 69 114 69 110 27 c 1,20,21
218 369 m 1,43,44
 185 313 185 313 164 244 c 1,45,46
 208 232 208 232 268 232 c 1,47,48
 249 301 249 301 218 369 c 1,43,44
EndSplineSet
EndChar

StartChar: aring
Encoding: 229 229 167
Width: 440
GlyphClass: 2
Flags: W
LayerCount: 2
Fore
SplineSet
164.5 637 m 128,-1,1
 193 661 193 661 230.5 661 c 128,-1,2
 268 661 268 661 288.5 637 c 128,-1,3
 309 613 309 613 309 576 c 0,4,5
 309 537 309 537 283 514 c 128,-1,6
 257 491 257 491 221.5 491 c 128,-1,7
 186 491 186 491 161 518 c 128,-1,8
 136 545 136 545 136 579 c 128,-1,0
 136 613 136 613 164.5 637 c 128,-1,1
228 611 m 0,9,10
 215 611 215 611 205 602 c 128,-1,11
 195 593 195 593 195 580 c 0,12,13
 195 552 195 552 221 552 c 0,14,15
 253 552 253 552 253 581.5 c 128,-1,16
 253 611 253 611 228 611 c 0,9,10
110 27 m 1,17,18
 106 2 106 2 74.5 2 c 128,-1,19
 43 2 43 2 43 28 c 0,20,21
 43 87 43 87 101 268 c 0,22,23
 127 351 127 351 159 406 c 128,-1,24
 191 461 191 461 221 461 c 0,25,26
 237 461 237 461 249 442 c 128,-1,27
 261 423 261 423 292.5 355.5 c 128,-1,28
 324 288 324 288 345 212.5 c 128,-1,29
 366 137 366 137 391 28 c 1,30,31
 391 15 391 15 382 7.5 c 128,-1,32
 373 0 373 0 360 0 c 0,33,34
 328 0 328 0 320 28 c 2,35,-1
 285 165 l 1,36,37
 197 165 197 165 144 179 c 1,38,39
 114 69 114 69 110 27 c 1,17,18
218 369 m 1,40,41
 185 313 185 313 164 244 c 1,42,43
 208 232 208 232 268 232 c 1,44,45
 249 301 249 301 218 369 c 1,40,41
EndSplineSet
EndChar

StartChar: ae
Encoding: 230 230 168
Width: 600
GlyphClass: 2
Flags: W
LayerCount: 2
Fore
SplineSet
351 272 m 1,0,-1
 428 271 l 2,1,2
 504 271 504 271 504 240 c 0,3,4
 504 229 504 229 493.5 218 c 128,-1,5
 483 207 483 207 469 204 c 1,6,7
 411 204 411 204 353 204 c 1,8,-1
 357 66 l 1,9,-1
 499 70 l 1,10,11
 529 67 529 67 529 42.5 c 128,-1,12
 529 18 529 18 520 7.5 c 128,-1,13
 511 -3 511 -3 490 -3 c 2,14,-1
 331 -1 l 2,15,16
 279 -1 279 -1 277 28 c 1,17,-1
 277 204 l 1,18,19
 226 203 226 203 196 203 c 128,-1,20
 166 203 166 203 156 204 c 1,21,22
 148 178 148 178 123 20 c 0,23,24
 122 12 122 12 112 6 c 128,-1,25
 102 0 102 0 90 0 c 0,26,27
 58 0 58 0 58 26 c 0,28,29
 58 61 58 61 66 122 c 0,30,31
 89 300 89 300 185 396 c 1,32,33
 246 460 246 460 324 460 c 1,34,-1
 504 457 l 2,35,36
 537 457 537 457 537 428 c 0,37,38
 537 415 537 415 526 403 c 128,-1,39
 515 391 515 391 499 390 c 1,40,-1
 455 390 l 2,41,42
 449 390 449 390 439 390 c 2,43,-1
 348 392 l 1,44,45
 348 290 348 290 351 272 c 1,0,-1
177 272 m 1,46,47
 216 268 216 268 239.5 268 c 128,-1,48
 263 268 263 268 277 270 c 1,49,50
 277 335 277 335 273 389 c 1,51,52
 260 384 260 384 229 347.5 c 128,-1,53
 198 311 198 311 177 272 c 1,46,47
EndSplineSet
EndChar

StartChar: ccedilla
Encoding: 231 231 169
Width: 450
GlyphClass: 2
Flags: W
LayerCount: 2
Fore
SplineSet
271 -21 m 2,0,-1
 304 -17 l 1,1,2
 326 -17 326 -17 340 -25 c 0,3,4
 361 -37 361 -37 368 -74 c 0,5,6
 371 -90 371 -90 371 -103 c 0,7,8
 371 -136 371 -136 346 -161 c 128,-1,9
 321 -186 321 -186 274.5 -186 c 128,-1,10
 228 -186 228 -186 199.5 -173 c 128,-1,11
 171 -160 171 -160 171 -143 c 128,-1,12
 171 -126 171 -126 179 -116 c 128,-1,13
 187 -106 187 -106 195 -106 c 128,-1,14
 203 -106 203 -106 228 -119 c 128,-1,15
 253 -132 253 -132 273 -132 c 128,-1,16
 293 -132 293 -132 305.5 -122 c 128,-1,17
 318 -112 318 -112 318 -102 c 0,18,19
 318 -73 318 -73 303 -68 c 0,20,21
 299 -67 299 -67 287 -67 c 128,-1,22
 275 -67 275 -67 251 -69 c 1,23,24
 206 -69 206 -69 206 -16 c 1,25,-1
 207 1 l 1,26,-1
 197 1 l 2,27,28
 163 1 163 1 130 23 c 128,-1,29
 97 45 97 45 78 80 c 0,30,31
 39 149 39 149 39 228 c 0,32,33
 39 334 39 334 103 396 c 128,-1,34
 167 458 167 458 267 458 c 0,35,36
 326 458 326 458 382 438 c 1,37,38
 400 427 400 427 400 413 c 128,-1,39
 400 399 400 399 385.5 387.5 c 128,-1,40
 371 376 371 376 357 376 c 1,41,-1
 276 386 l 1,42,43
 114 386 114 386 114 224 c 0,44,45
 114 142 114 142 163 94 c 1,46,47
 187 69 187 69 213 69 c 128,-1,48
 239 69 239 69 304 92 c 128,-1,49
 369 115 369 115 374 115 c 0,50,51
 401 115 401 115 401 90 c 0,52,53
 401 69 401 69 378 54 c 1,54,55
 305 23 305 23 265 11 c 1,56,57
 264 3 264 3 264 -9 c 128,-1,58
 264 -21 264 -21 271 -21 c 2,0,-1
EndSplineSet
EndChar

StartChar: egrave
Encoding: 232 232 170
Width: 380
GlyphClass: 2
Flags: W
LayerCount: 2
Fore
SplineSet
259 511 m 1,0,1
 250 497 250 497 236.5 497 c 128,-1,2
 223 497 223 497 204.5 507 c 128,-1,3
 186 517 186 517 158.5 544 c 128,-1,4
 131 571 131 571 117.5 596.5 c 128,-1,5
 104 622 104 622 104 631.5 c 128,-1,6
 104 641 104 641 106 649.5 c 128,-1,7
 108 658 108 658 119.5 664.5 c 128,-1,8
 131 671 131 671 138 671 c 128,-1,9
 145 671 145 671 149 670 c 0,10,11
 164 666 164 666 190 622.5 c 128,-1,12
 216 579 216 579 247 563 c 0,13,14
 263 555 263 555 265 537 c 128,-1,15
 267 519 267 519 259 511 c 1,0,1
121 225 m 1,16,-1
 123 94 l 2,17,18
 123 68 123 68 122 66 c 1,19,-1
 295 69 l 1,20,21
 324 66 324 66 324 44 c 0,22,23
 324 2 324 2 285 2 c 2,24,-1
 89 0 l 2,25,26
 71 0 71 0 62.5 12.5 c 128,-1,27
 54 25 54 25 53 39 c 128,-1,28
 52 53 52 53 52 70 c 2,29,-1
 52 236 l 1,30,31
 39 243 39 243 39 257 c 128,-1,32
 39 271 39 271 50 282 c 1,33,34
 47 360 47 360 47 424 c 0,35,36
 47 461 47 461 92 462 c 0,37,38
 104 462 104 462 120 462 c 2,39,-1
 295 459 l 1,40,-1
 296 459 l 1,41,42
 328 455 328 455 328 429 c 0,43,44
 328 409 328 409 316 402 c 0,45,46
 290 388 290 388 191 388 c 0,47,48
 154 388 154 388 117 391 c 1,49,50
 117 301 117 301 118 290 c 1,51,52
 157 289 157 289 271 289 c 1,53,54
 302 285 302 285 302 261 c 0,55,56
 302 249 302 249 292 238 c 128,-1,57
 282 227 282 227 270.5 225.5 c 128,-1,58
 259 224 259 224 221.5 224 c 128,-1,59
 184 224 184 224 121 225 c 1,16,-1
EndSplineSet
EndChar

StartChar: eacute
Encoding: 233 233 171
Width: 380
GlyphClass: 2
Flags: W
LayerCount: 2
Fore
SplineSet
192 660 m 0,0,1
 198 677 198 677 217.5 677 c 128,-1,2
 237 677 237 677 248.5 665 c 128,-1,3
 260 653 260 653 260 645.5 c 128,-1,4
 260 638 260 638 258 633 c 0,5,6
 242 588 242 588 204.5 548 c 128,-1,7
 167 508 167 508 147 508 c 128,-1,8
 127 508 127 508 117 518 c 128,-1,9
 107 528 107 528 107 541.5 c 128,-1,10
 107 555 107 555 122 568 c 0,11,12
 176 611 176 611 192 660 c 0,0,1
121 225 m 1,13,-1
 123 94 l 2,14,15
 123 68 123 68 122 66 c 1,16,-1
 295 69 l 1,17,18
 324 66 324 66 324 44 c 0,19,20
 324 2 324 2 285 2 c 2,21,-1
 89 0 l 2,22,23
 71 0 71 0 62.5 12.5 c 128,-1,24
 54 25 54 25 53 39 c 128,-1,25
 52 53 52 53 52 70 c 2,26,-1
 52 236 l 1,27,28
 39 243 39 243 39 257 c 128,-1,29
 39 271 39 271 50 282 c 1,30,31
 47 360 47 360 47 424 c 0,32,33
 47 461 47 461 92 462 c 0,34,35
 104 462 104 462 120 462 c 2,36,-1
 295 459 l 1,37,-1
 296 459 l 1,38,39
 328 455 328 455 328 429 c 0,40,41
 328 409 328 409 316 402 c 0,42,43
 290 388 290 388 191 388 c 0,44,45
 154 388 154 388 117 391 c 1,46,47
 117 301 117 301 118 290 c 1,48,49
 157 289 157 289 271 289 c 1,50,51
 302 285 302 285 302 261 c 0,52,53
 302 249 302 249 292 238 c 128,-1,54
 282 227 282 227 270.5 225.5 c 128,-1,55
 259 224 259 224 221.5 224 c 128,-1,56
 184 224 184 224 121 225 c 1,13,-1
EndSplineSet
EndChar

StartChar: ecircumflex
Encoding: 234 234 172
Width: 380
GlyphClass: 2
Flags: W
LayerCount: 2
Fore
SplineSet
116 612 m 128,-1,1
 167 652 167 652 189.5 652 c 128,-1,2
 212 652 212 652 261 614.5 c 128,-1,3
 310 577 310 577 310 554 c 0,4,5
 310 540 310 540 298 530 c 128,-1,6
 286 520 286 520 278 520 c 128,-1,7
 270 520 270 520 234 552 c 128,-1,8
 198 584 198 584 188.5 584 c 128,-1,9
 179 584 179 584 145.5 551 c 128,-1,10
 112 518 112 518 98 518 c 128,-1,11
 84 518 84 518 74.5 529.5 c 128,-1,12
 65 541 65 541 65 556.5 c 128,-1,0
 65 572 65 572 116 612 c 128,-1,1
121 225 m 1,13,-1
 123 94 l 2,14,15
 123 68 123 68 122 66 c 1,16,-1
 295 69 l 1,17,18
 324 66 324 66 324 44 c 0,19,20
 324 2 324 2 285 2 c 2,21,-1
 89 0 l 2,22,23
 71 0 71 0 62.5 12.5 c 128,-1,24
 54 25 54 25 53 39 c 128,-1,25
 52 53 52 53 52 70 c 2,26,-1
 52 236 l 1,27,28
 39 243 39 243 39 257 c 128,-1,29
 39 271 39 271 50 282 c 1,30,31
 47 360 47 360 47 424 c 0,32,33
 47 461 47 461 92 462 c 0,34,35
 104 462 104 462 120 462 c 2,36,-1
 295 459 l 1,37,-1
 296 459 l 1,38,39
 328 455 328 455 328 429 c 0,40,41
 328 409 328 409 316 402 c 0,42,43
 290 388 290 388 191 388 c 0,44,45
 154 388 154 388 117 391 c 1,46,47
 117 301 117 301 118 290 c 1,48,49
 157 289 157 289 271 289 c 1,50,51
 302 285 302 285 302 261 c 0,52,53
 302 249 302 249 292 238 c 128,-1,54
 282 227 282 227 270.5 225.5 c 128,-1,55
 259 224 259 224 221.5 224 c 128,-1,56
 184 224 184 224 121 225 c 1,13,-1
EndSplineSet
EndChar

StartChar: edieresis
Encoding: 235 235 173
Width: 380
GlyphClass: 2
Flags: W
LayerCount: 2
Fore
SplineSet
97 512 m 0,0,1
 60 512 60 512 52 551 c 1,2,3
 52 574 52 574 69 591.5 c 128,-1,4
 86 609 86 609 106.5 609 c 128,-1,5
 127 609 127 609 139 595 c 128,-1,6
 151 581 151 581 152 557 c 1,7,8
 149 537 149 537 133.5 524.5 c 128,-1,9
 118 512 118 512 97 512 c 0,0,1
277 608 m 0,10,11
 295 608 295 608 307.5 597.5 c 128,-1,12
 320 587 320 587 321 569 c 1,13,14
 318 544 318 544 303 529.5 c 128,-1,15
 288 515 288 515 268.5 515 c 128,-1,16
 249 515 249 515 236 528.5 c 128,-1,17
 223 542 223 542 223 563 c 0,18,19
 223 608 223 608 277 608 c 0,10,11
121 225 m 1,20,-1
 123 94 l 2,21,22
 123 68 123 68 122 66 c 1,23,-1
 295 69 l 1,24,25
 324 66 324 66 324 44 c 0,26,27
 324 2 324 2 285 2 c 2,28,-1
 89 0 l 2,29,30
 71 0 71 0 62.5 12.5 c 128,-1,31
 54 25 54 25 53 39 c 128,-1,32
 52 53 52 53 52 70 c 2,33,-1
 52 236 l 1,34,35
 39 243 39 243 39 257 c 128,-1,36
 39 271 39 271 50 282 c 1,37,38
 47 360 47 360 47 424 c 0,39,40
 47 461 47 461 92 462 c 0,41,42
 104 462 104 462 120 462 c 2,43,-1
 295 459 l 1,44,-1
 296 459 l 1,45,46
 328 455 328 455 328 429 c 0,47,48
 328 409 328 409 316 402 c 0,49,50
 290 388 290 388 191 388 c 0,51,52
 154 388 154 388 117 391 c 1,53,54
 117 301 117 301 118 290 c 1,55,56
 157 289 157 289 271 289 c 1,57,58
 302 285 302 285 302 261 c 0,59,60
 302 249 302 249 292 238 c 128,-1,61
 282 227 282 227 270.5 225.5 c 128,-1,62
 259 224 259 224 221.5 224 c 128,-1,63
 184 224 184 224 121 225 c 1,20,-1
EndSplineSet
EndChar

StartChar: igrave
Encoding: 236 236 174
Width: 150
GlyphClass: 2
Flags: W
LayerCount: 2
Fore
SplineSet
134 565 m 0,0,1
 152 556 152 556 152 527 c 0,2,3
 152 519 152 519 146 513 c 1,4,5
 137 499 137 499 123.5 499 c 128,-1,6
 110 499 110 499 91.5 509 c 128,-1,7
 73 519 73 519 45.5 546 c 128,-1,8
 18 573 18 573 5 598.5 c 128,-1,9
 -8 624 -8 624 -8 633.5 c 128,-1,10
 -8 643 -8 643 -6.5 651.5 c 128,-1,11
 -5 660 -5 660 6.5 666.5 c 128,-1,12
 18 673 18 673 25 673 c 128,-1,13
 32 673 32 673 36 672 c 0,14,15
 51 668 51 668 77 624.5 c 128,-1,16
 103 581 103 581 134 565 c 0,0,1
61 0 m 0,17,18
 33 0 33 0 33 24 c 2,19,-1
 37 431 l 2,20,21
 37 445 37 445 47 453.5 c 128,-1,22
 57 462 57 462 71.5 462 c 128,-1,23
 86 462 86 462 96.5 455 c 128,-1,24
 107 448 107 448 108 431.5 c 128,-1,25
 109 415 109 415 109 358 c 0,26,27
 109 91 109 91 105 33 c 0,28,29
 104 20 104 20 89.5 10 c 128,-1,30
 75 0 75 0 61 0 c 0,17,18
EndSplineSet
EndChar

StartChar: iacute
Encoding: 237 237 175
Width: 150
GlyphClass: 2
Flags: W
LayerCount: 2
Fore
SplineSet
79 662 m 0,0,1
 85 679 85 679 104.5 679 c 128,-1,2
 124 679 124 679 135.5 667 c 128,-1,3
 147 655 147 655 147 647.5 c 128,-1,4
 147 640 147 640 145 635 c 0,5,6
 129 590 129 590 91.5 550 c 128,-1,7
 54 510 54 510 34 510 c 128,-1,8
 14 510 14 510 4 520 c 128,-1,9
 -6 530 -6 530 -6 543.5 c 128,-1,10
 -6 557 -6 557 10 570 c 0,11,12
 63 613 63 613 79 662 c 0,0,1
61 0 m 0,13,14
 33 0 33 0 33 24 c 2,15,-1
 37 431 l 2,16,17
 37 445 37 445 47 453.5 c 128,-1,18
 57 462 57 462 71.5 462 c 128,-1,19
 86 462 86 462 96.5 455 c 128,-1,20
 107 448 107 448 108 431.5 c 128,-1,21
 109 415 109 415 109 358 c 0,22,23
 109 91 109 91 105 33 c 0,24,25
 104 20 104 20 89.5 10 c 128,-1,26
 75 0 75 0 61 0 c 0,13,14
EndSplineSet
EndChar

